<svg width="141" height="141" viewBox="0 0 141 141" fill="none" xmlns="http://www.w3.org/2000/svg">
<circle r="70.5" transform="matrix(-1 0 0 1 70.5 70.5)" fill="url(#paint0_linear)"/>
<g filter="url(#filter0_dd)">
<rect width="48.8811" height="48.8811" rx="24.4406" transform="matrix(-1 0 0 1 96.0391 47.1172)" fill="white"/>
<path d="M80.6014 80.3705C80.8299 80.3705 81.0476 80.2707 81.1886 80.0927C82.942 77.8784 83.6113 75.0395 83.6113 71.944C83.6113 68.5944 82.1499 65.545 80.1071 63.2626C79.9064 63.0383 79.5863 62.9612 79.305 63.0723C74.6609 64.9076 71.8988 69.5461 71.3228 72.4877C70.7467 69.5461 67.9846 64.9076 63.3405 63.0723C63.0593 62.9612 62.7391 63.0383 62.5384 63.2626C60.4957 65.545 59.0342 68.5944 59.0342 71.944C59.0342 75.0395 59.7036 77.8784 61.457 80.0927C61.5979 80.2707 61.8156 80.3705 62.0442 80.3705H65.4254C65.6961 80.3705 65.9483 80.2303 66.0793 79.9959C66.5226 78.6614 66.7146 77.3321 66.7146 76.1927C67.8785 77.4251 69.5947 78.8513 71.1467 79.5199C71.2569 79.5775 71.3887 79.5775 71.4988 79.5199C73.0509 78.8513 74.7671 77.4251 75.931 76.1927C75.931 77.3321 76.123 78.6614 76.5663 79.9959C76.6972 80.2303 76.9494 80.3705 77.2202 80.3705H80.6014Z" fill="#378757"/>
</g>
<path fill-rule="evenodd" clip-rule="evenodd" d="M18.7326 43.5309C5.42502 71.6376 17.6415 105.1 46.0217 118.279C63.3105 126.308 82.5875 124.912 98.0351 116.273C98.3326 116.106 98.4375 115.733 98.2696 115.438C98.1016 115.144 97.7243 115.04 97.4268 115.206C82.311 123.66 63.4559 125.023 46.5469 117.17C18.7852 104.278 6.83512 71.5452 19.8526 44.051C21.2616 41.0751 22.9483 38.317 24.8012 35.7157C24.9981 35.4393 24.9314 35.0571 24.6523 34.8621C24.3731 34.667 23.9872 34.7331 23.7903 35.0095C21.904 37.6577 20.178 40.4781 18.7326 43.5309Z" fill="url(#paint1_linear)"/>
<path d="M90.8179 113.896C94.9548 114.78 99.0285 112.127 99.9168 107.97C99.0285 112.127 101.662 116.213 105.799 117.097C101.686 116.218 97.6347 118.836 96.7154 122.952L96.7148 122.951C97.5582 118.819 94.9312 114.775 90.8179 113.896Z" fill="#99BE56"/>
<path fill-rule="evenodd" clip-rule="evenodd" d="M114.148 54.5294C113.868 54.3549 113.5 54.442 113.326 54.7241L110.499 59.3206C110.325 59.6026 110.412 59.9728 110.692 60.1474C110.972 60.3219 111.34 60.2348 111.514 59.9527L113.564 56.6206C114.927 63.5307 114.532 70.6839 112.406 77.4129C110.132 84.6114 105.96 91.0551 100.336 96.0588C94.7115 101.062 87.8442 104.439 80.4644 105.829C73.0846 107.219 65.4682 106.571 58.4253 103.954L58.0115 105.081C65.2569 107.773 73.0922 108.44 80.6841 107.01C88.2761 105.58 95.3408 102.106 101.127 96.9587C106.913 91.8112 111.204 85.1822 113.544 77.7768C115.741 70.825 116.14 63.4331 114.717 56.2964L118.089 58.3957C118.369 58.5703 118.737 58.4832 118.911 58.2011C119.084 57.919 118.997 57.5489 118.717 57.3743L114.148 54.5294Z" fill="url(#paint2_linear)"/>
<defs>
<filter id="filter0_dd" x="36.1582" y="42.1172" width="102.881" height="111.881" filterUnits="userSpaceOnUse" color-interpolation-filters="sRGB">
<feFlood flood-opacity="0" result="BackgroundImageFix"/>
<feColorMatrix in="SourceAlpha" type="matrix" values="0 0 0 0 0 0 0 0 0 0 0 0 0 0 0 0 0 0 127 0"/>
<feOffset dx="4" dy="7"/>
<feGaussianBlur stdDeviation="6"/>
<feColorMatrix type="matrix" values="0 0 0 0 0.372986 0 0 0 0 0.545833 0 0 0 0 0.48395 0 0 0 0.06 0"/>
<feBlend mode="normal" in2="BackgroundImageFix" result="effect1_dropShadow"/>
<feColorMatrix in="SourceAlpha" type="matrix" values="0 0 0 0 0 0 0 0 0 0 0 0 0 0 0 0 0 0 127 0"/>
<feOffset dx="16" dy="31"/>
<feGaussianBlur stdDeviation="13.5"/>
<feColorMatrix type="matrix" values="0 0 0 0 0.426562 0 0 0 0 0.5625 0 0 0 0 0.513831 0 0 0 0.04 0"/>
<feBlend mode="normal" in2="effect1_dropShadow" result="effect2_dropShadow"/>
<feBlend mode="normal" in="SourceGraphic" in2="effect2_dropShadow" result="shape"/>
</filter>
<linearGradient id="paint0_linear" x1="0.000124821" y1="10.9047" x2="141" y2="141" gradientUnits="userSpaceOnUse">
<stop stop-color="#2D9060"/>
<stop offset="1" stop-color="#0B6B3E"/>
</linearGradient>
<linearGradient id="paint1_linear" x1="64.615" y1="127.676" x2="22.1138" y2="42.0685" gradientUnits="userSpaceOnUse">
<stop stop-color="#94BB44"/>
<stop offset="1" stop-color="#0E7847" stop-opacity="0"/>
</linearGradient>
<linearGradient id="paint2_linear" x1="86.5867" y1="55.0402" x2="86.5867" y2="107.144" gradientUnits="userSpaceOnUse">
<stop stop-color="#94BB44"/>
<stop offset="1" stop-color="#94BB44" stop-opacity="0"/>
</linearGradient>
</defs>
</svg>
