<svg width="26" height="18" viewBox="0 0 26 18" fill="none" xmlns="http://www.w3.org/2000/svg">
<path d="M3.18423 18C2.94244 18 2.71211 17.8964 2.56303 17.7118C0.708073 15.4143 0 12.4688 0 9.2571C0 5.78167 1.54609 2.61778 3.70708 0.249617C3.91942 0.0169166 4.25811 -0.0631027 4.55561 0.0522093C9.46859 1.95645 12.3906 6.76908 13 9.82117C13.6094 6.76908 16.5314 1.95645 21.4444 0.0522093C21.7419 -0.0631027 22.0806 0.0169126 22.2929 0.249617C24.4539 2.61778 26 5.78167 26 9.2571C26 12.4688 25.2919 15.4143 23.437 17.7118C23.2879 17.8964 23.0576 18 22.8158 18H19.2388C18.9524 18 18.6856 17.8545 18.5471 17.6113C18.0781 16.2267 17.875 14.8475 17.875 13.6653C16.6437 14.9439 14.8281 16.4237 13.1862 17.1174C13.0697 17.1771 12.9303 17.1771 12.8138 17.1174C11.1719 16.4237 9.3563 14.9439 8.125 13.6653C8.125 14.8475 7.92188 16.2267 7.45294 17.6113C7.31437 17.8545 7.04763 18 6.76118 18H3.18423Z" fill="#378757"/>
</svg>
