<svg width="22" height="21" viewBox="0 0 22 21" fill="none" xmlns="http://www.w3.org/2000/svg">
<path d="M9.59289 1.01896C10.0358 -0.339654 11.9642 -0.339654 12.4071 1.01896L13.9896 5.87323C14.1876 6.48082 14.7557 6.8922 15.3967 6.8922H20.5176C21.9509 6.8922 22.5468 8.7202 21.3873 9.55987L17.2443 12.56C16.7258 12.9355 16.5088 13.6011 16.7069 14.2087L18.2893 19.063C18.7322 20.4216 17.1721 21.5514 16.0126 20.7117L11.8696 17.7116C11.3511 17.3361 10.6489 17.3361 10.1304 17.7116L5.98742 20.7117C4.8279 21.5514 3.26776 20.4216 3.71066 19.063L5.29312 14.2087C5.49119 13.6011 5.27421 12.9355 4.75565 12.56L0.61272 9.55987C-0.546807 8.7202 0.049111 6.8922 1.48237 6.8922H6.60331C7.24428 6.8922 7.81235 6.48082 8.01042 5.87323L9.59289 1.01896Z" fill="#378757"/>
</svg>
