<svg width="90" height="26" viewBox="0 0 90 26" fill="none" xmlns="http://www.w3.org/2000/svg">
<path d="M13.3176 14.1005C13.3273 13.3719 13.5268 12.6575 13.8976 12.0239C14.2685 11.3902 14.7985 10.8578 15.4385 10.4762C15.0319 9.91303 14.4956 9.44958 13.872 9.12264C13.2485 8.7957 12.5549 8.61428 11.8465 8.59278C10.3351 8.43892 8.86998 9.46988 8.09984 9.46988C7.3148 9.46988 6.12904 8.60805 4.85219 8.63353C4.02628 8.65941 3.22137 8.89234 2.51588 9.30963C1.81038 9.72692 1.22837 10.3143 0.826554 11.0146C-0.914047 13.9374 0.384284 18.2329 2.05163 20.5955C2.88585 21.7524 3.8608 23.0446 5.1365 22.9988C6.38486 22.9486 6.8511 22.2268 8.35797 22.2268C9.85085 22.2268 10.2883 22.9988 11.5899 22.9697C12.9294 22.9486 13.7734 21.8077 14.5783 20.6398C15.1777 19.8155 15.6389 18.9045 15.9449 17.9404C15.1667 17.6212 14.5025 17.0868 14.0353 16.404C13.5681 15.7211 13.3185 14.92 13.3176 14.1005Z" fill="#5E5E5E"/>
<path d="M10.8591 7.039C11.5895 6.18863 11.9493 5.09562 11.8622 3.99209C10.7463 4.10576 9.71561 4.62299 8.97537 5.44074C8.61344 5.84023 8.33625 6.30498 8.15963 6.80844C7.98301 7.31189 7.91042 7.84417 7.94603 8.37484C8.50416 8.38042 9.05631 8.26309 9.56091 8.0317C10.0655 7.80031 10.5094 7.46089 10.8591 7.039Z" fill="#5E5E5E"/>
<path d="M29.0977 20.0701H24.8376L23.8145 22.9999H22.0102L26.0452 12.1604H27.9199L31.955 22.9999H30.1198L29.0977 20.0701ZM25.2788 18.7181H28.6556L26.991 13.9633H26.9444L25.2788 18.7181Z" fill="#5E5E5E"/>
<path d="M40.6693 19.0489C40.6693 21.5047 39.3141 23.0826 37.2689 23.0826C36.7508 23.1088 36.2355 22.9931 35.7821 22.7486C35.3287 22.504 34.9554 22.1406 34.7051 21.6999H34.6664V25.6143H32.9938V15.097H34.6128V16.4115H34.6436C34.9054 15.9729 35.285 15.6113 35.7418 15.3653C36.1987 15.1193 36.7158 14.998 37.2381 15.0143C39.3061 15.0143 40.6693 16.5999 40.6693 19.0489ZM38.9502 19.0489C38.9502 17.4489 38.0977 16.397 36.7969 16.397C35.519 16.397 34.6594 17.471 34.6594 19.0489C34.6594 20.6412 35.519 21.7076 36.7969 21.7076C38.0977 21.7076 38.9502 20.6634 38.9502 19.0489Z" fill="#5E5E5E"/>
<path d="M49.6377 19.0489C49.6377 21.5047 48.2824 23.0826 46.2372 23.0826C45.7191 23.1088 45.2039 22.9931 44.7505 22.7486C44.2971 22.504 43.9238 22.1406 43.6735 21.6999H43.6347V25.6143H41.9622V15.097H43.5811V16.4115H43.6119C43.8737 15.9729 44.2533 15.6113 44.7102 15.3653C45.167 15.1193 45.6841 14.998 46.2064 15.0143C48.2745 15.0143 49.6377 16.5999 49.6377 19.0489ZM47.9186 19.0489C47.9186 17.4489 47.066 16.397 45.7652 16.397C44.4873 16.397 43.6277 17.471 43.6277 19.0489C43.6277 20.6412 44.4873 21.7076 45.7652 21.7076C47.066 21.7076 47.9186 20.6634 47.9186 19.0489Z" fill="#5E5E5E"/>
<path d="M55.5651 19.9797C55.689 21.0546 56.7657 21.7604 58.2369 21.7604C59.6467 21.7604 60.661 21.0546 60.661 20.0854C60.661 19.244 60.0492 18.7403 58.6008 18.395L57.1524 18.0566C55.1001 17.5758 54.1474 16.645 54.1474 15.1345C54.1474 13.2643 55.8279 11.9797 58.2141 11.9797C60.5757 11.9797 62.1947 13.2643 62.2492 15.1345H60.5608C60.4597 14.0528 59.5377 13.3998 58.1903 13.3998C56.843 13.3998 55.921 14.0604 55.921 15.022C55.921 15.7883 56.5099 16.2392 57.9504 16.5844L59.1817 16.8777C61.4748 17.4036 62.4276 18.297 62.4276 19.8825C62.4276 21.9104 60.762 23.1805 58.113 23.1805C55.6345 23.1805 53.961 21.9402 53.8529 19.9796L55.5651 19.9797Z" fill="#5E5E5E"/>
<path d="M66.0372 13.2268V15.097H67.5867V16.3816H66.0372V20.7384C66.0372 21.4152 66.3475 21.7306 67.0286 21.7306C67.2126 21.7275 67.3963 21.715 67.5788 21.6931V22.97C67.2726 23.0255 66.9613 23.0506 66.6498 23.045C65.0001 23.045 64.3568 22.4441 64.3568 20.9114V16.3816H63.172V15.097H64.3567V13.2268H66.0372Z" fill="#5E5E5E"/>
<path d="M68.4842 19.0489C68.4842 16.5624 69.9941 14.9999 72.3487 14.9999C74.7112 14.9999 76.2141 16.5623 76.2141 19.0489C76.2141 21.5422 74.7191 23.0979 72.3487 23.0979C69.9791 23.0979 68.4842 21.5422 68.4842 19.0489ZM74.5099 19.0489C74.5099 17.3432 73.704 16.3365 72.3487 16.3365C70.9934 16.3365 70.1883 17.3508 70.1883 19.0489C70.1883 20.7614 70.9934 21.7605 72.3487 21.7605C73.704 21.7605 74.5099 20.7614 74.5099 19.0489Z" fill="#5E5E5E"/>
<path d="M77.5931 15.097H79.1883V16.4421H79.227C79.335 16.022 79.5887 15.6508 79.9456 15.3907C80.3026 15.1307 80.7409 14.9978 81.187 15.0143C81.3797 15.0137 81.572 15.034 81.76 15.0749V16.5922C81.5167 16.5201 81.2629 16.4869 81.0085 16.4941C80.7656 16.4846 80.5233 16.5261 80.2985 16.6159C80.0736 16.7058 79.8715 16.8417 79.7059 17.0144C79.5403 17.1872 79.4152 17.3926 79.3392 17.6166C79.2632 17.8407 79.2381 18.078 79.2657 18.3124V22.9999H77.5931L77.5931 15.097Z" fill="#5E5E5E"/>
<path d="M89.4715 20.6787C89.2465 22.1133 87.806 23.0979 85.9629 23.0979C83.5925 23.0979 82.1212 21.5576 82.1212 19.0864C82.1212 16.6075 83.6004 14.9998 85.8926 14.9998C88.147 14.9998 89.5647 16.5018 89.5647 18.898V19.4538H83.8096V19.5518C83.7831 19.8426 83.8206 20.1356 83.9198 20.4113C84.0189 20.687 84.1774 20.9391 84.3848 21.1508C84.5921 21.3625 84.8435 21.529 85.1222 21.6393C85.401 21.7495 85.7008 21.801 86.0016 21.7903C86.3969 21.8262 86.7935 21.7374 87.1326 21.5371C87.4716 21.3369 87.7349 21.0358 87.8834 20.6787L89.4715 20.6787ZM83.8175 18.32H87.8913C87.9063 18.0585 87.8654 17.7968 87.7712 17.5514C87.677 17.3059 87.5315 17.082 87.3438 16.8936C87.1561 16.7053 86.9304 16.5566 86.6806 16.4569C86.4309 16.3572 86.1626 16.3087 85.8926 16.3143C85.6203 16.3127 85.3503 16.3635 85.0982 16.4636C84.8462 16.5638 84.6171 16.7114 84.4242 16.8978C84.2313 17.0843 84.0783 17.306 83.9742 17.5501C83.8701 17.7942 83.8168 18.0559 83.8175 18.32Z" fill="#5E5E5E"/>
<path d="M25.5007 0.8982C25.8758 0.8712 26.2523 0.928041 26.6028 1.06462C26.9534 1.20121 27.2694 1.41413 27.528 1.68802C27.7866 1.96192 27.9814 2.28997 28.0983 2.64851C28.2152 3.00705 28.2513 3.38714 28.204 3.76136C28.204 5.60224 27.212 6.66041 25.5007 6.66041H23.4255V0.8982H25.5007ZM24.3178 5.84551H25.401C25.6691 5.86158 25.9373 5.81749 26.1863 5.71647C26.4352 5.61544 26.6585 5.46001 26.84 5.2615C27.0215 5.06298 27.1566 4.82638 27.2354 4.5689C27.3142 4.31143 27.3348 4.03956 27.2957 3.7731C27.332 3.5077 27.3093 3.23752 27.2293 2.98193C27.1492 2.72634 27.0138 2.49167 26.8328 2.29474C26.6517 2.0978 26.4294 1.94347 26.1819 1.84281C25.9344 1.74215 25.6677 1.69765 25.401 1.71249H24.3178V5.84551Z" fill="#5E5E5E"/>
<path d="M29.212 4.48426C29.1847 4.19849 29.2173 3.91016 29.3077 3.63777C29.398 3.36537 29.5441 3.11492 29.7366 2.90248C29.9292 2.69005 30.1638 2.52031 30.4256 2.40416C30.6873 2.28801 30.9704 2.22801 31.2566 2.22801C31.5428 2.22801 31.8259 2.28801 32.0876 2.40416C32.3494 2.52031 32.584 2.69005 32.7765 2.90248C32.9691 3.11492 33.1152 3.36537 33.2055 3.63777C33.2959 3.91016 33.3285 4.19849 33.3012 4.48426C33.329 4.77032 33.2968 5.05905 33.2067 5.33189C33.1166 5.60472 32.9705 5.85563 32.778 6.06849C32.5854 6.28134 32.3506 6.45143 32.0886 6.56783C31.8265 6.68424 31.5432 6.74437 31.2566 6.74437C30.97 6.74437 30.6866 6.68424 30.4246 6.56783C30.1626 6.45143 29.9278 6.28134 29.7352 6.06849C29.5427 5.85563 29.3966 5.60472 29.3065 5.33189C29.2164 5.05905 29.1842 4.77032 29.212 4.48426ZM32.4211 4.48426C32.4211 3.54166 31.9989 2.99044 31.258 2.99044C30.5142 2.99044 30.0959 3.54166 30.0959 4.48427C30.0959 5.43442 30.5143 5.98139 31.258 5.98139C31.9989 5.98138 32.4211 5.43063 32.4211 4.48426Z" fill="#5E5E5E"/>
<path d="M38.7368 6.66025H37.8492L36.9531 3.45758H36.8854L35.9931 6.66025H35.1139L33.9188 2.31175H34.7867L35.5634 5.62991H35.6273L36.5187 2.31175H37.3396L38.2309 5.62991H38.2986L39.0715 2.31175H39.9272L38.7368 6.66025Z" fill="#5E5E5E"/>
<path d="M40.9324 2.31177H41.7561V3.00257H41.82C41.9285 2.75446 42.1114 2.54647 42.3433 2.4076C42.5753 2.26873 42.8446 2.20588 43.1138 2.22783C43.3248 2.21192 43.5366 2.24383 43.7336 2.32118C43.9306 2.39852 44.1077 2.51934 44.2518 2.67467C44.396 2.82999 44.5034 3.01585 44.5662 3.21848C44.6289 3.4211 44.6455 3.6353 44.6145 3.84519V6.66023H43.7589V4.0607C43.7589 3.36189 43.4561 3.01436 42.8233 3.01436C42.68 3.00767 42.5371 3.03212 42.4041 3.08604C42.2712 3.13995 42.1515 3.22206 42.0532 3.32672C41.9548 3.43139 41.8802 3.55615 41.8345 3.69244C41.7887 3.82873 41.7729 3.97333 41.788 4.11634V6.66027H40.9324L40.9324 2.31177Z" fill="#5E5E5E"/>
<path d="M45.978 0.614254H46.8337V6.66028H45.978V0.614254Z" fill="#5E5E5E"/>
<path d="M48.023 4.48434C47.9957 4.19855 48.0284 3.91021 48.1187 3.6378C48.2091 3.36539 48.3552 3.11494 48.5478 2.9025C48.7403 2.69005 48.975 2.52031 49.2368 2.40416C49.4985 2.28801 49.7816 2.22801 50.0678 2.22801C50.3541 2.22801 50.6372 2.28801 50.8989 2.40416C51.1607 2.52031 51.3954 2.69005 51.5879 2.9025C51.7804 3.11494 51.9266 3.36539 52.0169 3.6378C52.1073 3.91021 52.1399 4.19855 52.1127 4.48434C52.1404 4.77041 52.1082 5.05915 52.0181 5.33198C51.9279 5.60482 51.7819 5.85572 51.5893 6.06857C51.3967 6.28142 51.1618 6.4515 50.8998 6.5679C50.6378 6.68429 50.3544 6.74442 50.0678 6.74442C49.7813 6.74442 49.4979 6.68429 49.2358 6.5679C48.9738 6.4515 48.739 6.28142 48.5464 6.06857C48.3538 5.85572 48.2078 5.60482 48.1176 5.33198C48.0275 5.05915 47.9952 4.77041 48.023 4.48434ZM51.2321 4.48434C51.2321 3.54174 50.8099 2.99052 50.069 2.99052C49.3253 2.99052 48.9069 3.54175 48.9069 4.48435C48.9069 5.4345 49.3253 5.98147 50.069 5.98147C50.8099 5.98146 51.2321 5.43071 51.2321 4.48434Z" fill="#5E5E5E"/>
<path d="M53.0136 5.43067C53.0136 4.64792 53.5947 4.19666 54.6262 4.13253L55.8006 4.06463V3.68929C55.8006 3.23001 55.4978 2.97067 54.913 2.97067C54.4353 2.97067 54.1043 3.14656 54.0093 3.454H53.181C53.2684 2.70708 53.9689 2.22801 54.9524 2.22801C56.0394 2.22801 56.6525 2.77073 56.6525 3.68929V6.66044H55.8288V6.04933H55.7611C55.6237 6.26854 55.4307 6.44724 55.2019 6.56719C54.9731 6.68714 54.7167 6.74404 54.4588 6.73208C54.2768 6.75107 54.0928 6.7316 53.9188 6.67491C53.7447 6.61823 53.5845 6.52559 53.4483 6.40297C53.3122 6.28036 53.2031 6.13049 53.1283 5.96302C53.0534 5.79555 53.0143 5.6142 53.0136 5.43067ZM55.8006 5.0591V4.69555L54.7418 4.76345C54.1447 4.80352 53.8739 5.00723 53.8739 5.39058C53.8739 5.78196 54.2124 6.00971 54.6779 6.00971C54.8143 6.02355 54.9521 6.00974 55.083 5.9691C55.214 5.92845 55.3354 5.8618 55.4402 5.77311C55.5449 5.68441 55.6308 5.5755 55.6927 5.45283C55.7546 5.33017 55.7913 5.19627 55.8006 5.0591Z" fill="#5E5E5E"/>
<path d="M57.7771 4.48416C57.7771 3.11011 58.4813 2.23965 59.5767 2.23965C59.8477 2.22713 60.1166 2.29222 60.352 2.42732C60.5875 2.56241 60.7797 2.76193 60.9063 3.00256H60.9702V0.614254H61.8259V6.66028H61.006V5.97325H60.9383C60.8019 6.21225 60.603 6.40929 60.363 6.54302C60.123 6.67676 59.8511 6.74209 59.5767 6.73195C58.4738 6.73199 57.7771 5.86152 57.7771 4.48416ZM58.6609 4.48416C58.6609 5.40649 59.0944 5.96149 59.8194 5.96149C60.5405 5.96149 60.9862 5.39848 60.9862 4.48794C60.9862 3.58164 60.5359 3.01061 59.8194 3.01061C59.0991 3.01061 58.6609 3.56938 58.6609 4.48416Z" fill="#5E5E5E"/>
<path d="M65.366 4.48426C65.3387 4.19849 65.3713 3.91016 65.4617 3.63777C65.552 3.36537 65.6982 3.11492 65.8907 2.90248C66.0832 2.69005 66.3178 2.52031 66.5796 2.40416C66.8413 2.28801 67.1244 2.22801 67.4106 2.22801C67.6968 2.22801 67.9799 2.28801 68.2417 2.40416C68.5034 2.52031 68.7381 2.69005 68.9306 2.90248C69.1231 3.11492 69.2692 3.36537 69.3596 3.63777C69.4499 3.91016 69.4825 4.19849 69.4553 4.48426C69.483 4.77032 69.4508 5.05905 69.3607 5.33189C69.2706 5.60472 69.1245 5.85563 68.932 6.06849C68.7394 6.28134 68.5046 6.45143 68.2426 6.56783C67.9806 6.68424 67.6972 6.74437 67.4106 6.74437C67.1241 6.74437 66.8407 6.68424 66.5787 6.56783C66.3167 6.45143 66.0818 6.28134 65.8893 6.06849C65.6967 5.85563 65.5507 5.60472 65.4605 5.33189C65.3704 5.05905 65.3382 4.77032 65.366 4.48426ZM68.5751 4.48426C68.5751 3.54166 68.153 2.99044 67.412 2.99044C66.6683 2.99044 66.2499 3.54166 66.2499 4.48427C66.2499 5.43442 66.6683 5.98139 67.412 5.98139C68.153 5.98138 68.5751 5.43063 68.5751 4.48426Z" fill="#5E5E5E"/>
<path d="M70.6032 2.31177H71.4269V3.00257H71.4908C71.5993 2.75446 71.7822 2.54647 72.0141 2.4076C72.2461 2.26873 72.5154 2.20588 72.7846 2.22783C72.9956 2.21192 73.2074 2.24383 73.4044 2.32118C73.6014 2.39852 73.7785 2.51934 73.9226 2.67467C74.0668 2.82999 74.1742 3.01585 74.237 3.21848C74.2998 3.4211 74.3163 3.6353 74.2853 3.84519V6.66023H73.4297V4.0607C73.4297 3.36189 73.1269 3.01436 72.4941 3.01436C72.3509 3.00767 72.2079 3.03212 72.075 3.08604C71.942 3.13995 71.8223 3.22206 71.724 3.32672C71.6256 3.43139 71.551 3.55615 71.5053 3.69244C71.4595 3.82873 71.4437 3.97333 71.4588 4.11634V6.66027H70.6032V2.31177Z" fill="#5E5E5E"/>
<path d="M79.1201 1.22904V2.33149H80.0594V3.05436H79.1201V5.29038C79.1201 5.74589 79.3072 5.94534 79.7331 5.94534C79.8422 5.94499 79.9511 5.93838 80.0594 5.92554V6.64038C79.9057 6.66795 79.7501 6.68262 79.594 6.68423C78.6424 6.68423 78.2635 6.3485 78.2635 5.51011V3.05432H77.5752V2.33145H78.2635V1.22904H79.1201Z" fill="#5E5E5E"/>
<path d="M81.2282 0.614254H82.0764V3.0106H82.1441C82.2578 2.76018 82.4458 2.55101 82.6823 2.41162C82.9189 2.27222 83.1926 2.20937 83.466 2.23163C83.6759 2.22017 83.8857 2.25531 84.0804 2.33454C84.2752 2.41377 84.4501 2.53513 84.5928 2.68997C84.7354 2.84481 84.8422 3.02931 84.9055 3.23031C84.9688 3.4313 84.9872 3.64384 84.9592 3.85276V6.66029H84.1027V4.06448C84.1027 3.3699 83.7801 3.01814 83.1756 3.01814C83.0285 3.00604 82.8806 3.02632 82.7422 3.07755C82.6037 3.12878 82.4781 3.20974 82.3741 3.31474C82.2702 3.41975 82.1903 3.54628 82.1402 3.68548C82.09 3.82467 82.0709 3.97317 82.0839 4.12058V6.66027H81.2283L81.2282 0.614254Z" fill="#5E5E5E"/>
<path d="M89.9483 5.4862C89.832 5.88363 89.5802 6.2274 89.2367 6.45739C88.8933 6.68737 88.4802 6.78891 88.0696 6.74426C87.784 6.75182 87.5001 6.69695 87.2378 6.58345C86.9754 6.46995 86.7408 6.30055 86.5502 6.08699C86.3597 5.87344 86.2177 5.62085 86.1343 5.34676C86.0508 5.07268 86.0278 4.78365 86.0668 4.49975C86.0288 4.21498 86.0522 3.92534 86.1355 3.65043C86.2188 3.37552 86.36 3.12176 86.5495 2.90634C86.7391 2.69092 86.9725 2.51885 87.2342 2.4018C87.4958 2.28475 87.7794 2.22544 88.0659 2.22789C89.2722 2.22789 90 3.05454 90 4.42004V4.7195H86.9385V4.76759C86.9251 4.92717 86.9451 5.0878 86.9972 5.23917C87.0493 5.39055 87.1324 5.52933 87.2411 5.64662C87.3498 5.76391 87.4818 5.85712 87.6285 5.92027C87.7752 5.98343 87.9335 6.01513 88.0931 6.01335C88.2978 6.038 88.5052 6.00103 88.6888 5.90716C88.8725 5.81329 89.0242 5.66675 89.1246 5.48617L89.9483 5.4862ZM86.9384 4.0848H89.1283C89.1391 3.93886 89.1194 3.79226 89.0703 3.65444C89.0212 3.51661 88.944 3.39061 88.8435 3.28452C88.743 3.17843 88.6214 3.0946 88.4867 3.03842C88.352 2.98224 88.207 2.95495 88.0611 2.95831C87.9131 2.95644 87.7663 2.98431 87.6292 3.04027C87.4921 3.09622 87.3676 3.17914 87.263 3.28412C87.1583 3.38911 87.0757 3.51404 87.02 3.65155C86.9643 3.78906 86.9365 3.93637 86.9384 4.0848Z" fill="#5E5E5E"/>
</svg>
