<svg width="94" height="26" viewBox="0 0 94 26" fill="none" xmlns="http://www.w3.org/2000/svg">
<path d="M31.744 20.4558H27.3893L26.3435 23.3856H24.499L28.6238 12.5461H30.5401L34.6649 23.3856H32.7889L31.744 20.4558ZM27.8403 19.1039H31.2922L29.5905 14.349H29.5429L27.8403 19.1039Z" fill="white"/>
<path d="M43.5729 19.4346C43.5729 21.8905 42.1875 23.4683 40.0968 23.4683C39.5672 23.4946 39.0405 23.3788 38.577 23.1343C38.1135 22.8898 37.732 22.5264 37.4761 22.0857H37.4365V26H35.7268V15.4828H37.3817V16.7972H37.4132C37.6809 16.3586 38.0688 15.9971 38.5359 15.7511C39.0029 15.505 39.5315 15.3837 40.0654 15.4001C42.1794 15.4001 43.5729 16.9856 43.5729 19.4346ZM41.8155 19.4346C41.8155 17.8346 40.944 16.7827 39.6143 16.7827C38.308 16.7827 37.4293 17.8568 37.4293 19.4346C37.4293 21.027 38.308 22.0933 39.6143 22.0933C40.944 22.0933 41.8155 21.0491 41.8155 19.4346Z" fill="white"/>
<path d="M52.7405 19.4346C52.7405 21.8905 51.3551 23.4683 49.2645 23.4683C48.7349 23.4946 48.2082 23.3788 47.7447 23.1343C47.2812 22.8898 46.8996 22.5264 46.6437 22.0857H46.6042V26H44.8944V15.4828H46.5494V16.7972H46.5808C46.8485 16.3586 47.2365 15.9971 47.7035 15.7511C48.1705 15.505 48.6991 15.3838 49.233 15.4001C51.347 15.4001 52.7405 16.9856 52.7405 19.4346ZM50.9832 19.4346C50.9832 17.8346 50.1117 16.7827 48.782 16.7827C47.4757 16.7827 46.597 17.8568 46.597 19.4346C46.597 21.027 47.4757 22.0933 48.782 22.0933C50.1117 22.0933 50.9832 21.0491 50.9832 19.4346Z" fill="white"/>
<path d="M58.7996 20.3655C58.9263 21.4404 60.0269 22.1462 61.5309 22.1462C62.972 22.1462 64.0088 21.4403 64.0088 20.4711C64.0088 19.6298 63.3834 19.126 61.9028 18.7808L60.4222 18.4424C58.3243 17.9616 57.3504 17.0307 57.3504 15.5202C57.3504 13.65 59.0682 12.3654 61.5075 12.3654C63.9216 12.3654 65.5765 13.65 65.6322 15.5202H63.9063C63.803 14.4385 62.8605 13.7856 61.4832 13.7856C60.1059 13.7856 59.1634 14.4462 59.1634 15.4077C59.1634 16.1741 59.7654 16.625 61.2379 16.9702L62.4967 17.2634C64.8407 17.7894 65.8146 18.6827 65.8146 20.2682C65.8146 22.2961 64.112 23.5663 61.4042 23.5663C58.8706 23.5663 57.1599 22.326 57.0494 20.3654L58.7996 20.3655Z" fill="white"/>
<path d="M69.5045 13.6125V15.4828H71.0884V16.7674H69.5045V21.1241C69.5045 21.801 69.8216 22.1164 70.5179 22.1164C70.706 22.1132 70.8937 22.1007 71.0804 22.0788V23.3558C70.7673 23.4113 70.4491 23.4364 70.1307 23.4308C68.4443 23.4308 67.7867 22.8298 67.7867 21.2971V16.7674H66.5756V15.4828H67.7867V13.6125H69.5045Z" fill="white"/>
<path d="M72.0058 19.4346C72.0058 16.9481 73.5493 15.3856 75.9562 15.3856C78.3712 15.3856 79.9075 16.9481 79.9075 19.4346C79.9075 21.928 78.3793 23.4836 75.9562 23.4836C73.534 23.4836 72.0058 21.928 72.0058 19.4346ZM78.1655 19.4346C78.1655 17.7289 77.3416 16.7222 75.9562 16.7222C74.5708 16.7222 73.7478 17.7366 73.7478 19.4346C73.7478 21.1471 74.5708 22.1462 75.9562 22.1462C77.3416 22.1462 78.1655 21.1471 78.1655 19.4346Z" fill="white"/>
<path d="M81.3172 15.4828H82.9478V16.8279H82.9874C83.0977 16.4078 83.3571 16.0365 83.722 15.7765C84.0868 15.5165 84.5349 15.3836 84.9909 15.4001C85.1879 15.3994 85.3844 15.4197 85.5767 15.4606V16.9779C85.3279 16.9058 85.0685 16.8727 84.8085 16.8799C84.5601 16.8703 84.3125 16.9119 84.0826 17.0017C83.8528 17.0915 83.6461 17.2274 83.4769 17.4002C83.3076 17.5729 83.1798 17.7783 83.1021 18.0024C83.0244 18.2264 82.9988 18.4638 83.0269 18.6981V23.3856H81.3172L81.3172 15.4828Z" fill="white"/>
<path d="M93.4596 21.0645C93.2296 22.4991 91.757 23.4836 89.873 23.4836C87.4499 23.4836 85.9459 21.9433 85.9459 19.4721C85.9459 16.9933 87.458 15.3856 89.8011 15.3856C92.1056 15.3856 93.5548 16.8876 93.5548 19.2837V19.8395H87.6718V19.9375C87.6447 20.2284 87.6831 20.5214 87.7844 20.7971C87.8858 21.0728 88.0478 21.3249 88.2597 21.5366C88.4717 21.7483 88.7286 21.9148 89.0136 22.025C89.2986 22.1353 89.605 22.1868 89.9125 22.176C90.3166 22.2119 90.722 22.1232 91.0686 21.9229C91.4152 21.7226 91.6843 21.4215 91.8361 21.0644L93.4596 21.0645ZM87.6799 18.7058H91.8442C91.8595 18.4443 91.8177 18.1826 91.7214 17.9371C91.6251 17.6917 91.4764 17.4677 91.2845 17.2794C91.0927 17.091 90.8619 16.9424 90.6066 16.8427C90.3513 16.743 90.0771 16.6944 89.8011 16.7C89.5227 16.6985 89.2467 16.7492 88.9891 16.8494C88.7314 16.9495 88.4972 17.0971 88.3 17.2836C88.1028 17.4701 87.9465 17.6917 87.84 17.9358C87.7336 18.1799 87.6792 18.4416 87.6799 18.7058Z" fill="white"/>
<path d="M28.0671 1.28395C28.4506 1.25695 28.8354 1.31379 29.1938 1.45037C29.5521 1.58695 29.8752 1.79987 30.1395 2.07377C30.4039 2.34767 30.603 2.67572 30.7224 3.03425C30.8419 3.39279 30.8788 3.77288 30.8305 4.14711C30.8305 5.98798 29.8165 7.04615 28.0671 7.04615H25.9458V1.28395H28.0671ZM26.858 6.23125H27.9652C28.2393 6.24732 28.5135 6.20324 28.7679 6.10221C29.0224 6.00119 29.2507 5.84576 29.4362 5.64724C29.6217 5.44873 29.7598 5.21212 29.8404 4.95465C29.921 4.69717 29.942 4.42531 29.902 4.15885C29.9391 3.89344 29.9159 3.62326 29.8341 3.36768C29.7523 3.11209 29.6139 2.87742 29.4288 2.68048C29.2437 2.48355 29.0165 2.32922 28.7635 2.22856C28.5104 2.1279 28.2379 2.08339 27.9652 2.09824H26.858V6.23125Z" fill="white"/>
<path d="M31.8609 4.87001C31.833 4.58424 31.8663 4.29591 31.9587 4.02351C32.0511 3.75112 32.2004 3.50067 32.3972 3.28823C32.594 3.07579 32.8339 2.90605 33.1014 2.7899C33.369 2.67375 33.6584 2.61375 33.9509 2.61375C34.2435 2.61375 34.5329 2.67375 34.8004 2.7899C35.068 2.90605 35.3079 3.07579 35.5047 3.28823C35.7015 3.50067 35.8508 3.75112 35.9432 4.02351C36.0355 4.29591 36.0689 4.58424 36.041 4.87001C36.0694 5.15607 36.0365 5.4448 35.9443 5.71763C35.8522 5.99047 35.703 6.24138 35.5061 6.45423C35.3093 6.66709 35.0692 6.83718 34.8014 6.95358C34.5336 7.06998 34.2439 7.13011 33.9509 7.13011C33.658 7.13011 33.3683 7.06998 33.1005 6.95358C32.8326 6.83718 32.5926 6.66709 32.3958 6.45423C32.1989 6.24138 32.0496 5.99047 31.9575 5.71763C31.8654 5.4448 31.8325 5.15607 31.8609 4.87001ZM35.1413 4.87001C35.1413 3.92741 34.7098 3.37619 33.9524 3.37619C33.1921 3.37619 32.7644 3.92741 32.7644 4.87002C32.7644 5.82016 33.1921 6.36714 33.9524 6.36714C34.7098 6.36713 35.1413 5.81638 35.1413 4.87001Z" fill="white"/>
<path d="M41.5974 7.046H40.69L39.774 3.84332H39.7048L38.7927 7.046H37.894L36.6723 2.6975H37.5595L38.3534 6.01566H38.4188L39.33 2.6975H40.1691L41.0803 6.01566H41.1495L41.9395 2.6975H42.8142L41.5974 7.046Z" fill="white"/>
<path d="M43.8418 2.69752H44.6837V3.38831H44.7491C44.86 3.14021 45.047 2.93222 45.2841 2.79335C45.5211 2.65447 45.7965 2.59163 46.0717 2.61358C46.2873 2.59767 46.5038 2.62957 46.7052 2.70692C46.9066 2.78427 47.0876 2.90508 47.235 3.06041C47.3823 3.21574 47.4921 3.4016 47.5563 3.60422C47.6204 3.80685 47.6373 4.02104 47.6057 4.23094V7.04597H46.731V4.44645C46.731 3.74764 46.4215 3.40011 45.7747 3.40011C45.6283 3.39342 45.4821 3.41787 45.3462 3.47178C45.2103 3.5257 45.0879 3.6078 44.9874 3.71247C44.8869 3.81714 44.8107 3.94189 44.7639 4.07818C44.7171 4.21447 44.7009 4.35908 44.7164 4.50208V7.04602H43.8418L43.8418 2.69752Z" fill="white"/>
<path d="M48.9995 1H49.8742V7.04603H48.9995V1Z" fill="white"/>
<path d="M51.0899 4.87009C51.0621 4.5843 51.0954 4.29595 51.1878 4.02355C51.2802 3.75114 51.4296 3.50068 51.6264 3.28824C51.8232 3.0758 52.0631 2.90606 52.3307 2.78991C52.5982 2.67375 52.8876 2.61375 53.1802 2.61375C53.4728 2.61375 53.7622 2.67375 54.0298 2.78991C54.2974 2.90606 54.5372 3.0758 54.734 3.28824C54.9309 3.50068 55.0802 3.75114 55.1726 4.02355C55.265 4.29595 55.2984 4.5843 55.2705 4.87009C55.2989 5.15616 55.2659 5.44489 55.1738 5.71773C55.0816 5.99056 54.9323 6.24146 54.7355 6.45431C54.5386 6.66716 54.2985 6.83725 54.0307 6.95364C53.7628 7.07004 53.4732 7.13017 53.1802 7.13017C52.8873 7.13017 52.5976 7.07004 52.3297 6.95364C52.0619 6.83725 51.8218 6.66716 51.625 6.45431C51.4281 6.24146 51.2788 5.99056 51.1867 5.71773C51.0945 5.44489 51.0616 5.15616 51.0899 4.87009ZM54.3704 4.87009C54.3704 3.92749 53.9388 3.37627 53.1814 3.37627C52.4211 3.37627 51.9934 3.92749 51.9934 4.8701C51.9934 5.82024 52.4212 6.36722 53.1814 6.36722C53.9388 6.36721 54.3704 5.81646 54.3704 4.87009Z" fill="white"/>
<path d="M56.1914 5.81642C56.1914 5.03367 56.7854 4.58241 57.8398 4.51828L59.0403 4.45038V4.07504C59.0403 3.61576 58.7308 3.35642 58.133 3.35642C57.6447 3.35642 57.3064 3.5323 57.2093 3.83975H56.3625C56.4519 3.09283 57.168 2.61375 58.1734 2.61375C59.2845 2.61375 59.9112 3.15648 59.9112 4.07504V7.04618H59.0692V6.43508H59C58.8595 6.65428 58.6623 6.83299 58.4284 6.95294C58.1945 7.07289 57.9324 7.12979 57.6688 7.11783C57.4827 7.13682 57.2947 7.11734 57.1167 7.06066C56.9388 7.00397 56.775 6.91133 56.6358 6.78872C56.4966 6.66611 56.3852 6.51623 56.3086 6.34877C56.2321 6.1813 56.1922 5.99995 56.1914 5.81642ZM59.0403 5.44484V5.08129L57.9581 5.14919C57.3477 5.18927 57.0709 5.39297 57.0709 5.77633C57.0709 6.1677 57.4169 6.39545 57.8927 6.39545C58.0322 6.4093 58.173 6.39549 58.3068 6.35484C58.4407 6.3142 58.5649 6.24754 58.6719 6.15885C58.779 6.07016 58.8668 5.96124 58.9301 5.83858C58.9934 5.71592 59.0309 5.58202 59.0403 5.44484Z" fill="white"/>
<path d="M61.0607 4.86991C61.0607 3.49585 61.7807 2.6254 62.9004 2.6254C63.1774 2.61287 63.4523 2.67797 63.693 2.81306C63.9336 2.94816 64.1301 3.14768 64.2595 3.3883H64.3249V1H65.1995V7.04603H64.3614V6.359H64.2922C64.1528 6.598 63.9495 6.79504 63.7041 6.92877C63.4588 7.0625 63.1809 7.12783 62.9004 7.11769C61.773 7.11774 61.0607 6.24726 61.0607 4.86991ZM61.9643 4.86991C61.9643 5.79223 62.4074 6.34723 63.1484 6.34723C63.8856 6.34723 64.3412 5.78423 64.3412 4.87368C64.3412 3.96739 63.8808 3.39636 63.1484 3.39636C62.4122 3.39636 61.9643 3.95512 61.9643 4.86991Z" fill="white"/>
<path d="M68.8183 4.87001C68.7905 4.58424 68.8238 4.29591 68.9162 4.02351C69.0085 3.75112 69.1579 3.50067 69.3547 3.28823C69.5515 3.07579 69.7913 2.90605 70.0589 2.7899C70.3265 2.67375 70.6158 2.61375 70.9084 2.61375C71.201 2.61375 71.4903 2.67375 71.7579 2.7899C72.0255 2.90605 72.2653 3.07579 72.4621 3.28823C72.6589 3.50067 72.8083 3.75112 72.9006 4.02351C72.993 4.29591 73.0263 4.58424 72.9985 4.87001C73.0269 5.15607 72.9939 5.4448 72.9018 5.71763C72.8097 5.99047 72.6604 6.24138 72.4636 6.45423C72.2667 6.66709 72.0267 6.83718 71.7589 6.95358C71.491 7.06998 71.2013 7.13011 70.9084 7.13011C70.6155 7.13011 70.3258 7.06998 70.0579 6.95358C69.7901 6.83718 69.5501 6.66709 69.3532 6.45423C69.1564 6.24138 69.0071 5.99047 68.915 5.71763C68.8229 5.4448 68.79 5.15607 68.8183 4.87001ZM72.0988 4.87001C72.0988 3.92741 71.6672 3.37619 70.9098 3.37619C70.1496 3.37619 69.7219 3.92741 69.7219 4.87002C69.7219 5.82016 70.1496 6.36714 70.9098 6.36714C71.6672 6.36713 72.0988 5.81638 72.0988 4.87001Z" fill="white"/>
<path d="M74.1719 2.69752H75.0139V3.38831H75.0793C75.1901 3.14021 75.3771 2.93222 75.6142 2.79335C75.8513 2.65447 76.1266 2.59163 76.4018 2.61358C76.6175 2.59767 76.834 2.62957 77.0354 2.70692C77.2367 2.78427 77.4178 2.90508 77.5651 3.06041C77.7125 3.21574 77.8223 3.4016 77.8864 3.60422C77.9506 3.80685 77.9675 4.02104 77.9359 4.23094V7.04597H77.0612V4.44645C77.0612 3.74764 76.7517 3.40011 76.1048 3.40011C75.9584 3.39342 75.8123 3.41787 75.6764 3.47178C75.5405 3.5257 75.4181 3.6078 75.3176 3.71247C75.2171 3.81714 75.1408 3.94189 75.094 4.07818C75.0473 4.21447 75.0311 4.35908 75.0466 4.50208V7.04602H74.1719V2.69752Z" fill="white"/>
<path d="M82.878 1.61479V2.71724H83.8383V3.44011H82.878V5.67613C82.878 6.13163 83.0693 6.33109 83.5047 6.33109C83.6162 6.33074 83.7276 6.32413 83.8383 6.31128V7.02613C83.6812 7.0537 83.522 7.06837 83.3625 7.06998C82.3898 7.06998 82.0024 6.73424 82.0024 5.89586V3.44007H81.2989V2.7172H82.0024V1.61479H82.878Z" fill="white"/>
<path d="M85.0331 1H85.9V3.39635H85.9692C86.0855 3.14592 86.2776 2.93676 86.5195 2.79736C86.7613 2.65796 87.041 2.59511 87.3206 2.61737C87.5351 2.60592 87.7496 2.64106 87.9487 2.72029C88.1478 2.79952 88.3266 2.92088 88.4724 3.07572C88.6181 3.23056 88.7273 3.41506 88.792 3.61605C88.8568 3.81705 88.8755 4.02959 88.8469 4.23851V7.04604H87.9714V4.45022C87.9714 3.75565 87.6417 3.40388 87.0237 3.40388C86.8733 3.39178 86.7221 3.41206 86.5806 3.4633C86.4391 3.51453 86.3107 3.59548 86.2044 3.70049C86.0981 3.8055 86.0165 3.93203 85.9653 4.07122C85.914 4.21042 85.8944 4.35891 85.9078 4.50633V7.04602H85.0331L85.0331 1Z" fill="white"/>
<path d="M93.9469 5.87195C93.8281 6.26937 93.5706 6.61315 93.2195 6.84313C92.8685 7.07311 92.4462 7.17466 92.0265 7.13C91.7345 7.13756 91.4443 7.08269 91.1761 6.96919C90.9079 6.8557 90.6681 6.68629 90.4733 6.47274C90.2785 6.25918 90.1334 6.0066 90.0481 5.73251C89.9628 5.45842 89.9393 5.1694 89.9792 4.8855C89.9403 4.60073 89.9642 4.31108 90.0494 4.03617C90.1345 3.76126 90.2788 3.50751 90.4726 3.29208C90.6664 3.07666 90.905 2.9046 91.1725 2.78755C91.4399 2.6705 91.7298 2.61119 92.0226 2.61364C93.2558 2.61364 93.9998 3.44028 93.9998 4.80579V5.10525H90.8702V5.15334C90.8565 5.31292 90.8769 5.47354 90.9302 5.62492C90.9835 5.77629 91.0684 5.91507 91.1795 6.03236C91.2907 6.14965 91.4256 6.24286 91.5755 6.30602C91.7255 6.36917 91.8873 6.40088 92.0505 6.3991C92.2597 6.42374 92.4717 6.38678 92.6595 6.2929C92.8472 6.19903 93.0023 6.05249 93.1049 5.87192L93.9469 5.87195ZM90.8702 4.47055H93.1087C93.1198 4.3246 93.0996 4.17801 93.0494 4.04018C92.9992 3.90236 92.9203 3.77636 92.8175 3.67027C92.7148 3.56418 92.5906 3.48035 92.4528 3.42417C92.3151 3.36799 92.1669 3.3407 92.0178 3.34405C91.8665 3.34219 91.7164 3.37005 91.5763 3.42601C91.4362 3.48197 91.3089 3.56488 91.2019 3.66987C91.095 3.77485 91.0105 3.89979 90.9535 4.0373C90.8966 4.17481 90.8682 4.32212 90.8702 4.47055Z" fill="white"/>
<path d="M15.8693 12.9932C15.8808 12.1199 16.1186 11.2636 16.5605 10.504C17.0023 9.74447 17.6339 9.1063 18.3966 8.64889C17.9121 7.97386 17.273 7.41834 16.53 7.02645C15.7869 6.63456 14.9605 6.41709 14.1163 6.39132C12.3154 6.2069 10.5695 7.44267 9.65179 7.44267C8.71633 7.44267 7.30338 6.40963 5.78188 6.44017C4.79772 6.47119 3.83859 6.7504 2.99792 7.25059C2.15726 7.75078 1.46373 8.45489 0.984924 9.29432C-1.08918 12.7977 0.457914 17.9466 2.44473 20.7785C3.43878 22.1652 4.60054 23.7142 6.12067 23.6593C7.60822 23.5991 8.16378 22.7338 9.95938 22.7338C11.7383 22.7338 12.2595 23.6593 13.8105 23.6243C15.4067 23.5991 16.4124 22.2315 17.3716 20.8316C18.0858 19.8436 18.6354 18.7515 19 17.596C18.0726 17.2133 17.2813 16.5728 16.7245 15.7543C16.1678 14.9358 15.8704 13.9755 15.8693 12.9932Z" fill="white"/>
<path d="M12.7101 3.80578C13.6375 2.81925 14.0944 1.55122 13.9837 0.270996C12.5669 0.402864 11.2581 1.00292 10.3182 1.9516C9.85863 2.41506 9.50666 2.95423 9.28239 3.5383C9.05813 4.12237 8.96597 4.73987 9.01118 5.35552C9.71986 5.36199 10.421 5.22587 11.0617 4.95743C11.7024 4.68899 12.266 4.29522 12.7101 3.80578Z" fill="white"/>
</svg>
