<svg width="108" height="24" viewBox="0 0 108 24" fill="none" xmlns="http://www.w3.org/2000/svg">
<path d="M92.1367 20.4179H90.397V9.43217H92.1367V20.4179Z" fill="#5E5E5E"/>
<path d="M104.072 18.1524L106.066 13.3895H108L103.218 23.7494H101.403L103.172 20.0465L100.068 13.3895H101.942L104.012 18.1524H104.072Z" fill="#5E5E5E"/>
<path fill-rule="evenodd" clip-rule="evenodd" d="M93.3067 14.8312C93.8464 13.6723 95.1507 13.1491 96.4102 13.1491C98.4044 13.1491 99.9482 14.2377 99.9482 16.1878V20.3997H98.2692V19.5519H98.2095C97.804 20.1313 97.1598 20.6259 95.9898 20.6259C94.4608 20.6259 93.096 19.6789 93.096 18.209C93.096 16.5976 94.7908 15.7357 96.455 15.7357C97.28 15.7357 97.9541 15.99 98.2692 16.1596V16.0467C98.2543 15.1422 97.3397 14.6331 96.44 14.6331C95.7949 14.6331 95.1805 14.8312 94.8505 15.4388L93.3067 14.8312ZM94.8356 18.2372C94.8356 18.9017 95.6299 19.1702 96.2004 19.1702C97.2045 19.1702 98.134 18.4493 98.2692 17.4319C97.804 17.2196 97.445 17.0642 96.6796 17.0642C95.8257 17.0642 94.8356 17.3892 94.8356 18.2372Z" fill="#5E5E5E"/>
<path fill-rule="evenodd" clip-rule="evenodd" d="M81.4462 9.43217H85.6144C87.5424 9.43217 89.4377 10.748 89.4377 12.8439C89.4377 14.94 87.5424 16.2558 85.6144 16.2558H83.1849V20.4179H81.4462V9.43217ZM83.1849 14.7268H85.6592C86.9597 14.7268 87.6981 13.6953 87.6981 12.8439C87.6981 11.9761 86.9597 10.9612 85.6592 10.9612H83.1849V14.7268Z" fill="#5E5E5E"/>
<path fill-rule="evenodd" clip-rule="evenodd" d="M64.8219 14.0046H64.8821V13.396H66.5343V20.1066C66.5343 22.8672 64.807 24 62.7644 24C60.842 24 59.6854 22.7824 59.2498 21.7914L60.7665 21.1968C61.0372 21.8054 61.6981 22.5277 62.7644 22.5277C64.0711 22.5277 64.8821 21.7633 64.8821 20.3331V19.7952H64.8219C64.4316 20.248 63.6803 20.6445 62.7342 20.6445C60.7516 20.6445 58.9344 19.0164 58.9344 16.921C58.9344 14.8116 60.7516 13.1694 62.7342 13.1694C63.6803 13.1694 64.4316 13.5658 64.8219 14.0046ZM60.6766 16.921C60.6766 18.2237 61.6828 19.1722 62.8846 19.1722C64.0711 19.1722 65.0022 18.2237 65.0022 16.921C65.0022 15.6046 64.0711 14.6417 62.8846 14.6417C61.6828 14.6417 60.6766 15.6046 60.6766 16.921Z" fill="#5E5E5E"/>
<path d="M69.4779 20.4179H67.7357V9.43182H69.4779V20.4179Z" fill="#5E5E5E"/>
<path fill-rule="evenodd" clip-rule="evenodd" d="M74.0588 13.1694C76.1164 13.1694 77.1232 14.7124 77.4533 15.5479L77.6332 15.9726L72.3315 18.0397C72.7373 18.7898 73.3679 19.1722 74.254 19.1722C75.1403 19.1722 75.7565 18.7616 76.2068 18.1386L77.5586 18.9882C77.1232 19.5968 76.0716 20.6445 74.254 20.6445C72.0012 20.6445 70.3191 19.0023 70.3191 16.907C70.3191 14.6843 72.0161 13.1694 74.0588 13.1694ZM74.1189 14.6135C73.2329 14.6135 72.0012 15.3495 72.0463 16.7937L75.5906 15.4065C75.3957 14.9389 74.8103 14.6135 74.1189 14.6135Z" fill="#5E5E5E"/>
<path d="M35.2135 15.9018V14.3162H40.8756C40.936 14.5995 40.9659 14.9389 40.9659 15.3073C40.9659 16.4964 40.6203 17.9687 39.5088 19.0164C38.4276 20.0785 37.0459 20.6445 35.2135 20.6445C31.8189 20.6445 28.9653 18.0397 28.9653 14.8401C28.9653 11.6404 31.8189 9.0354 35.2135 9.0354C37.0907 9.0354 38.4276 9.72911 39.4338 10.6354L38.2473 11.7537C37.5263 11.1166 36.5502 10.621 35.2135 10.621C32.7352 10.621 30.7978 12.5041 30.7978 14.8401C30.7978 17.176 32.7352 19.0589 35.2135 19.0589C36.8205 19.0589 37.7368 18.4503 38.3223 17.898C38.803 17.4449 39.1184 16.7937 39.2386 15.9018H35.2135Z" fill="#5E5E5E"/>
<path fill-rule="evenodd" clip-rule="evenodd" d="M41.5616 16.907C41.5616 14.7409 43.349 13.1694 45.5421 13.1694C47.7347 13.1694 49.5221 14.7409 49.5221 16.907C49.5221 19.0589 47.7347 20.6445 45.5421 20.6445C43.349 20.6445 41.5616 19.0589 41.5616 16.907ZM43.3039 16.907C43.3039 18.2378 44.3403 19.1722 45.5421 19.1722C46.7434 19.1722 47.7798 18.2378 47.7798 16.907C47.7798 15.562 46.7434 14.6417 45.5421 14.6417C44.3403 14.6417 43.3039 15.562 43.3039 16.907Z" fill="#5E5E5E"/>
<path fill-rule="evenodd" clip-rule="evenodd" d="M50.2446 16.907C50.2446 14.7409 52.0316 13.1694 54.2246 13.1694C56.4173 13.1694 58.2046 14.7409 58.2046 16.907C58.2046 19.0589 56.4173 20.6445 54.2246 20.6445C52.0316 20.6445 50.2446 19.0589 50.2446 16.907ZM51.9867 16.907C51.9867 18.2378 53.0232 19.1722 54.2246 19.1722C55.426 19.1722 56.4624 18.2378 56.4624 16.907C56.4624 15.562 55.426 14.6417 54.2246 14.6417C53.0232 14.6417 51.9867 15.562 51.9867 16.907Z" fill="#5E5E5E"/>
<path d="M35.0028 3.05633C35.0028 2.92276 34.9896 2.78549 34.9623 2.64269L34.9485 2.57054H32.0668V3.37963H34.0877C34.0349 3.77468 33.8896 4.07682 33.6564 4.2976C33.2558 4.67381 32.7642 4.85949 32.16 4.86055C31.593 4.85984 31.1119 4.67583 30.6972 4.29998C30.2864 3.92544 30.082 3.4473 30.081 2.84244C30.082 2.23757 30.2864 1.75943 30.6972 1.3849C31.1119 1.00904 31.593 0.82503 32.16 0.824328C32.7904 0.825734 33.2664 1.02205 33.62 1.41856L33.6856 1.49202L34.3094 0.903328L34.2544 0.841814C34.0253 0.584421 33.7202 0.380106 33.345 0.228427C32.9692 0.0763116 32.5726 0.00012342 32.16 0.00012342C31.3312 -0.000580519 30.616 0.274037 30.0358 0.817472C29.4535 1.35985 29.16 2.04161 29.1608 2.84244C29.16 3.64291 29.4535 4.32502 30.0362 4.86775C30.616 5.41084 31.3312 5.6851 32.16 5.6844C33.0231 5.6851 33.7391 5.41488 34.2824 4.87698C34.7643 4.42227 35.0034 3.80832 35.0028 3.05633Z" fill="#5E5E5E"/>
<path d="M39.3003 0.118418H35.8483V5.56683H39.3003V4.74333H36.7529V3.2473H39.0501V2.43795H36.7529V0.94192H39.3003V0.118418Z" fill="#5E5E5E"/>
<path d="M42.3313 5.56683V0.94192H43.8936V0.118418H39.8633V0.94192H41.4256V5.56683H42.3313Z" fill="#5E5E5E"/>
<path d="M47.393 5.56683V0.118418H46.488V5.56683H47.393Z" fill="#5E5E5E"/>
<path d="M50.5815 5.56683V0.94192H52.1438V0.118418H48.1136V0.94192H49.6758V5.56683H50.5815Z" fill="#5E5E5E"/>
<path fill-rule="evenodd" clip-rule="evenodd" d="M59.3943 4.85844C59.9594 4.31132 60.2453 3.63263 60.2446 2.84244C60.2453 2.05673 59.9583 1.37945 59.3905 0.829866C58.8225 0.278169 58.1109 -0.000840935 57.2762 0.000125455C56.4372 -0.000840935 55.7234 0.276851 55.1589 0.826438C54.5927 1.37391 54.3079 2.05224 54.3086 2.84244C54.3079 3.63263 54.5927 4.31131 55.1589 4.85879C55.7234 5.40838 56.4372 5.6851 57.2762 5.6844C58.1149 5.6851 58.8287 5.40803 59.3943 4.85844ZM55.8228 4.29418C55.4273 3.91481 55.2296 3.43763 55.2289 2.84244C55.2296 2.24724 55.4273 1.77007 55.8228 1.3907C56.2219 1.01142 56.6986 0.825384 57.2762 0.82433C57.8534 0.825384 58.3312 1.01142 58.7293 1.3907C59.1255 1.77007 59.3232 2.24724 59.324 2.84244C59.3232 3.43763 59.1255 3.91481 58.7293 4.29418C58.3312 4.67346 57.8534 4.85949 57.2762 4.86055C56.6986 4.85949 56.2219 4.67346 55.8228 4.29418Z" fill="#5E5E5E"/>
<path d="M61.0667 5.56683H61.9713V2.19347L61.9487 1.45151L64.6705 5.56683H65.5657V0.118418H64.66V3.293L64.6826 4.03556L62.0863 0.118418H61.0667V5.56683Z" fill="#5E5E5E"/>
<path d="M0.500727 22.5178L0.431457 22.4553C0.160164 22.1847 0 21.7646 0 21.2205V21.3486V1.91355V2.04229C0 1.45316 0.186735 1.00938 0.499607 0.743286L12.0503 11.6309L0.500727 22.5178Z" fill="url(#paint0_linear)"/>
<path d="M15.9011 15.2613L12.0503 11.6309L15.9007 8.0011L20.5493 10.4905C21.1396 10.8067 21.4711 11.2142 21.5264 11.6305C21.5264 11.6309 21.5264 11.6316 21.5264 11.6322C21.4711 12.0476 21.1396 12.4554 20.5493 12.7715L15.9011 15.2613Z" fill="url(#paint1_linear)"/>
<path d="M1.32466 22.8036C1.00199 22.804 0.720447 22.7048 0.500896 22.518L12.0505 11.6309L15.9013 15.2613L2.36909 22.5088C1.99468 22.7089 1.63995 22.8036 1.32466 22.8036ZM0.497632 22.6444C0.477215 22.6269 0.457171 22.6084 0.4375 22.5891L0.497632 22.6444Z" fill="url(#paint2_linear)"/>
<path d="M12.0503 11.6307L0.499512 0.743108C0.719063 0.55672 1.00024 0.457857 1.32253 0.457857C1.63866 0.457857 1.99367 0.552941 2.36882 0.75339L15.9007 8.00092L12.0503 11.6307ZM2.36882 0.625087C1.99367 0.42455 1.63866 0.329468 1.32253 0.329468C1.32104 0.329468 1.32001 0.329468 1.31852 0.329468C1.32038 0.329468 1.32178 0.329468 1.32402 0.329468C1.63941 0.329468 1.99405 0.42455 2.36882 0.625087Z" fill="url(#paint3_linear)"/>
<path d="M1.41025 22.9304C1.70336 22.9146 2.02789 22.8195 2.3691 22.6373L15.9002 15.3901L2.3691 22.6373C2.02817 22.8199 1.70336 22.9146 1.41025 22.9304ZM0.500536 22.6468L0.497647 22.6445C0.498672 22.6452 0.49979 22.6461 0.500536 22.6468ZM0.437514 22.5892L0.431641 22.5837V22.5834C0.433878 22.5854 0.43565 22.5874 0.437514 22.5892Z" fill="white"/>
<path d="M15.8999 15.39L15.9877 15.343L15.8999 15.39Z" fill="url(#paint4_linear)"/>
<path d="M1.32504 22.9326C1.00238 22.9326 0.720461 22.8334 0.50091 22.6467L0.500536 22.647C0.49979 22.6463 0.498672 22.6453 0.497647 22.6446L0.437514 22.5894C0.43565 22.5876 0.433878 22.5856 0.431641 22.5836L0.50091 22.5183C0.720461 22.705 1.00201 22.8042 1.32467 22.8039C1.63997 22.8039 1.9947 22.7091 2.3691 22.509L15.9013 15.2615L15.988 15.3432L15.9002 15.3903L2.3691 22.6374C2.02789 22.8197 1.70336 22.9148 1.41025 22.9306C1.38145 22.9319 1.35301 22.9326 1.32504 22.9326Z" fill="url(#paint5_linear)"/>
<path d="M0.431459 22.5839C0.160165 22.3133 0 21.8931 0 21.3491V21.3487C0 21.8931 0.160165 22.3129 0.431459 22.5835V22.5839Z" fill="white"/>
<path d="M0.431457 22.5834C0.160164 22.3128 0 21.893 0 21.3486V21.2206C0 21.7646 0.160164 22.1848 0.431457 22.4553L0.500726 22.5178L0.431457 22.5834Z" fill="url(#paint6_linear)"/>
<path d="M0.431641 22.5834L0.50091 22.5178V22.5181L0.431641 22.5834Z" fill="url(#paint7_linear)"/>
<path d="M21.4185 12.0853C21.4902 11.937 21.5262 11.7846 21.5262 11.6321C21.5262 11.6319 21.5262 11.6315 21.5262 11.6315C21.5262 11.7843 21.4902 11.9366 21.4185 12.0853Z" fill="white"/>
<path d="M15.9876 15.343L15.9009 15.2613L20.5491 12.7715C21.1394 12.4554 21.4709 12.0476 21.5262 11.6322C21.5262 11.7847 21.4902 11.9371 21.4185 12.0854C21.2739 12.3844 20.984 12.6669 20.5491 12.8999L15.9876 15.343Z" fill="url(#paint8_linear)"/>
<path d="M21.5268 11.6309V11.6305C21.5265 11.1708 21.2005 10.7112 20.5497 10.3624L15.9882 7.91935H15.9878L15.9882 7.91908L20.5497 10.3621C21.2013 10.7109 21.5276 11.1712 21.5268 11.6309Z" fill="#5E5E5E"/>
<path d="M21.5266 11.6305C21.4712 11.2141 21.1398 10.8066 20.5495 10.4905L15.9009 8.00106L15.9876 7.91933H15.988L20.5495 10.3624C21.2003 10.7112 21.5262 11.1708 21.5266 11.6305Z" fill="url(#paint9_linear)"/>
<path d="M0 1.9093C0 1.90895 0 1.9086 0 1.90825C0 1.9086 0 1.90895 0 1.9093ZM0.00400873 1.7665C0.00400873 1.7658 0.00400873 1.7651 0.00400873 1.76439C0.00400873 1.7651 0.00400873 1.7658 0.00400873 1.7665ZM0.00428754 1.76237C0.00428754 1.76096 0.00428754 1.75965 0.00428754 1.75824C0.00428754 1.75965 0.00428754 1.76096 0.00428754 1.76237ZM0.00428754 1.75719C0.0582664 0.854419 0.579037 0.332952 1.31572 0.329877C0.996324 0.331634 0.718132 0.430497 0.500352 0.615479V0.615128L0.497742 0.617587C0.474808 0.637096 0.452993 0.657748 0.431457 0.679014C0.186734 0.92305 0.0323491 1.28862 0.00428754 1.75719Z" fill="#5E5E5E"/>
<path d="M0 2.04236V1.91397C0 1.91221 0 1.91081 0 1.90914C0 1.90878 0 1.90843 0 1.90808C0 1.85966 0.00139835 1.81229 0.00400873 1.76633C0.00400873 1.76563 0.00400873 1.76493 0.00400873 1.76423C0.00400873 1.76361 0.00400786 1.76291 0.00428755 1.7622C0.00428755 1.7608 0.00428755 1.75948 0.00428755 1.75807C0.00428755 1.75772 0.00428755 1.75737 0.00428755 1.75702C0.0323491 1.28846 0.186734 0.922883 0.431458 0.678846L0.499607 0.743349C0.186735 1.00944 0 1.45323 0 2.04236ZM0.497742 0.617419L0.500353 0.61496C0.499607 0.616014 0.498488 0.616716 0.497742 0.617419Z" fill="url(#paint10_linear)"/>
<path d="M15.9009 8.0011L2.3691 0.753568C1.99395 0.553119 1.63894 0.458035 1.32281 0.458035C1.00052 0.458035 0.719342 0.556897 0.49979 0.743286L0.431641 0.678783C0.453176 0.657516 0.474991 0.636865 0.497925 0.617356C0.498671 0.616653 0.49979 0.615951 0.500536 0.615248C0.718316 0.430266 0.996508 0.331403 1.31591 0.329645C1.31665 0.329645 1.31768 0.329645 1.3188 0.329645C1.32029 0.329645 1.32131 0.329645 1.32281 0.329645C1.63894 0.329645 1.99395 0.424728 2.3691 0.625265L15.988 7.91911L15.9876 7.91937L15.9009 8.0011Z" fill="url(#paint11_linear)"/>
<defs>
<linearGradient id="paint0_linear" x1="11.0261" y1="1.70864" x2="-3.69621" y2="17.3273" gradientUnits="userSpaceOnUse">
<stop stop-color="#00A0FF"/>
<stop offset="0.00657445" stop-color="#00A1FF"/>
<stop offset="0.2601" stop-color="#00BEFF"/>
<stop offset="0.5122" stop-color="#00D2FF"/>
<stop offset="0.7604" stop-color="#00DFFF"/>
<stop offset="1" stop-color="#00E3FF"/>
</linearGradient>
<linearGradient id="paint1_linear" x1="22.2457" y1="11.6314" x2="-0.312642" y2="11.6314" gradientUnits="userSpaceOnUse">
<stop stop-color="#FFE000"/>
<stop offset="0.4087" stop-color="#FFBD00"/>
<stop offset="0.7754" stop-color="#FFA500"/>
<stop offset="1" stop-color="#FF9C00"/>
</linearGradient>
<linearGradient id="paint2_linear" x1="13.8485" y1="13.648" x2="-6.11609" y2="34.8281" gradientUnits="userSpaceOnUse">
<stop stop-color="#FF3A44"/>
<stop offset="1" stop-color="#C31162"/>
</linearGradient>
<linearGradient id="paint3_linear" x1="-2.49431" y1="-5.79076" x2="6.42068" y2="3.66699" gradientUnits="userSpaceOnUse">
<stop stop-color="#32A071"/>
<stop offset="0.0685" stop-color="#2DA771"/>
<stop offset="0.4762" stop-color="#15CF74"/>
<stop offset="0.8009" stop-color="#06E775"/>
<stop offset="1" stop-color="#00F076"/>
</linearGradient>
<linearGradient id="paint4_linear" x1="22.2457" y1="11.6314" x2="-0.312851" y2="11.6314" gradientUnits="userSpaceOnUse">
<stop stop-color="#CCB300"/>
<stop offset="0.4087" stop-color="#CC9700"/>
<stop offset="0.7754" stop-color="#CC8400"/>
<stop offset="1" stop-color="#CC7D00"/>
</linearGradient>
<linearGradient id="paint5_linear" x1="13.8485" y1="13.6482" x2="-6.11608" y2="34.8282" gradientUnits="userSpaceOnUse">
<stop stop-color="#CC2E36"/>
<stop offset="1" stop-color="#9C0E4E"/>
</linearGradient>
<linearGradient id="paint6_linear" x1="11.0261" y1="1.70855" x2="-3.69622" y2="17.3272" gradientUnits="userSpaceOnUse">
<stop stop-color="#008DE0"/>
<stop offset="0.00657445" stop-color="#008DE0"/>
<stop offset="0.2601" stop-color="#00A7E0"/>
<stop offset="0.5122" stop-color="#00B8E0"/>
<stop offset="0.7604" stop-color="#00C4E0"/>
<stop offset="1" stop-color="#00C7E0"/>
</linearGradient>
<linearGradient id="paint7_linear" x1="13.8486" y1="13.6484" x2="-6.11493" y2="34.8286" gradientUnits="userSpaceOnUse">
<stop stop-color="#E0333C"/>
<stop offset="1" stop-color="#AB0F56"/>
</linearGradient>
<linearGradient id="paint8_linear" x1="22.2455" y1="11.6314" x2="-0.312821" y2="11.6314" gradientUnits="userSpaceOnUse">
<stop stop-color="#E0C500"/>
<stop offset="0.4087" stop-color="#E0A600"/>
<stop offset="0.7754" stop-color="#E09100"/>
<stop offset="1" stop-color="#E08900"/>
</linearGradient>
<linearGradient id="paint9_linear" x1="22.2459" y1="11.6314" x2="-0.312455" y2="11.6314" gradientUnits="userSpaceOnUse">
<stop stop-color="#FFE840"/>
<stop offset="0.4087" stop-color="#FFCE40"/>
<stop offset="0.7754" stop-color="#FFBC40"/>
<stop offset="1" stop-color="#FFB540"/>
</linearGradient>
<linearGradient id="paint10_linear" x1="11.0261" y1="1.7086" x2="-3.69624" y2="17.3272" gradientUnits="userSpaceOnUse">
<stop stop-color="#40B8FF"/>
<stop offset="0.00657445" stop-color="#40B9FF"/>
<stop offset="0.2601" stop-color="#40CEFF"/>
<stop offset="0.5122" stop-color="#40DDFF"/>
<stop offset="0.7604" stop-color="#40E7FF"/>
<stop offset="1" stop-color="#40EAFF"/>
</linearGradient>
<linearGradient id="paint11_linear" x1="-2.49403" y1="-5.7905" x2="6.42096" y2="3.66725" gradientUnits="userSpaceOnUse">
<stop stop-color="#65B895"/>
<stop offset="0.0685" stop-color="#62BD95"/>
<stop offset="0.4762" stop-color="#50DB97"/>
<stop offset="0.8009" stop-color="#44ED98"/>
<stop offset="1" stop-color="#40F498"/>
</linearGradient>
</defs>
</svg>
