<svg width="111" height="24" viewBox="0 0 111 24" fill="none" xmlns="http://www.w3.org/2000/svg">
<path d="M94.6956 20.4178H92.9077V9.43205H94.6956V20.4178Z" fill="white"/>
<path d="M106.962 18.1522L109.012 13.3894H111L106.084 23.7493H104.219L106.038 20.0464L102.848 13.3894H104.774L106.901 18.1522H106.962Z" fill="white"/>
<path fill-rule="evenodd" clip-rule="evenodd" d="M95.8981 14.8311C96.4529 13.6721 97.7934 13.149 99.0879 13.149C101.137 13.149 102.724 14.2375 102.724 16.1876V20.3996H100.998V19.5518H100.937C100.52 20.1312 99.8583 20.6258 98.6558 20.6258C97.0843 20.6258 95.6816 19.6788 95.6816 18.2088C95.6816 16.5975 97.4235 15.7356 99.1339 15.7356C99.9819 15.7356 100.675 15.9899 100.998 16.1595V16.0466C100.983 15.1421 100.043 14.633 99.1186 14.633C98.4555 14.633 97.8241 14.8311 97.4849 15.4387L95.8981 14.8311ZM97.4695 18.237C97.4695 18.9016 98.2859 19.17 98.8723 19.17C99.9043 19.17 100.86 18.4492 100.998 17.4317C100.52 17.2195 100.151 17.064 99.3648 17.064C98.4871 17.064 97.4695 17.3891 97.4695 18.237Z" fill="white"/>
<path fill-rule="evenodd" clip-rule="evenodd" d="M83.7082 9.43205H87.9922C89.9737 9.43205 91.9217 10.7478 91.9217 12.8438C91.9217 14.9399 89.9737 16.2557 87.9922 16.2557H85.4952V20.4178H83.7082V9.43205ZM85.4952 14.7267H88.0382C89.3749 14.7267 90.1338 13.6952 90.1338 12.8438C90.1338 11.976 89.3749 10.961 88.0382 10.961H85.4952V14.7267Z" fill="white"/>
<path fill-rule="evenodd" clip-rule="evenodd" d="M66.6222 14.0045H66.684V13.3959H68.382V20.1065C68.382 22.8671 66.6068 23.9999 64.5075 23.9999C62.5316 23.9999 61.3429 22.7822 60.8953 21.7913L62.4541 21.1967C62.7323 21.8053 63.4115 22.5276 64.5075 22.5276C65.8504 22.5276 66.684 21.7631 66.684 20.333V19.7951H66.6222C66.221 20.2479 65.4488 20.6444 64.4764 20.6444C62.4388 20.6444 60.5711 19.0163 60.5711 16.9209C60.5711 14.8115 62.4388 13.1693 64.4764 13.1693C65.4488 13.1693 66.221 13.5657 66.6222 14.0045ZM62.3616 16.9209C62.3616 18.2236 63.3958 19.1721 64.631 19.1721C65.8504 19.1721 66.8075 18.2236 66.8075 16.9209C66.8075 15.6045 65.8504 14.6416 64.631 14.6416C63.3958 14.6416 62.3616 15.6045 62.3616 16.9209Z" fill="white"/>
<path d="M71.4075 20.4178H69.6168V9.43169H71.4075V20.4178Z" fill="white"/>
<path fill-rule="evenodd" clip-rule="evenodd" d="M76.1156 13.1693C78.2303 13.1693 79.2652 14.7123 79.6044 15.5478L79.7893 15.9724L74.3404 18.0396C74.7573 18.7897 75.4055 19.1721 76.3162 19.1721C77.2271 19.1721 77.8605 18.7615 78.3233 18.1384L79.7126 18.988C79.2652 19.5967 78.1844 20.6444 76.3162 20.6444C74.0009 20.6444 72.272 19.0022 72.272 16.9068C72.272 14.6841 74.0162 13.1693 76.1156 13.1693ZM76.1774 14.6134C75.2667 14.6134 74.0009 15.3494 74.0472 16.7936L77.6899 15.4064C77.4897 14.9388 76.8879 14.6134 76.1774 14.6134Z" fill="white"/>
<path d="M36.1912 15.9017V14.3161H42.0106C42.0727 14.5993 42.1034 14.9388 42.1034 15.3072C42.1034 16.4963 41.7482 17.9686 40.6059 19.0162C39.4946 20.0783 38.0746 20.6444 36.1912 20.6444C32.7024 20.6444 29.7695 18.0396 29.7695 14.84C29.7695 11.6403 32.7024 9.03528 36.1912 9.03528C38.1206 9.03528 39.4946 9.72898 40.5288 10.6353L39.3093 11.7536C38.5683 11.1165 37.5651 10.6209 36.1912 10.6209C33.6441 10.6209 31.6529 12.504 31.6529 14.84C31.6529 17.1759 33.6441 19.0588 36.1912 19.0588C37.8429 19.0588 38.7846 18.4501 39.3864 17.8978C39.8805 17.4447 40.2046 16.7936 40.3281 15.9017H36.1912Z" fill="white"/>
<path fill-rule="evenodd" clip-rule="evenodd" d="M42.7157 16.9068C42.7157 14.7407 44.5527 13.1693 46.8067 13.1693C49.0603 13.1693 50.8973 14.7407 50.8973 16.9068C50.8973 19.0588 49.0603 20.6444 46.8067 20.6444C44.5527 20.6444 42.7157 19.0588 42.7157 16.9068ZM44.5063 16.9068C44.5063 18.2377 45.5716 19.1721 46.8067 19.1721C48.0414 19.1721 49.1066 18.2377 49.1066 16.9068C49.1066 15.5619 48.0414 14.6416 46.8067 14.6416C45.5716 14.6416 44.5063 15.5619 44.5063 16.9068Z" fill="white"/>
<path fill-rule="evenodd" clip-rule="evenodd" d="M51.6399 16.9068C51.6399 14.7407 53.4765 13.1693 55.7304 13.1693C57.984 13.1693 59.821 14.7407 59.821 16.9068C59.821 19.0588 57.984 20.6444 55.7304 20.6444C53.4765 20.6444 51.6399 19.0588 51.6399 16.9068ZM53.4304 16.9068C53.4304 18.2377 54.4957 19.1721 55.7304 19.1721C56.9652 19.1721 58.0304 18.2377 58.0304 16.9068C58.0304 15.5619 56.9652 14.6416 55.7304 14.6416C54.4957 14.6416 53.4304 15.5619 53.4304 16.9068Z" fill="white"/>
<path d="M35.9747 3.05621C35.9747 2.92263 35.9612 2.78537 35.9331 2.64257L35.9189 2.57042H32.9571V3.37951H35.0342C34.98 3.77456 34.8306 4.0767 34.5909 4.29748C34.1792 4.67368 33.6739 4.85937 33.0529 4.86043C32.4702 4.85972 31.9758 4.67571 31.5495 4.29985C31.1273 3.92532 30.9173 3.44718 30.9162 2.84231C30.9173 2.23745 31.1273 1.75931 31.5495 1.38478C31.9758 1.00892 32.4702 0.824908 33.0529 0.824206C33.7009 0.825612 34.1901 1.02193 34.5535 1.41843L34.6209 1.4919L35.262 0.903206L35.2055 0.841692C34.9701 0.584299 34.6564 0.379984 34.2709 0.228305C33.8846 0.0761895 33.477 1.34988e-06 33.0529 1.34988e-06C32.2011 -0.000702589 31.466 0.273915 30.8697 0.817349C30.2713 1.35973 29.9696 2.04149 29.9704 2.84231C29.9696 3.64279 30.2713 4.3249 30.8701 4.86763C31.466 5.41072 32.2011 5.68498 33.0529 5.68428C33.94 5.68498 34.6759 5.41476 35.2343 4.87686C35.7296 4.42215 35.9754 3.80819 35.9747 3.05621Z" fill="white"/>
<path d="M40.3916 0.118296H36.8437V5.56671H40.3916V4.74321H37.7734V3.24718H40.1345V2.43782H37.7734V0.941798H40.3916V0.118296Z" fill="white"/>
<path d="M43.5068 5.56671V0.941798H45.1125V0.118296H40.9702V0.941798H42.5759V5.56671H43.5068Z" fill="white"/>
<path d="M48.7091 5.56671V0.118296H47.779V5.56671H48.7091Z" fill="white"/>
<path d="M51.9862 5.56671V0.941798H53.5919V0.118296H49.4497V0.941798H51.0553V5.56671H51.9862Z" fill="white"/>
<path fill-rule="evenodd" clip-rule="evenodd" d="M61.0437 4.85832C61.6246 4.31119 61.9184 3.63251 61.9177 2.84232C61.9184 2.0566 61.6234 1.37933 61.0399 0.829744C60.4561 0.278047 59.7247 -0.000963005 58.8668 3.38439e-06C58.0045 -0.000963005 57.2709 0.276729 56.6907 0.826316C56.1087 1.37379 55.816 2.05212 55.8168 2.84232C55.816 3.63251 56.1087 4.31119 56.6907 4.85867C57.2709 5.40826 58.0045 5.68498 58.8668 5.68428C59.7288 5.68498 60.4624 5.40791 61.0437 4.85832ZM57.3731 4.29405C56.9666 3.91469 56.7634 3.43751 56.7626 2.84232C56.7634 2.24712 56.9666 1.76995 57.3731 1.39058C57.7833 1.0113 58.2732 0.825262 58.8668 0.824208C59.4601 0.825262 59.9511 1.0113 60.3603 1.39058C60.7675 1.76995 60.9707 2.24712 60.9715 2.84232C60.9707 3.43751 60.7675 3.91469 60.3603 4.29405C59.9511 4.67333 59.4601 4.85937 58.8668 4.86043C58.2732 4.85937 57.7833 4.67333 57.3731 4.29405Z" fill="white"/>
<path d="M62.7626 5.56671H63.6923V2.19335L63.6691 1.45139L66.4665 5.56671H67.3866V0.118296H66.4557V3.29288L66.4789 4.03543L63.8106 0.118296H62.7626V5.56671Z" fill="white"/>
<path d="M0.514636 22.5177L0.443442 22.4552C0.164613 22.1846 0 21.7645 0 21.2204V21.3485V1.91343V2.04217C0 1.45304 0.191922 1.00926 0.513485 0.743164L12.3851 11.6308L0.514636 22.5177Z" fill="url(#paint0_linear)"/>
<path d="M16.3435 15.2617L12.3857 11.6313L16.3431 8.00146L21.1208 10.4909C21.7276 10.807 22.0682 11.2145 22.1251 11.6309C22.1251 11.6313 22.1251 11.632 22.1251 11.6326C22.0682 12.048 21.7276 12.4558 21.1208 12.7719L16.3435 15.2617Z" fill="url(#paint1_linear)"/>
<path d="M1.36102 22.8036C1.02939 22.804 0.740026 22.7048 0.514375 22.518L12.3848 11.6309L16.3426 15.2613L2.43446 22.5088C2.04966 22.7089 1.68507 22.8036 1.36102 22.8036ZM0.511021 22.6444C0.490037 22.6269 0.469436 22.6084 0.449219 22.5891L0.511021 22.6444Z" fill="url(#paint2_linear)"/>
<path d="M12.3853 11.6308L0.513672 0.74323C0.739322 0.556842 1.02831 0.457979 1.35955 0.457979C1.68447 0.457979 2.04934 0.553063 2.43491 0.753512L16.3426 8.00105L12.3853 11.6308ZM2.43491 0.625209C2.04934 0.424672 1.68447 0.32959 1.35955 0.32959C1.35802 0.32959 1.35696 0.32959 1.35543 0.32959C1.35735 0.32959 1.35878 0.32959 1.36108 0.32959C1.68523 0.32959 2.04972 0.424672 2.43491 0.625209Z" fill="url(#paint3_linear)"/>
<path d="M1.45013 22.9307C1.75138 22.9148 2.08492 22.8198 2.43561 22.6375L16.3426 15.3903L2.43561 22.6375C2.08521 22.8201 1.75138 22.9148 1.45013 22.9307ZM0.515145 22.6471L0.512175 22.6447C0.513229 22.6454 0.514378 22.6464 0.515145 22.6471ZM0.450373 22.5894L0.444336 22.584V22.5836C0.446636 22.5857 0.448456 22.5877 0.450373 22.5894Z" fill="white"/>
<path d="M16.3418 15.3901L16.4321 15.3431L16.3418 15.3901Z" fill="url(#paint4_linear)"/>
<path d="M1.36256 22.9326C1.03093 22.9326 0.741179 22.8334 0.515529 22.6467L0.515145 22.647C0.514378 22.6463 0.513229 22.6453 0.512175 22.6446L0.450373 22.5894C0.448456 22.5876 0.446636 22.5856 0.444336 22.5836L0.515529 22.5183C0.741179 22.705 1.03055 22.8042 1.36217 22.8039C1.68623 22.8039 2.05081 22.7091 2.43561 22.509L16.3437 15.2615L16.4328 15.3432L16.3426 15.3903L2.43561 22.6374C2.08492 22.8197 1.75138 22.9148 1.45013 22.9306C1.42052 22.9319 1.3913 22.9326 1.36256 22.9326Z" fill="url(#paint5_linear)"/>
<path d="M0.443444 22.584C0.164614 22.3134 0 21.8933 0 21.3492V21.3489C0 21.8933 0.164614 22.3131 0.443444 22.5836V22.584Z" fill="white"/>
<path d="M0.443442 22.583C0.164613 22.3124 0 21.8926 0 21.3482V21.2202C0 21.7643 0.164613 22.1844 0.443442 22.455L0.514635 22.5175L0.443442 22.583Z" fill="url(#paint6_linear)"/>
<path d="M0.443359 22.583L0.514552 22.5175V22.5177L0.443359 22.583Z" fill="url(#paint7_linear)"/>
<path d="M22.0137 12.0854C22.0874 11.9371 22.1244 11.7847 22.1244 11.6323C22.1244 11.632 22.1244 11.6316 22.1244 11.6316C22.1244 11.7844 22.0874 11.9368 22.0137 12.0854Z" fill="white"/>
<path d="M16.4319 15.3433L16.3428 15.2615L21.1201 12.7718C21.7269 12.4557 22.0675 12.0478 22.1244 11.6324C22.1244 11.7849 22.0873 11.9373 22.0136 12.0856C21.865 12.3846 21.5671 12.6671 21.1201 12.9002L16.4319 15.3433Z" fill="url(#paint8_linear)"/>
<path d="M22.1245 11.6309V11.6305C22.1242 11.1708 21.7892 10.7112 21.1203 10.3624L16.432 7.91935H16.4316L16.432 7.91908L21.1203 10.3621C21.7899 10.7109 22.1253 11.1712 22.1245 11.6309Z" fill="white"/>
<path d="M22.1248 11.6304C22.0679 11.214 21.7272 10.8065 21.1205 10.4903L16.3428 8.00094L16.4319 7.91921H16.4323L21.1205 10.3623C21.7894 10.7111 22.1244 11.1707 22.1248 11.6304Z" fill="url(#paint9_linear)"/>
<path d="M0 1.90918C0 1.90883 0 1.90848 0 1.90813C0 1.90848 0 1.90883 0 1.90918ZM0.00412008 1.76638C0.00412008 1.76568 0.00412008 1.76497 0.00412008 1.76427C0.00412008 1.76497 0.00412008 1.76568 0.00412008 1.76638ZM0.00440664 1.76225C0.00440664 1.76084 0.00440664 1.75952 0.00440664 1.75812C0.00440664 1.75952 0.00440664 1.76084 0.00440664 1.76225ZM0.00440664 1.75706C0.0598849 0.854296 0.595121 0.332828 1.35227 0.329753C1.024 0.33151 0.738081 0.430373 0.514251 0.615356V0.615004L0.511568 0.617464C0.487997 0.636972 0.465576 0.657624 0.443442 0.67889C0.191921 0.922927 0.0332477 1.2885 0.00440664 1.75706Z" fill="white"/>
<path d="M0 2.04248V1.91409C0 1.91233 0 1.91093 0 1.90926C0 1.90891 0 1.90856 0 1.9082C0 1.85978 0.00143719 1.81242 0.00412008 1.76646C0.00412008 1.76575 0.00412008 1.76505 0.00412008 1.76435C0.00412008 1.76373 0.00411919 1.76303 0.00440665 1.76233C0.00440665 1.76092 0.00440665 1.7596 0.00440665 1.7582C0.00440665 1.75785 0.00440665 1.75749 0.00440665 1.75714C0.0332477 1.28858 0.191922 0.923005 0.443443 0.678968L0.513485 0.743471C0.191922 1.00957 0 1.45335 0 2.04248ZM0.511569 0.617541L0.514251 0.615082C0.513485 0.616136 0.512335 0.616838 0.511569 0.617541Z" fill="url(#paint10_linear)"/>
<path d="M16.3433 8.00146L2.43561 0.753935C2.05004 0.553486 1.68517 0.458402 1.36026 0.458402C1.02901 0.458402 0.740029 0.557265 0.514379 0.743653L0.444336 0.67915C0.46647 0.657884 0.488891 0.637232 0.512462 0.617723C0.513229 0.61702 0.514378 0.616318 0.515145 0.615615C0.738974 0.430633 1.02489 0.33177 1.35316 0.330012C1.35393 0.330012 1.35499 0.330012 1.35614 0.330012C1.35767 0.330012 1.35872 0.330012 1.36026 0.330012C1.68517 0.330012 2.05004 0.425095 2.43561 0.625632L16.4328 7.91947L16.4324 7.91974L16.3433 8.00146Z" fill="url(#paint11_linear)"/>
<defs>
<linearGradient id="paint0_linear" x1="11.3324" y1="1.70852" x2="-3.36064" y2="17.7291" gradientUnits="userSpaceOnUse">
<stop stop-color="#00A0FF"/>
<stop offset="0.00657445" stop-color="#00A1FF"/>
<stop offset="0.2601" stop-color="#00BEFF"/>
<stop offset="0.5122" stop-color="#00D2FF"/>
<stop offset="0.7604" stop-color="#00DFFF"/>
<stop offset="1" stop-color="#00E3FF"/>
</linearGradient>
<linearGradient id="paint1_linear" x1="22.8643" y1="11.6318" x2="-0.320608" y2="11.6318" gradientUnits="userSpaceOnUse">
<stop stop-color="#FFE000"/>
<stop offset="0.4087" stop-color="#FFBD00"/>
<stop offset="0.7754" stop-color="#FFA500"/>
<stop offset="1" stop-color="#FF9C00"/>
</linearGradient>
<linearGradient id="paint2_linear" x1="14.2328" y1="13.648" x2="-5.69213" y2="35.3731" gradientUnits="userSpaceOnUse">
<stop stop-color="#FF3A44"/>
<stop offset="1" stop-color="#C31162"/>
</linearGradient>
<linearGradient id="paint3_linear" x1="-2.56331" y1="-5.79064" x2="6.33395" y2="3.91049" gradientUnits="userSpaceOnUse">
<stop stop-color="#32A071"/>
<stop offset="0.0685" stop-color="#2DA771"/>
<stop offset="0.4762" stop-color="#15CF74"/>
<stop offset="0.8009" stop-color="#06E775"/>
<stop offset="1" stop-color="#00F076"/>
</linearGradient>
<linearGradient id="paint4_linear" x1="22.8639" y1="11.6315" x2="-0.321477" y2="11.6315" gradientUnits="userSpaceOnUse">
<stop stop-color="#CCB300"/>
<stop offset="0.4087" stop-color="#CC9700"/>
<stop offset="0.7754" stop-color="#CC8400"/>
<stop offset="1" stop-color="#CC7D00"/>
</linearGradient>
<linearGradient id="paint5_linear" x1="14.2339" y1="13.6482" x2="-5.69098" y2="35.3733" gradientUnits="userSpaceOnUse">
<stop stop-color="#CC2E36"/>
<stop offset="1" stop-color="#9C0E4E"/>
</linearGradient>
<linearGradient id="paint6_linear" x1="11.3324" y1="1.70818" x2="-3.36066" y2="17.7288" gradientUnits="userSpaceOnUse">
<stop stop-color="#008DE0"/>
<stop offset="0.00657445" stop-color="#008DE0"/>
<stop offset="0.2601" stop-color="#00A7E0"/>
<stop offset="0.5122" stop-color="#00B8E0"/>
<stop offset="0.7604" stop-color="#00C4E0"/>
<stop offset="1" stop-color="#00C7E0"/>
</linearGradient>
<linearGradient id="paint7_linear" x1="14.2331" y1="13.648" x2="-5.69075" y2="35.3732" gradientUnits="userSpaceOnUse">
<stop stop-color="#E0333C"/>
<stop offset="1" stop-color="#AB0F56"/>
</linearGradient>
<linearGradient id="paint8_linear" x1="22.8636" y1="11.6317" x2="-0.32131" y2="11.6317" gradientUnits="userSpaceOnUse">
<stop stop-color="#E0C500"/>
<stop offset="0.4087" stop-color="#E0A600"/>
<stop offset="0.7754" stop-color="#E09100"/>
<stop offset="1" stop-color="#E08900"/>
</linearGradient>
<linearGradient id="paint9_linear" x1="22.864" y1="11.6313" x2="-0.32093" y2="11.6313" gradientUnits="userSpaceOnUse">
<stop stop-color="#FFE840"/>
<stop offset="0.4087" stop-color="#FFCE40"/>
<stop offset="0.7754" stop-color="#FFBC40"/>
<stop offset="1" stop-color="#FFB540"/>
</linearGradient>
<linearGradient id="paint10_linear" x1="11.3324" y1="1.70872" x2="-3.36068" y2="17.7293" gradientUnits="userSpaceOnUse">
<stop stop-color="#40B8FF"/>
<stop offset="0.00657445" stop-color="#40B9FF"/>
<stop offset="0.2601" stop-color="#40CEFF"/>
<stop offset="0.5122" stop-color="#40DDFF"/>
<stop offset="0.7604" stop-color="#40E7FF"/>
<stop offset="1" stop-color="#40EAFF"/>
</linearGradient>
<linearGradient id="paint11_linear" x1="-2.56261" y1="-5.79014" x2="6.33465" y2="3.911" gradientUnits="userSpaceOnUse">
<stop stop-color="#65B895"/>
<stop offset="0.0685" stop-color="#62BD95"/>
<stop offset="0.4762" stop-color="#50DB97"/>
<stop offset="0.8009" stop-color="#44ED98"/>
<stop offset="1" stop-color="#40F498"/>
</linearGradient>
</defs>
</svg>
