<svg width="28" height="20" viewBox="0 0 28 20" fill="none" xmlns="http://www.w3.org/2000/svg">
<path d="M3.42917 20C3.16878 20 2.92074 19.8849 2.76018 19.6798C0.762541 17.127 0 13.8542 0 10.2857C0 6.42407 1.66502 2.90864 3.99224 0.277353C4.22092 0.0187962 4.58566 -0.0701141 4.90604 0.0580104C10.1969 2.17384 13.3438 7.5212 14 10.9124C14.6562 7.5212 17.8031 2.17384 23.094 0.0580104C23.4143 -0.0701141 23.7791 0.0187918 24.0078 0.277353C26.335 2.90864 28 6.42407 28 10.2857C28 13.8542 27.2374 17.127 25.2398 19.6798C25.0793 19.8849 24.8312 20 24.5708 20H20.7187C20.4102 20 20.123 19.8383 19.9738 19.5681C19.4688 18.0297 19.25 16.4972 19.25 15.1836C17.924 16.6044 15.9688 18.2486 14.2006 19.0194C14.0751 19.0857 13.9249 19.0857 13.7994 19.0194C12.0312 18.2486 10.076 16.6044 8.75 15.1836C8.75 16.4972 8.53125 18.0297 8.02624 19.5681C7.87701 19.8383 7.58975 20 7.28127 20H3.42917Z" fill="#378757"/>
</svg>
