<svg width="142" height="142" viewBox="0 0 142 142" fill="none" xmlns="http://www.w3.org/2000/svg">
<path d="M131.11 82.5182C134.789 83.0755 137.352 81.2111 137.803 78.2335C138.255 75.2448 136.356 72.7104 132.677 72.1531C129.003 71.5966 126.435 73.4546 125.983 76.4433C125.533 79.4209 127.43 81.9609 131.11 82.5182ZM131.37 80.7991C128.566 80.3745 127.268 78.6608 127.567 76.6833C127.867 74.7001 129.613 73.4532 132.416 73.8778C135.219 74.3023 136.518 76.0104 136.218 77.9936C135.919 79.9711 134.173 81.2237 131.37 80.7991Z" fill="#99BE56"/>
<path d="M124.169 87.4495L123.52 88.9701L130.196 91.8258L128.704 95.3216L122.027 92.4659L121.374 93.9969L129.398 97.4291L132.193 90.8817L124.169 87.4495Z" fill="#99BE56"/>
<path d="M117.868 94.4482L116.946 95.8752L120.833 98.3911L120.778 98.477C120.144 98.4322 118.989 98.4293 118.126 99.7656C116.979 101.541 117.568 103.749 119.938 105.284C122.314 106.821 124.556 106.418 125.7 104.647C126.579 103.287 126.067 102.259 125.777 101.712L125.854 101.593L127.042 102.362L127.942 100.968L117.868 94.4482ZM123.375 99.9956C124.906 100.987 125.491 102.312 124.686 103.558C123.85 104.851 122.339 104.793 120.884 103.852C119.415 102.901 118.725 101.507 119.549 100.233C120.341 99.0065 121.835 98.9984 123.375 99.9956Z" fill="#99BE56"/>
<path d="M112.989 106.891C111.321 108.699 111.554 111.103 113.536 112.935C115.531 114.778 117.944 114.818 119.612 113.01C121.28 111.201 121.047 108.797 119.053 106.954C117.07 105.122 114.657 105.082 112.989 106.891ZM114.033 107.863C115.123 106.681 116.662 107.082 117.893 108.219C119.12 109.353 119.655 110.868 118.565 112.05C117.483 113.224 115.931 112.811 114.704 111.677C113.473 110.54 112.95 109.036 114.033 107.863Z" fill="#99BE56"/>
<path d="M106.273 113.528C104.767 114.692 104.275 116.258 104.838 117.619L106.287 116.864C106.026 116.025 106.353 115.24 107.117 114.649C108.268 113.759 109.617 113.907 110.681 115.21L105.774 119.007L106.142 119.484C108.07 121.979 110.315 121.801 111.879 120.591C113.802 119.103 113.937 116.656 112.298 114.534C110.641 112.389 108.308 111.953 106.273 113.528ZM111.454 116.221C112.158 117.243 112.104 118.642 111.012 119.487C109.97 120.294 108.689 120.049 107.868 118.996L111.454 116.221Z" fill="#99BE56"/>
<path d="M101.93 117.252L100.44 118.068L102.113 121.129L101.146 121.659L97.1656 119.86L95.3164 120.872L100.466 123.164L99.5357 128.512L101.38 127.502L102.152 122.908L102.87 122.516L104.625 125.727L106.115 124.911L101.93 117.252Z" fill="#99BE56"/>
<path d="M97.482 128.098L94.7953 129.072L92.323 122.245L90.7634 122.811L93.2357 129.638L90.5597 130.609L91.0588 131.987L97.9811 129.476L97.482 128.098Z" fill="#99BE56"/>
<path d="M82.9467 125.011C81.0744 125.354 79.9183 126.519 79.7935 127.985L81.4272 127.981C81.581 127.115 82.232 126.569 83.1821 126.395C84.6129 126.133 85.7437 126.885 86.0906 128.531L79.9874 129.648L80.0957 130.241C80.6623 133.343 82.7394 134.216 84.6844 133.86C87.0765 133.422 88.3197 131.312 87.8378 128.674C87.3508 126.008 85.4786 124.548 82.9467 125.011ZM86.3138 129.784C86.4693 131.015 85.7792 132.233 84.421 132.482C83.1244 132.719 82.0992 131.913 81.8537 130.6L86.3138 129.784Z" fill="#99BE56"/>
<path d="M58.7126 131.103C58.114 134.776 59.9494 137.361 62.9214 137.847C65.9047 138.334 68.46 136.465 69.0586 132.792C69.6563 129.125 67.8275 126.535 64.8443 126.048C61.8722 125.563 59.3112 127.43 58.7126 131.103ZM60.4286 131.383C60.8846 128.585 62.6127 127.307 64.5865 127.629C66.566 127.952 67.7931 129.713 67.3371 132.511C66.8811 135.309 65.1586 136.588 63.1791 136.265C61.2053 135.943 59.9725 134.182 60.4286 131.383Z" fill="#99BE56"/>
<path d="M53.8989 124.11L52.3861 123.443L49.4601 130.088L45.9822 128.555L48.9082 121.909L47.385 121.237L43.8683 129.224L50.3822 132.097L53.8989 124.11Z" fill="#99BE56"/>
<path d="M47.0101 117.744L45.5941 116.805L43.0386 120.667L42.9533 120.61C43.0049 119.976 43.0202 118.821 41.6941 117.942C39.9324 116.774 37.7194 117.338 36.161 119.693C34.5995 122.053 34.9783 124.301 36.7353 125.466C38.085 126.361 39.1184 125.859 39.6673 125.576L39.7856 125.654L39.0049 126.834L40.3877 127.751L47.0101 117.744ZM41.4083 123.192C40.4018 124.713 39.0709 125.283 37.8348 124.463C36.5514 123.612 36.6254 122.1 37.5818 120.655C38.5475 119.196 39.9474 118.522 41.2119 119.36C42.429 120.167 42.4211 121.661 41.4083 123.192Z" fill="#99BE56"/>
<path d="M34.6999 112.778C32.905 111.095 30.5012 111.31 28.6571 113.281C26.8013 115.264 26.7437 117.679 28.5386 119.361C30.3334 121.044 32.7372 120.829 34.593 118.846C36.4371 116.875 36.4947 114.46 34.6999 112.778ZM33.7212 113.815C34.8943 114.915 34.4826 116.452 33.3373 117.676C32.1958 118.896 30.6781 119.42 29.505 118.32C28.3402 117.228 28.7636 115.678 29.905 114.459C31.0503 113.235 32.5564 112.723 33.7212 113.815Z" fill="#99BE56"/>
<path d="M28.1527 106.023C27.0002 104.509 25.4392 104.005 24.0755 104.559L24.8186 106.014C25.6597 105.759 26.4413 106.092 27.0262 106.86C27.9069 108.018 27.7484 109.368 26.4383 110.423L22.6816 105.485L22.2025 105.85C19.6945 107.762 19.856 110.01 21.0532 111.584C22.5256 113.519 24.969 113.672 27.102 112.046C29.2576 110.403 29.7111 108.072 28.1527 106.023ZM25.4226 111.19C24.3962 111.887 22.9985 111.823 22.1625 110.724C21.3644 109.675 21.6188 108.395 22.6773 107.582L25.4226 111.19Z" fill="#99BE56"/>
<path d="M24.4864 101.671L23.6829 100.174L20.6103 101.826L20.089 100.855L21.9173 96.8846L20.9203 95.0274L18.5898 100.164L13.2527 99.1956L14.247 101.048L18.8322 101.853L19.2191 102.574L15.9964 104.307L16.7999 105.804L24.4864 101.671Z" fill="#99BE56"/>
<path d="M13.6269 97.0426L12.6842 94.3446L19.5379 91.9457L18.9906 90.3795L12.137 92.7784L11.198 90.0911L9.81439 90.5754L12.2433 97.5269L13.6269 97.0426Z" fill="#99BE56"/>
<path d="M16.8897 82.6408C16.562 80.7658 15.4067 79.601 13.941 79.4653L13.9324 81.0992C14.7968 81.2594 15.3381 81.9145 15.5044 82.866C15.7548 84.2988 14.994 85.4242 13.3452 85.759L12.277 79.6471L11.6838 79.7509C8.57762 80.2947 7.68791 82.3656 8.02832 84.3133C8.44699 86.7088 10.5474 87.9677 13.189 87.5053C15.8586 87.0379 17.3329 85.1762 16.8897 82.6408ZM12.0906 85.9729C10.8588 86.1193 9.64645 85.4202 9.40875 84.0601C9.1818 82.7616 9.99575 81.7423 11.31 81.5065L12.0906 85.9729Z" fill="#99BE56"/>
<path d="M10.9677 58.3763C7.29939 57.7485 4.70097 59.5635 4.19387 62.5319C3.68486 65.5114 5.53412 68.0818 9.20238 68.7095C12.865 69.3363 15.4681 67.5279 15.9771 64.5483C16.4842 61.58 14.6359 59.004 10.9677 58.3763ZM10.6749 60.0901C13.4695 60.5683 14.7346 62.3066 14.3978 64.2781C14.0601 66.2551 12.2907 67.4684 9.49612 66.9901C6.70152 66.5119 5.43544 64.7792 5.77319 62.8021C6.10998 60.8307 7.88028 59.6118 10.6749 60.0901Z" fill="#99BE56"/>
<path d="M17.9364 53.7044L18.6139 52.1962L11.9921 49.2164L13.5497 45.7491L20.1715 48.7289L20.8537 47.2103L12.895 43.629L9.97778 50.1231L17.9364 53.7044Z" fill="#99BE56"/>
<path d="M24.3123 46.8618L25.2602 45.452L21.4194 42.8652L21.4765 42.7803C22.1095 42.8368 23.2641 42.8608 24.1517 41.5406C25.3311 39.7866 24.7826 37.5676 22.4405 35.9901C20.0936 34.4095 17.8441 34.7715 16.668 36.5208C15.7645 37.8646 16.258 38.9026 16.5376 39.454L16.4584 39.5719L15.2849 38.7816L14.3592 40.1584L24.3123 46.8618ZM18.9074 41.2145C17.3947 40.1956 16.8347 38.8594 17.6621 37.6288C18.5212 36.351 20.0316 36.4365 21.4689 37.4046C22.9204 38.3822 23.5841 39.7882 22.7376 41.0471C21.9229 42.2589 20.4296 42.2397 18.9074 41.2145Z" fill="#99BE56"/>
<path d="M29.4995 34.3755C31.2001 32.5976 31.011 30.1895 29.0623 28.3223C27.1013 26.4433 24.6893 26.3592 22.9888 28.1371C21.2882 29.915 21.4773 32.3231 23.4383 34.2021C25.3871 36.0692 27.799 36.1534 29.4995 34.3755ZM28.4737 33.3847C27.3623 34.5467 25.8305 34.1178 24.6203 32.9581C23.4141 31.8025 22.9069 30.2777 24.0183 29.1158C25.1219 27.962 26.666 28.4027 27.8721 29.5584C29.0824 30.718 29.5773 32.2309 28.4737 33.3847Z" fill="#99BE56"/>
<path d="M36.2331 27.9287C37.7595 26.7916 38.2799 25.2349 37.7421 23.8642L36.2797 24.5923C36.5253 25.4367 36.1839 26.2154 35.4093 26.7924C34.2428 27.6614 32.8963 27.4883 31.8562 26.1659L36.8319 22.4593L36.4725 21.976C34.5907 19.4456 32.3422 19.5832 30.7566 20.7644C28.8064 22.2172 28.6268 24.6607 30.2271 26.8127C31.8444 28.9875 34.169 29.4664 36.2331 27.9287ZM31.1013 25.1413C30.4168 24.1066 30.4959 22.7086 31.6031 21.8838C32.6602 21.0963 33.936 21.3645 34.7373 22.4326L31.1013 25.1413Z" fill="#99BE56"/>
<path d="M40.6478 24.2512L42.1528 23.4633L40.537 20.3714L41.5136 19.8602L45.46 21.732L47.3276 20.7543L42.2209 18.3676L43.2501 13.038L41.3876 14.013L40.5303 18.592L39.8054 18.9715L38.1107 15.7286L36.6056 16.5165L40.6478 24.2512Z" fill="#99BE56"/>
<path d="M45.2361 13.4841L47.9406 12.5603L50.2841 19.4331L51.8542 18.8968L49.5106 12.024L52.2044 11.1039L51.7313 9.71642L44.7629 12.0967L45.2361 13.4841Z" fill="#99BE56"/>
<path d="M59.8871 16.7776C61.7656 16.471 62.9438 15.3287 63.0966 13.8645L61.4631 13.8376C61.2928 14.7001 60.6314 15.2341 59.6781 15.3897C58.2426 15.6241 57.1264 14.8506 56.811 13.1981L62.9345 12.1984L62.8376 11.604C62.3304 8.49161 60.2704 7.57864 58.3189 7.89721C55.9189 8.28902 54.6355 10.3753 55.0668 13.0222C55.5028 15.6972 57.3468 17.1923 59.8871 16.7776ZM56.6119 11.941C56.48 10.7075 57.1932 9.50297 58.5559 9.28051C59.8568 9.06813 60.8664 9.89353 61.0868 11.2105L56.6119 11.941Z" fill="#99BE56"/>
<path d="M83.8176 11.0432C84.4729 7.3798 82.6776 4.76719 79.7133 4.23695C76.7378 3.70472 74.1537 5.53399 73.4984 9.19743C72.8441 12.8553 74.6328 15.4725 77.6083 16.0047C80.5727 16.535 83.1623 14.7067 83.8176 11.0432ZM82.1061 10.7371C81.6069 13.528 79.8592 14.7796 77.8905 14.4275C75.9161 14.0743 74.7163 12.2955 75.2155 9.50457C75.7147 6.71364 77.4568 5.46104 79.4311 5.81419C81.3999 6.16635 82.6053 7.94618 82.1061 10.7371Z" fill="#99BE56"/>
<path d="M88.8079 18.1542L90.308 18.8495L93.3572 12.2594L96.8059 13.8578L93.7567 20.448L95.2671 21.148L98.9319 13.2275L92.4727 10.2337L88.8079 18.1542Z" fill="#99BE56"/>
<path d="M95.5908 24.6299L96.9894 25.5944L99.6151 21.7801L99.6993 21.8382C99.6361 22.471 99.5997 23.6261 100.909 24.5292C102.649 25.7292 104.872 25.2054 106.474 22.8794C108.078 20.5487 107.74 18.2936 106.005 17.097C104.672 16.1777 103.63 16.6598 103.076 16.9334L102.959 16.8528L103.761 15.6874L102.395 14.7456L95.5908 24.6299ZM101.291 19.285C102.326 17.7827 103.667 17.2374 104.887 18.0793C106.155 18.9534 106.053 20.4638 105.071 21.8912C104.078 23.3327 102.666 23.9809 101.418 23.1197C100.215 22.2907 100.251 20.7966 101.291 19.285Z" fill="#99BE56"/>
<path d="M107.765 29.7479C109.529 31.4629 111.936 31.2912 113.816 29.3545C115.707 27.4055 115.809 24.9921 114.045 23.2772C112.281 21.5623 109.873 21.7339 107.982 23.6829C106.102 25.6196 106.001 28.033 107.765 29.7479ZM108.762 28.7285C107.609 27.6076 108.049 26.0777 109.216 24.8749C110.379 23.6762 111.906 23.1796 113.059 24.3005C114.204 25.4134 113.753 26.9556 112.589 28.1543C111.422 29.3571 109.907 29.8414 108.762 28.7285Z" fill="#99BE56"/>
<path d="M114.386 36.8205C115.505 38.3602 117.055 38.8977 118.431 38.3742L117.719 36.9029C116.873 37.1397 116.099 36.7896 115.531 36.0083C114.676 34.8317 114.864 33.486 116.197 32.4593L119.844 37.4783L120.331 37.1238C122.881 35.2678 122.768 33.0162 121.606 31.4167C120.176 29.4496 117.737 29.2437 115.569 30.8221C113.378 32.4173 112.873 34.7385 114.386 36.8205ZM117.229 31.7148C118.27 31.0409 119.666 31.1351 120.478 32.2519C121.253 33.3182 120.971 34.5921 119.895 35.3826L117.229 31.7148Z" fill="#99BE56"/>
<path d="M117.845 41.0301L118.621 42.5416L121.724 40.9465L122.227 41.9272L120.325 45.8627L121.288 47.7381L123.713 42.6453L129.031 43.7124L128.072 41.8421L123.502 40.9522L123.128 40.2243L126.383 38.5513L125.607 37.0398L117.845 41.0301Z" fill="#99BE56"/>
<path d="M128.59 45.7515L129.492 48.4634L122.603 50.7587L123.127 52.333L130.016 50.0377L130.914 52.7388L132.305 52.2754L129.981 45.2881L128.59 45.7515Z" fill="#99BE56"/>
<path d="M125.171 60.3541C125.462 62.235 126.595 63.4218 128.058 63.5854L128.098 61.952C127.237 61.7753 126.708 61.11 126.56 60.1555C126.337 58.7181 127.119 57.6076 128.774 57.3044L129.725 63.4356L130.32 63.3432C133.436 62.859 134.366 60.8056 134.063 58.8517C133.69 56.4486 131.614 55.1497 128.964 55.5615C126.286 55.9776 124.776 57.8107 125.171 60.3541ZM130.033 57.1146C131.267 56.9918 132.466 57.714 132.678 59.0784C132.88 60.381 132.046 61.3845 130.728 61.5951L130.033 57.1146Z" fill="#99BE56"/>
</svg>
