<svg width="60" height="15" viewBox="0 0 60 15" fill="none" xmlns="http://www.w3.org/2000/svg">
<path d="M10.787 11.6408L10.7701 4.65632L7.28168 10.4102H6.04548L2.57399 4.80599V11.6408H0V0H2.26917L6.70591 7.23392L11.0749 0H13.3272L13.361 11.6408H10.787Z" fill="white"/>
<path d="M25.03 2.69401L20.915 12.1896C20.4973 13.2206 19.978 13.9468 19.357 14.3681C18.7474 14.7894 18.0079 15 17.1387 15C16.6645 15 16.196 14.9279 15.7331 14.7838C15.2703 14.6397 14.8921 14.4401 14.5985 14.1851L15.5638 12.3392C15.767 12.5166 15.9984 12.6552 16.2581 12.755C16.529 12.8548 16.7943 12.9047 17.054 12.9047C17.4153 12.9047 17.7088 12.816 17.9346 12.6386C18.1604 12.4723 18.3636 12.1896 18.5442 11.7905L18.5781 11.7073L14.6324 2.69401H17.3588L19.9159 8.76386L22.4898 2.69401H25.03Z" fill="white"/>
<path d="M28.6311 3.87472C28.9472 3.44235 29.3706 3.1153 29.9012 2.89357C30.4431 2.67184 31.064 2.56098 31.7639 2.56098V4.95565C31.4704 4.93348 31.2728 4.9224 31.1712 4.9224C30.4148 4.9224 29.8221 5.13304 29.3931 5.55432C28.9641 5.96452 28.7497 6.58537 28.7497 7.41685V11.6408H26.1079V2.69401H28.6311V3.87472Z" fill="white"/>
<path d="M39.5251 11.2084C39.2654 11.3969 38.9436 11.541 38.5598 11.6408C38.1873 11.7295 37.7921 11.7738 37.3744 11.7738C36.2906 11.7738 35.4496 11.5022 34.8512 10.959C34.2642 10.4157 33.9707 9.61752 33.9707 8.5643V4.88914H32.5651V2.89357H33.9707V0.715078H36.6124V2.89357H38.8816V4.88914H36.6124V8.53104C36.6124 8.90798 36.7083 9.20177 36.9003 9.41242C37.1035 9.61197 37.3857 9.71175 37.747 9.71175C38.1647 9.71175 38.5203 9.60089 38.8138 9.37916L39.5251 11.2084Z" fill="white"/>
<path d="M50.1863 2.69401V11.6408H47.68V10.5765C47.3301 10.9645 46.9123 11.2639 46.4269 11.4745C45.9415 11.6741 45.4165 11.7738 44.852 11.7738C43.6553 11.7738 42.707 11.4357 42.0071 10.7594C41.3071 10.0831 40.9572 9.07982 40.9572 7.74945V2.69401H43.5989V7.36696C43.5989 8.80821 44.2142 9.52883 45.4447 9.52883C46.0769 9.52883 46.585 9.32927 46.9688 8.93016C47.3526 8.51996 47.5446 7.91574 47.5446 7.11752V2.69401H50.1863Z" fill="white"/>
<path d="M55.6987 11.7738C54.9423 11.7738 54.2029 11.6851 53.4804 11.5078C52.7578 11.3193 52.1821 11.0865 51.7531 10.8093L52.6337 8.94678C53.0401 9.20177 53.5312 9.41242 54.1069 9.57871C54.6827 9.73393 55.2472 9.81153 55.8003 9.81153C56.918 9.81153 57.4768 9.53991 57.4768 8.99667C57.4768 8.74169 57.3244 8.55876 57.0196 8.44789C56.7148 8.33703 56.2463 8.24279 55.6141 8.16519C54.869 8.05432 54.2537 7.92683 53.7682 7.78271C53.2828 7.63858 52.8594 7.38359 52.4982 7.01774C52.1482 6.65189 51.9732 6.13082 51.9732 5.45455C51.9732 4.88914 52.1369 4.39024 52.4643 3.95787C52.803 3.51441 53.2884 3.17073 53.9207 2.92683C54.5641 2.68293 55.3205 2.56098 56.1898 2.56098C56.8333 2.56098 57.4712 2.63304 58.1034 2.77716C58.7469 2.9102 59.2775 3.09867 59.6952 3.34257L58.8146 5.18847C58.0131 4.74501 57.1381 4.52328 56.1898 4.52328C55.6254 4.52328 55.202 4.60089 54.9198 4.7561C54.6375 4.91131 54.4964 5.11087 54.4964 5.35477C54.4964 5.63193 54.6488 5.82594 54.9536 5.93681C55.2584 6.04767 55.7439 6.15299 56.41 6.25277C57.1551 6.37472 57.7647 6.50776 58.2388 6.65189C58.713 6.78492 59.1251 7.03437 59.475 7.40022C59.825 7.76608 60 8.27605 60 8.93016C60 9.48448 59.8307 9.97783 59.492 10.4102C59.1533 10.8426 58.6566 11.1807 58.0018 11.4246C57.3583 11.6574 56.5906 11.7738 55.6987 11.7738Z" fill="white"/>
</svg>
