<svg width="90" height="26" fill="none" xmlns="http://www.w3.org/2000/svg"><path d="M13.318 14.1a4.22 4.22 0 0 1 .58-2.076c.37-.634.9-1.166 1.54-1.548a4.516 4.516 0 0 0-1.566-1.353 4.669 4.669 0 0 0-2.025-.53c-1.512-.154-2.977.877-3.747.877-.785 0-1.971-.862-3.248-.836a4.892 4.892 0 0 0-2.336.676 4.706 4.706 0 0 0-1.69 1.705c-1.74 2.922-.442 7.218 1.226 9.58.834 1.157 1.809 2.45 3.084 2.404 1.249-.05 1.715-.772 3.222-.772 1.493 0 1.93.772 3.232.743 1.34-.021 2.183-1.162 2.988-2.33a9.453 9.453 0 0 0 1.367-2.7 4.276 4.276 0 0 1-1.91-1.536 4.085 4.085 0 0 1-.717-2.303zM10.86 7.039a4.169 4.169 0 0 0 1.002-3.047 4.508 4.508 0 0 0-2.887 1.449c-.362.4-.639.864-.815 1.367a3.934 3.934 0 0 0-.214 1.567 3.786 3.786 0 0 0 1.615-.343c.505-.232.948-.571 1.298-.993zM29.098 20.07h-4.26L23.814 23H22.01l4.035-10.84h1.875L31.955 23H30.12l-1.022-2.93zm-3.82-1.352h3.378l-1.665-4.755h-.047l-1.665 4.755zM40.67 19.049c0 2.456-1.356 4.034-3.401 4.034a2.834 2.834 0 0 1-1.487-.334 2.722 2.722 0 0 1-1.077-1.05h-.039v3.915h-1.672V15.097h1.619v1.315h.03a2.85 2.85 0 0 1 1.099-1.047 2.964 2.964 0 0 1 1.496-.35c2.068 0 3.431 1.585 3.431 4.034zm-1.72 0c0-1.6-.852-2.652-2.153-2.652-1.278 0-2.138 1.074-2.138 2.652 0 1.592.86 2.659 2.138 2.659 1.3 0 2.153-1.045 2.153-2.66zM49.638 19.049c0 2.456-1.356 4.034-3.4 4.034a2.833 2.833 0 0 1-1.487-.334 2.722 2.722 0 0 1-1.078-1.05h-.038v3.915h-1.673V15.097h1.62v1.315h.03a2.85 2.85 0 0 1 1.098-1.047 2.963 2.963 0 0 1 1.496-.35c2.069 0 3.432 1.585 3.432 4.034zm-1.72 0c0-1.6-.852-2.652-2.153-2.652-1.278 0-2.137 1.074-2.137 2.652 0 1.592.86 2.659 2.137 2.659 1.301 0 2.154-1.045 2.154-2.66zM55.565 19.98c.124 1.075 1.2 1.78 2.672 1.78 1.41 0 2.424-.705 2.424-1.675 0-.841-.612-1.345-2.06-1.69l-1.449-.338c-2.052-.481-3.005-1.412-3.005-2.922 0-1.87 1.68-3.155 4.067-3.155 2.362 0 3.98 1.284 4.035 3.154h-1.688c-.101-1.081-1.023-1.734-2.37-1.734-1.348 0-2.27.66-2.27 1.622 0 .766.589 1.217 2.03 1.562l1.23.294c2.294.526 3.247 1.419 3.247 3.005 0 2.027-1.666 3.297-4.315 3.297-2.478 0-4.152-1.24-4.26-3.2h1.712zM66.037 13.227v1.87h1.55v1.285h-1.55v4.356c0 .677.31.993.992.993a5.38 5.38 0 0 0 .55-.038v1.277c-.306.056-.618.08-.93.075-1.649 0-2.292-.6-2.292-2.134v-4.53h-1.185v-1.284h1.185v-1.87h1.68zM68.484 19.049c0-2.487 1.51-4.05 3.865-4.05 2.362 0 3.865 1.563 3.865 4.05 0 2.493-1.495 4.049-3.865 4.049s-3.865-1.556-3.865-4.05zm6.026 0c0-1.706-.806-2.712-2.161-2.712-1.356 0-2.16 1.014-2.16 2.712 0 1.712.804 2.712 2.16 2.712 1.355 0 2.16-1 2.16-2.712zM77.593 15.097h1.595v1.345h.039c.108-.42.362-.791.719-1.051.357-.26.795-.393 1.241-.377.193 0 .385.02.573.06v1.518a2.406 2.406 0 0 0-.752-.098 1.733 1.733 0 0 0-.71.122c-.224.09-.427.226-.592.398-.166.173-.29.379-.367.603a1.587 1.587 0 0 0-.073.695V23h-1.673v-7.903zM89.472 20.679c-.225 1.434-1.666 2.419-3.51 2.419-2.37 0-3.84-1.54-3.84-4.012 0-2.478 1.478-4.086 3.77-4.086 2.255 0 3.673 1.502 3.673 3.898v.556H83.81v.098a2 2 0 0 0 .11.86c.099.275.257.527.465.739.207.212.459.378.737.488.279.11.579.162.88.151a1.89 1.89 0 0 0 1.13-.253c.34-.2.603-.501.751-.858h1.589zm-5.654-2.359h4.073a1.848 1.848 0 0 0-.12-.769 1.894 1.894 0 0 0-.427-.657 1.964 1.964 0 0 0-.663-.437c-.25-.1-.518-.148-.788-.143a2.12 2.12 0 0 0-.795.15 2.07 2.07 0 0 0-.674.434 1.998 1.998 0 0 0-.45.652 1.949 1.949 0 0 0-.157.77zM25.5.898a2.534 2.534 0 0 1 2.028.79 2.55 2.55 0 0 1 .676 2.073c0 1.841-.992 2.9-2.703 2.9h-2.076V.897h2.076zm-1.182 4.948H25.4a1.802 1.802 0 0 0 1.834-1.277c.08-.258.1-.53.06-.796a1.822 1.822 0 0 0-1.113-1.93 1.806 1.806 0 0 0-.781-.13h-1.083v4.133zM29.212 4.484a2.064 2.064 0 0 1 1.214-2.08 2.049 2.049 0 0 1 2.78 1.234c.09.272.122.56.095.846a2.066 2.066 0 0 1-1.212 2.084 2.05 2.05 0 0 1-2.782-1.236 2.066 2.066 0 0 1-.095-.848zm3.21 0c0-.942-.423-1.494-1.164-1.494-.744 0-1.162.552-1.162 1.494 0 .95.418 1.497 1.162 1.497.74 0 1.163-.55 1.163-1.497zM38.737 6.66h-.888l-.896-3.202h-.068l-.892 3.202h-.88L33.92 2.312h.868l.776 3.318h.064l.892-3.318h.82l.892 3.318h.068l.773-3.318h.855l-1.19 4.348zM40.932 2.312h.824v.69h.064a1.3 1.3 0 0 1 1.294-.774 1.406 1.406 0 0 1 1.452.99c.063.203.08.417.048.627V6.66h-.855v-2.6c0-.698-.303-1.046-.936-1.046a.992.992 0 0 0-.989.678 1 1 0 0 0-.046.424V6.66h-.856V2.312zM45.978.614h.856V6.66h-.856V.614zM48.023 4.484a2.066 2.066 0 0 1 1.214-2.08 2.049 2.049 0 0 1 2.35.498 2.06 2.06 0 0 1 .526 1.582 2.068 2.068 0 0 1-.524 1.585 2.055 2.055 0 0 1-2.353.499 2.055 2.055 0 0 1-1.118-1.236 2.066 2.066 0 0 1-.095-.848zm3.21 0c0-.942-.423-1.493-1.164-1.493-.744 0-1.162.55-1.162 1.493 0 .95.418 1.497 1.162 1.497.74 0 1.163-.55 1.163-1.497zM53.014 5.43c0-.782.58-1.233 1.612-1.297l1.175-.068v-.376c0-.459-.303-.718-.888-.718-.478 0-.809.176-.904.483h-.828c.087-.747.788-1.226 1.771-1.226 1.087 0 1.7.543 1.7 1.461V6.66h-.823v-.61h-.068a1.46 1.46 0 0 1-1.302.682 1.306 1.306 0 0 1-1.33-.769 1.316 1.316 0 0 1-.115-.532zm2.787-.37v-.364l-1.06.067c-.596.04-.867.244-.867.628 0 .391.338.619.804.619a1.02 1.02 0 0 0 1.123-.95zM57.777 4.484c0-1.374.704-2.244 1.8-2.244a1.425 1.425 0 0 1 1.33.763h.063V.614h.856V6.66h-.82v-.687h-.068a1.507 1.507 0 0 1-1.361.759c-1.103 0-1.8-.87-1.8-2.248zm.884 0c0 .922.433 1.477 1.158 1.477.721 0 1.167-.563 1.167-1.473 0-.906-.45-1.477-1.167-1.477-.72 0-1.158.558-1.158 1.473zM65.366 4.484a2.064 2.064 0 0 1 1.214-2.08 2.049 2.049 0 0 1 2.78 1.234c.09.272.123.56.095.846a2.068 2.068 0 0 1-.523 1.584 2.055 2.055 0 0 1-2.353.5 2.054 2.054 0 0 1-1.118-1.236 2.066 2.066 0 0 1-.095-.848zm3.21 0c0-.942-.423-1.494-1.164-1.494-.744 0-1.162.552-1.162 1.494 0 .95.418 1.497 1.162 1.497.741 0 1.163-.55 1.163-1.497zM70.603 2.312h.824v.69h.064a1.3 1.3 0 0 1 1.294-.774 1.406 1.406 0 0 1 1.452.99c.063.203.08.417.048.627V6.66h-.855v-2.6c0-.698-.303-1.046-.936-1.046a.992.992 0 0 0-.989.678 1 1 0 0 0-.046.424V6.66h-.856V2.312zM79.12 1.229v1.102h.94v.723h-.94V5.29c0 .456.187.655.613.655.11 0 .218-.007.326-.02v.715c-.153.028-.309.043-.465.044-.952 0-1.33-.336-1.33-1.174V3.054h-.689v-.723h.688V1.23h.857zM81.228.614h.848v2.397h.068a1.337 1.337 0 0 1 1.322-.78 1.424 1.424 0 0 1 1.44 1c.063.2.081.413.053.622V6.66h-.856V4.064c0-.694-.323-1.046-.927-1.046a1.01 1.01 0 0 0-1.036.667c-.05.14-.07.288-.056.436v2.54h-.856V.613zM89.948 5.486a1.765 1.765 0 0 1-1.878 1.258 1.964 1.964 0 0 1-1.52-.657 1.976 1.976 0 0 1-.483-1.587 2.011 2.011 0 0 1 1.167-2.098c.262-.117.545-.177.832-.174 1.206 0 1.934.827 1.934 2.192v.3h-3.061v.048a1.153 1.153 0 0 0 .69 1.152c.146.063.304.095.464.093a1.036 1.036 0 0 0 1.032-.527h.823zm-3.01-1.401h2.19a1.051 1.051 0 0 0-1.067-1.127 1.106 1.106 0 0 0-1.041.694 1.116 1.116 0 0 0-.082.433z" fill="currentColor"/></svg>