<svg width="108" height="24" fill="none" xmlns="http://www.w3.org/2000/svg"><path d="M92.137 20.418h-1.74V9.432h1.74v10.986zM104.072 18.152l1.994-4.763H108l-4.782 10.36h-1.815l1.769-3.702-3.104-6.658h1.874l2.07 4.763h.06z" fill="currentColor"/><path fill-rule="evenodd" clip-rule="evenodd" d="M93.307 14.831c.54-1.159 1.844-1.682 3.103-1.682 1.994 0 3.538 1.089 3.538 3.039V20.4H98.27v-.848h-.06c-.405.58-1.05 1.074-2.22 1.074-1.528 0-2.893-.947-2.893-2.417 0-1.611 1.695-2.473 3.359-2.473.825 0 1.5.254 1.814.424v-.113c-.015-.905-.93-1.414-1.829-1.414-.645 0-1.26.198-1.59.806l-1.543-.608zm1.529 3.406c0 .665.794.933 1.364.933 1.004 0 1.934-.72 2.07-1.738-.466-.212-.825-.368-1.59-.368-.854 0-1.844.325-1.844 1.173zM81.446 9.432h4.168c1.928 0 3.824 1.316 3.824 3.412s-1.896 3.412-3.824 3.412h-2.43v4.162h-1.738V9.432zm1.739 5.295h2.474c1.3 0 2.04-1.032 2.04-1.883 0-.868-.74-1.883-2.04-1.883h-2.474v3.766zM64.822 14.005h.06v-.609h1.652v6.71c0 2.761-1.727 3.894-3.77 3.894-1.922 0-3.079-1.218-3.514-2.209l1.517-.594c.27.608.931 1.33 1.997 1.33 1.307 0 2.118-.764 2.118-2.194v-.538h-.06c-.39.453-1.142.85-2.088.85-1.982 0-3.8-1.629-3.8-3.724 0-2.11 1.818-3.752 3.8-3.752.946 0 1.698.397 2.088.836zm-4.145 2.916c0 1.303 1.006 2.251 2.208 2.251 1.186 0 2.117-.948 2.117-2.251 0-1.316-.93-2.28-2.117-2.28-1.202 0-2.208.964-2.208 2.28z" fill="currentColor"/><path d="M69.478 20.418h-1.742V9.432h1.742v10.986z" fill="currentColor"/><path fill-rule="evenodd" clip-rule="evenodd" d="M74.059 13.17c2.057 0 3.064 1.542 3.394 2.378l.18.425-5.301 2.067c.405.75 1.036 1.132 1.922 1.132.886 0 1.502-.41 1.953-1.033l1.352.85a4 4 0 0 1-3.305 1.655c-2.253 0-3.935-1.642-3.935-3.737 0-2.223 1.697-3.738 3.74-3.738zm.06 1.444c-.886 0-2.118.736-2.073 2.18l3.545-1.388c-.195-.467-.78-.793-1.472-.793z" fill="currentColor"/><path d="M35.214 15.902v-1.586h5.662c.06.284.09.623.09.991 0 1.19-.346 2.662-1.457 3.71-1.081 1.061-2.463 1.628-4.295 1.628-3.395 0-6.249-2.605-6.249-5.805 0-3.2 2.854-5.805 6.249-5.805 1.877 0 3.214.694 4.22 1.6l-1.187 1.119c-.72-.637-1.697-1.133-3.033-1.133-2.479 0-4.416 1.883-4.416 4.22 0 2.335 1.937 4.218 4.416 4.218 1.607 0 2.523-.609 3.108-1.161.481-.453.796-1.104.917-1.996h-4.025z" fill="currentColor"/><path fill-rule="evenodd" clip-rule="evenodd" d="M41.562 16.907c0-2.166 1.787-3.738 3.98-3.738s3.98 1.572 3.98 3.738c0 2.152-1.787 3.738-3.98 3.738s-3.98-1.586-3.98-3.738zm1.742 0a2.223 2.223 0 0 0 2.238 2.265 2.223 2.223 0 0 0 2.238-2.265c0-1.345-1.037-2.265-2.238-2.265-1.202 0-2.238.92-2.238 2.265zM50.245 16.907c0-2.166 1.787-3.738 3.98-3.738 2.192 0 3.98 1.572 3.98 3.738 0 2.152-1.788 3.738-3.98 3.738-2.193 0-3.98-1.586-3.98-3.738zm1.742 0a2.223 2.223 0 0 0 2.238 2.265 2.223 2.223 0 0 0 2.237-2.265c0-1.345-1.036-2.265-2.237-2.265-1.202 0-2.238.92-2.238 2.265z" fill="currentColor"/><path d="M35.003 3.056c0-.133-.013-.27-.04-.413l-.014-.072h-2.882v.809h2.02c-.052.395-.197.697-.43.918-.401.376-.893.561-1.497.563a2.097 2.097 0 0 1-1.463-.561c-.41-.375-.615-.853-.616-1.458.001-.604.205-1.083.616-1.457.415-.376.896-.56 1.463-.56.63 0 1.106.197 1.46.594l.066.073.623-.589-.055-.061a2.396 2.396 0 0 0-.909-.614A3.135 3.135 0 0 0 32.16 0c-.829 0-1.544.274-2.124.817a2.663 2.663 0 0 0-.875 2.025c-.001.8.292 1.483.875 2.026.58.543 1.295.817 2.124.816.863.001 1.58-.27 2.122-.807.482-.455.721-1.069.72-1.82zM39.3.118h-3.452v5.449H39.3v-.824h-2.547V3.247h2.297v-.809h-2.297V.942H39.3V.118zM42.331 5.567V.942h1.563V.118h-4.03v.824h1.562v4.625h.905zM47.393 5.567V.118h-.905v5.449h.905zM50.581 5.567V.942h1.563V.118h-4.03v.824h1.562v4.625h.905z" fill="currentColor"/><path fill-rule="evenodd" clip-rule="evenodd" d="M59.394 4.858a2.707 2.707 0 0 0 .85-2.016c.001-.785-.286-1.463-.853-2.012C58.822.278 58.11 0 57.276 0c-.839 0-1.553.277-2.117.826a2.703 2.703 0 0 0-.85 2.016c-.001.79.284 1.47.85 2.017.564.55 1.278.826 2.117.825.839.001 1.553-.276 2.118-.826zm-3.571-.564c-.396-.38-.593-.856-.594-1.452 0-.595.198-1.072.594-1.451.399-.38.876-.566 1.453-.567.577.001 1.055.187 1.453.567.397.38.594.856.595 1.451 0 .596-.198 1.073-.595 1.452-.398.38-.876.565-1.453.567-.577-.002-1.054-.188-1.453-.567z" fill="currentColor"/><path d="M61.067 5.567h.904V2.193l-.022-.741 2.722 4.115h.895V.118h-.906v3.175l.023.743L62.086.118h-1.02v5.449z" fill="currentColor"/><path d="M.5 22.518l-.069-.063c-.27-.27-.431-.69-.431-1.234v.128V1.914v.128C0 1.453.187 1.01.5.743l11.55 10.888L.5 22.518z" fill="url(#paint0_linear)"/><path d="M15.901 15.261l-3.85-3.63L15.9 8l4.648 2.49c.59.316.922.723.977 1.14v.001c-.055.416-.386.823-.977 1.14l-4.648 2.49z" fill="url(#paint1_linear)"/><path d="M1.325 22.804c-.323 0-.605-.1-.824-.286l11.55-10.887 3.85 3.63L2.37 22.51c-.374.2-.73.295-1.044.295zm-.827-.16a1.216 1.216 0 0 1-.06-.055l.06.055z" fill="url(#paint2_linear)"/><path d="M12.05 11.63L.5.744c.22-.186.5-.285.823-.285.316 0 .67.095 1.046.295L15.9 8.001l-3.85 3.63zM2.37.626C1.994.425 1.639.33 1.323.33h-.004.005c.315 0 .67.096 1.045.296z" fill="url(#paint3_linear)"/><path d="M1.41 22.93c.293-.015.618-.11.96-.293L15.9 15.39 2.37 22.637c-.342.183-.667.278-.96.293zm-.91-.283l-.002-.002.003.002zm-.062-.058l-.006-.005.006.005z" fill="#fff"/><path d="M15.9 15.39l.088-.047-.088.047z" fill="url(#paint4_linear)"/><path d="M1.325 22.933c-.323 0-.605-.1-.824-.286l-.003-.002-.06-.056-.006-.005.069-.066c.22.187.501.286.824.286.315 0 .67-.095 1.044-.295l13.532-7.248.087.082-.088.047-13.53 7.247a2.325 2.325 0 0 1-.96.294 1.892 1.892 0 0 1-.085.002z" fill="url(#paint5_linear)"/><path d="M.431 22.584c-.27-.27-.431-.69-.431-1.235 0 .544.16.964.431 1.235z" fill="#fff"/><path d="M.431 22.583c-.27-.27-.431-.69-.431-1.234v-.128c0 .544.16.964.431 1.234l.07.063-.07.065z" fill="url(#paint6_linear)"/><path d="M.432 22.583l.069-.065-.07.065z" fill="url(#paint7_linear)"/><path d="M21.419 12.085a1.038 1.038 0 0 1 0 0z" fill="#fff"/><path d="M15.988 15.343l-.087-.082 4.648-2.49c.59-.316.922-.723.977-1.139 0 .153-.036.305-.107.453-.145.3-.435.582-.87.815l-4.561 2.443z" fill="url(#paint8_linear)"/><path d="M21.527 11.63c0-.46-.326-.919-.977-1.268L15.988 7.92l4.562 2.443c.651.349.978.81.977 1.269z" fill="currentColor"/><path d="M21.527 11.63c-.056-.416-.387-.823-.978-1.14l-4.648-2.489.087-.082 4.561 2.443c.651.35.977.809.978 1.268z" fill="url(#paint9_linear)"/><path d="M0 1.91v-.002.001zm.004-.143v-.003.002zm0-.005v-.004.004zm0-.005C.058.854.58.333 1.316.33.996.332.718.43.5.615L.498.618.43.679c-.244.244-.399.61-.427 1.078z" fill="currentColor"/><path d="M0 2.042v-.128-.005c0-.05.001-.097.004-.143v-.002-.002-.004-.001C.032 1.288.187.923.431.679L.5.743c-.313.266-.5.71-.5 1.3zM.498.617L.5.615.498.617z" fill="url(#paint10_linear)"/><path d="M15.9 8.001L2.37.754c-.376-.2-.731-.296-1.047-.296C1 .458.719.557.5.743L.432.68C.453.658.475.637.498.617L.5.615C.718.43.997.331 1.316.33h.007c.316 0 .67.095 1.046.295L15.988 7.92l-.087.082z" fill="url(#paint11_linear)"/><defs><linearGradient id="paint0_linear" x1="11.026" y1="1.709" x2="-3.696" y2="17.327" gradientUnits="userSpaceOnUse"><stop stop-color="#00A0FF"/><stop offset=".007" stop-color="#00A1FF"/><stop offset=".26" stop-color="#00BEFF"/><stop offset=".512" stop-color="#00D2FF"/><stop offset=".76" stop-color="#00DFFF"/><stop offset="1" stop-color="#00E3FF"/></linearGradient><linearGradient id="paint1_linear" x1="22.246" y1="11.631" x2="-.313" y2="11.631" gradientUnits="userSpaceOnUse"><stop stop-color="#FFE000"/><stop offset=".409" stop-color="#FFBD00"/><stop offset=".775" stop-color="orange"/><stop offset="1" stop-color="#FF9C00"/></linearGradient><linearGradient id="paint2_linear" x1="13.848" y1="13.648" x2="-6.116" y2="34.828" gradientUnits="userSpaceOnUse"><stop stop-color="#FF3A44"/><stop offset="1" stop-color="#C31162"/></linearGradient><linearGradient id="paint3_linear" x1="-2.494" y1="-5.791" x2="6.421" y2="3.667" gradientUnits="userSpaceOnUse"><stop stop-color="#32A071"/><stop offset=".069" stop-color="#2DA771"/><stop offset=".476" stop-color="#15CF74"/><stop offset=".801" stop-color="#06E775"/><stop offset="1" stop-color="#00F076"/></linearGradient><linearGradient id="paint4_linear" x1="22.246" y1="11.631" x2="-.313" y2="11.631" gradientUnits="userSpaceOnUse"><stop stop-color="#CCB300"/><stop offset=".409" stop-color="#CC9700"/><stop offset=".775" stop-color="#CC8400"/><stop offset="1" stop-color="#CC7D00"/></linearGradient><linearGradient id="paint5_linear" x1="13.848" y1="13.648" x2="-6.116" y2="34.828" gradientUnits="userSpaceOnUse"><stop stop-color="#CC2E36"/><stop offset="1" stop-color="#9C0E4E"/></linearGradient><linearGradient id="paint6_linear" x1="11.026" y1="1.709" x2="-3.696" y2="17.327" gradientUnits="userSpaceOnUse"><stop stop-color="#008DE0"/><stop offset=".007" stop-color="#008DE0"/><stop offset=".26" stop-color="#00A7E0"/><stop offset=".512" stop-color="#00B8E0"/><stop offset=".76" stop-color="#00C4E0"/><stop offset="1" stop-color="#00C7E0"/></linearGradient><linearGradient id="paint7_linear" x1="13.849" y1="13.648" x2="-6.115" y2="34.829" gradientUnits="userSpaceOnUse"><stop stop-color="#E0333C"/><stop offset="1" stop-color="#AB0F56"/></linearGradient><linearGradient id="paint8_linear" x1="22.245" y1="11.631" x2="-.313" y2="11.631" gradientUnits="userSpaceOnUse"><stop stop-color="#E0C500"/><stop offset=".409" stop-color="#E0A600"/><stop offset=".775" stop-color="#E09100"/><stop offset="1" stop-color="#E08900"/></linearGradient><linearGradient id="paint9_linear" x1="22.246" y1="11.631" x2="-.312" y2="11.631" gradientUnits="userSpaceOnUse"><stop stop-color="#FFE840"/><stop offset=".409" stop-color="#FFCE40"/><stop offset=".775" stop-color="#FFBC40"/><stop offset="1" stop-color="#FFB540"/></linearGradient><linearGradient id="paint10_linear" x1="11.026" y1="1.709" x2="-3.696" y2="17.327" gradientUnits="userSpaceOnUse"><stop stop-color="#40B8FF"/><stop offset=".007" stop-color="#40B9FF"/><stop offset=".26" stop-color="#40CEFF"/><stop offset=".512" stop-color="#40DDFF"/><stop offset=".76" stop-color="#40E7FF"/><stop offset="1" stop-color="#40EAFF"/></linearGradient><linearGradient id="paint11_linear" x1="-2.494" y1="-5.79" x2="6.421" y2="3.667" gradientUnits="userSpaceOnUse"><stop stop-color="#65B895"/><stop offset=".069" stop-color="#62BD95"/><stop offset=".476" stop-color="#50DB97"/><stop offset=".801" stop-color="#44ED98"/><stop offset="1" stop-color="#40F498"/></linearGradient></defs></svg>