<svg width="141" height="141" fill="none" xmlns="http://www.w3.org/2000/svg"><circle r="70.5" transform="matrix(-1 0 0 1 70.5 70.5)" fill="url(#paint0_linear)"/><g filter="url(#filter0_dd)"><rect width="48.881" height="48.881" rx="24.441" transform="matrix(-1 0 0 1 96.04 47.117)" fill="#fff"/><path d="M80.601 80.37c.229 0 .447-.1.588-.277 1.753-2.215 2.422-5.053 2.422-8.149 0-3.35-1.461-6.399-3.504-8.681a.721.721 0 0 0-.802-.19c-4.644 1.835-7.406 6.473-7.982 9.415-.576-2.942-3.338-7.58-7.982-9.416a.721.721 0 0 0-.803.19c-2.042 2.283-3.504 5.332-3.504 8.682 0 3.096.67 5.934 2.423 8.149.14.178.359.278.587.278h3.381c.271 0 .523-.14.654-.375.444-1.335.636-2.664.636-3.803 1.163 1.232 2.88 2.658 4.432 3.327a.38.38 0 0 0 .352 0c1.552-.669 3.268-2.095 4.432-3.327 0 1.14.192 2.468.635 3.803.131.234.383.375.654.375h3.381z" fill="#378757"/></g><path fill-rule="evenodd" clip-rule="evenodd" d="M18.733 43.53C5.425 71.639 17.642 105.1 46.022 118.28c17.288 8.029 36.566 6.633 52.013-2.006a.61.61 0 0 0 .235-.835.623.623 0 0 0-.843-.232c-15.116 8.454-33.971 9.817-50.88 1.964-27.762-12.892-39.712-45.625-26.694-73.119 1.409-2.976 3.095-5.734 4.948-8.335a.609.609 0 0 0-.149-.854.622.622 0 0 0-.862.148c-1.886 2.648-3.612 5.468-5.057 8.52z" fill="url(#paint1_linear)"/><path d="M90.818 113.896c4.137.884 8.21-1.769 9.099-5.926-.889 4.157 1.745 8.243 5.882 9.127-4.113-.879-8.164 1.739-9.084 5.855v-.001c.843-4.132-1.784-8.176-5.897-9.055z" fill="#99BE56"/><path fill-rule="evenodd" clip-rule="evenodd" d="M114.148 54.53a.595.595 0 0 0-.822.194l-2.827 4.597a.603.603 0 0 0 .193.826c.28.175.648.088.822-.194l2.05-3.332a42.03 42.03 0 0 1-1.158 20.792 41.814 41.814 0 0 1-12.07 18.646 41.442 41.442 0 0 1-19.872 9.77 41.31 41.31 0 0 1-22.039-1.875l-.413 1.127a42.499 42.499 0 0 0 22.672 1.929 42.632 42.632 0 0 0 20.443-10.051 43.018 43.018 0 0 0 12.417-19.182 43.238 43.238 0 0 0 1.173-21.48l3.372 2.099c.28.174.648.087.822-.195a.604.604 0 0 0-.194-.827l-4.569-2.845z" fill="url(#paint2_linear)"/><defs><filter id="filter0_dd" x="36.158" y="42.117" width="102.881" height="111.881" filterUnits="userSpaceOnUse" color-interpolation-filters="sRGB"><feFlood flood-opacity="0" result="BackgroundImageFix"/><feColorMatrix in="SourceAlpha" values="0 0 0 0 0 0 0 0 0 0 0 0 0 0 0 0 0 0 127 0"/><feOffset dx="4" dy="7"/><feGaussianBlur stdDeviation="6"/><feColorMatrix values="0 0 0 0 0.372986 0 0 0 0 0.545833 0 0 0 0 0.48395 0 0 0 0.06 0"/><feBlend in2="BackgroundImageFix" result="effect1_dropShadow"/><feColorMatrix in="SourceAlpha" values="0 0 0 0 0 0 0 0 0 0 0 0 0 0 0 0 0 0 127 0"/><feOffset dx="16" dy="31"/><feGaussianBlur stdDeviation="13.5"/><feColorMatrix values="0 0 0 0 0.426562 0 0 0 0 0.5625 0 0 0 0 0.513831 0 0 0 0.04 0"/><feBlend in2="effect1_dropShadow" result="effect2_dropShadow"/><feBlend in="SourceGraphic" in2="effect2_dropShadow" result="shape"/></filter><linearGradient id="paint0_linear" x1="0" y1="10.905" x2="141" y2="141" gradientUnits="userSpaceOnUse"><stop stop-color="#2D9060"/><stop offset="1" stop-color="#0B6B3E"/></linearGradient><linearGradient id="paint1_linear" x1="64.615" y1="127.676" x2="22.114" y2="42.069" gradientUnits="userSpaceOnUse"><stop stop-color="#94BB44"/><stop offset="1" stop-color="#0E7847" stop-opacity="0"/></linearGradient><linearGradient id="paint2_linear" x1="86.587" y1="55.04" x2="86.587" y2="107.144" gradientUnits="userSpaceOnUse"><stop stop-color="#94BB44"/><stop offset="1" stop-color="#94BB44" stop-opacity="0"/></linearGradient></defs></svg>