<svg width="26" height="18" fill="none" xmlns="http://www.w3.org/2000/svg"><path d="M3.184 18a.796.796 0 0 1-.621-.288C.708 15.414 0 12.469 0 9.257 0 5.782 1.546 2.617 3.707.25a.773.773 0 0 1 .849-.198C9.469 1.956 12.39 6.77 13 9.822c.61-3.053 3.531-7.866 8.444-9.77a.773.773 0 0 1 .849.198C24.453 2.618 26 5.782 26 9.257c0 3.212-.708 6.157-2.563 8.455a.796.796 0 0 1-.621.288h-3.577a.79.79 0 0 1-.692-.389 12.515 12.515 0 0 1-.672-3.946c-1.231 1.279-3.047 2.759-4.689 3.452a.41.41 0 0 1-.372 0c-1.642-.693-3.458-2.173-4.689-3.452 0 1.183-.203 2.562-.672 3.946A.791.791 0 0 1 6.76 18H3.184z" fill="#378757"/></svg>