<svg width="22" height="21" fill="none" xmlns="http://www.w3.org/2000/svg"><path d="M9.593 1.019c.443-1.359 2.371-1.359 2.814 0l1.583 4.854a1.479 1.479 0 0 0 1.407 1.02h5.12c1.434 0 2.03 1.827.87 2.667l-4.143 3a1.472 1.472 0 0 0-.537 1.649l1.582 4.854c.443 1.359-1.117 2.488-2.276 1.649l-4.143-3a1.483 1.483 0 0 0-1.74 0l-4.143 3c-1.16.84-2.72-.29-2.276-1.649l1.582-4.854a1.472 1.472 0 0 0-.537-1.649l-4.143-3c-1.16-.84-.564-2.668.87-2.668h5.12A1.48 1.48 0 0 0 8.01 5.873L9.593 1.02z" fill="#378757"/></svg>