<?xml version="1.0" encoding="utf-8"?><svg width="97" height="87" viewBox="0 0 97 87" xmlns="http://www.w3.org/2000/svg" xmlns:xlink="http://www.w3.org/1999/xlink"><svg width="30" height="30" viewBox="0 0 30 30" id="about" xmlns="http://www.w3.org/2000/svg"><g fill="none" fill-rule="evenodd"><path stroke="#FFF" stroke-width="2" d="M7 14.384V25h16V14.384l-8-8.89-8 8.89z"/><path fill="#FFF" fill-rule="nonzero" d="M16 23h-2v-6h2zm0-7h-2v-2h2z"/></g></svg><svg width="20" height="20" viewBox="0 0 20 20" id="arrow" x="24" y="60" xmlns="http://www.w3.org/2000/svg"><path fill="#FF7769" d="M10 18a8 8 0 1 0 0-16 8 8 0 0 0 0 16zm.414-8l-2.828 2.828L9 14.243l2.828-2.829L13.243 10 9 5.757 7.586 7.172 10.414 10zM10 20C4.477 20 0 15.523 0 10S4.477 0 10 0s10 4.477 10 10-4.477 10-10 10z"/></svg><svg width="30" height="30" viewBox="0 0 30 30" id="blog" x="30" xmlns="http://www.w3.org/2000/svg"><path d="M7 7.22v15.56l8-1.6V8.82l-8-1.6zm8 1.6v12.36l8 1.6V7.22l-8 1.6z" fill="none" fill-rule="evenodd" stroke="#FFF" stroke-width="2"/></svg><svg width="24" height="27" viewBox="0 0 24 27" id="callendar" y="60" xmlns="http://www.w3.org/2000/svg"><path fill="#FFF" fill-rule="evenodd" d="M19.326 2.792h4.523v23.85H0V2.791h4.523V0h3v2.792h8.803V0h3v2.792zM3 23.642h17.85V5.791H3v17.85zm0-12.416v-3h17.85v3H3zm0 0v-3 3zm17.85-3v3-3z"/></svg><svg width="8" height="5" viewBox="0 0 8 5" id="combined-shape" x="24" y="80" xmlns="http://www.w3.org/2000/svg"><path fill="#FFF" fill-rule="evenodd" d="M4.477 4.545l-.483.483-.477-.477-.094.094-3.28-3.281 1.42-1.42L4 2.38 6.437-.057l1.42 1.421-3.28 3.28-.1-.099z"/></svg><svg width="30" height="30" viewBox="0 0 30 30" id="contacts" y="30" xmlns="http://www.w3.org/2000/svg"><g fill="none" fill-rule="evenodd"><path stroke="#FFF" stroke-width="2" d="M5 9h20v13H5z"/><path fill="#FFF" fill-rule="nonzero" d="M16.11 16.336L15 18 4.113 10.777l1.11-1.664z"/><path fill="#FFF" fill-rule="nonzero" d="M13.89 16.336L15 18l10.887-7.223-1.11-1.664z"/></g></svg><svg width="30" height="30" viewBox="0 0 30 30" id="funds" x="30" y="30" xmlns="http://www.w3.org/2000/svg"><g fill="none" fill-rule="evenodd"><path fill="#FFF" d="M3 24h24v2H3zM19 4h8v2h-8z"/><path fill="#FFF" d="M27 4v8h-2V4z"/><path stroke="#FFF" stroke-linecap="square" stroke-width="2" d="M25.5 5.5L16 15l-3.416-3.416-8.05 8.05"/></g></svg><svg width="20" height="20" viewBox="0 0 20 20" id="pin-unactive" x="44" y="60" xmlns="http://www.w3.org/2000/svg"><path fill="none" stroke="#424559" stroke-width="2" d="M3.414 17.13l.016.016 5.37-5.37 3.839 3.84.016-.016-.993-.994 1.37-4.142 2.95-2.949 1.188 1.189.016-.017-5.273-5.273-.016.016 1.214 1.215-2.96 2.96-4.13 1.361-1.144-1.145-.016.017 3.923 3.922-5.37 5.37z"/></svg><svg width="7" height="6" viewBox="0 0 7 6" id="rectangle" x="90" xmlns="http://www.w3.org/2000/svg"><path fill="#00C46E" fill-rule="evenodd" d="M3.507 0L7 6H0z"/></svg><svg width="20" height="20" viewBox="0 0 20 20" id="refresh" x="64" y="60" xmlns="http://www.w3.org/2000/svg"><path fill="#5E6073" fill-rule="evenodd" d="M2.069 14.598v2.082H0v-5.525h5.526v2.069h-1.86a6.85 6.85 0 0 0 1.201 1.618 6.853 6.853 0 0 0 4.877 2.02 6.853 6.853 0 0 0 4.877-2.02 6.865 6.865 0 0 0 1.974-4.135h2.08a8.928 8.928 0 0 1-2.591 5.598 8.935 8.935 0 0 1-6.34 2.626 8.936 8.936 0 0 1-6.34-2.626 8.888 8.888 0 0 1-1.335-1.707zm15.244-9.437V3.247h2.069v5.525h-5.526V6.703h1.963a6.848 6.848 0 0 0-1.198-1.613 6.852 6.852 0 0 0-4.877-2.021 6.854 6.854 0 0 0-4.877 2.02 6.86 6.86 0 0 0-1.973 4.136H.814a8.93 8.93 0 0 1 2.59-5.599A8.94 8.94 0 0 1 9.744 1a8.94 8.94 0 0 1 7.569 4.161z"/></svg><svg width="30" height="30" viewBox="0 0 30 30" id="services" x="60" xmlns="http://www.w3.org/2000/svg"><g fill="none" fill-rule="evenodd"><path stroke="#FFF" stroke-width="2" d="M15 24a9 9 0 1 0-9-9v9h9z"/><path fill="#FFF" d="M19 12v2h-8v-2zm-2 4v2h-6v-2z"/></g></svg><svg width="24" height="28" viewBox="0 0 24 28" id="votification" x="60" y="30" xmlns="http://www.w3.org/2000/svg"><path fill="#FFF" fill-rule="evenodd" d="M11.925 1.971V0h1.5v2.082a10.069 10.069 0 0 1 5.658 2.85 10.06 10.06 0 0 1 2.966 7.159v9.066h1.801v3H13.425v3.249h-3v-3.25H0v-3h1.8v-9.065a10.06 10.06 0 0 1 2.966-7.16 10.071 10.071 0 0 1 5.659-2.85V0h1.5v1.97zm7.124 19.186V12.09a7.082 7.082 0 0 0-2.087-5.038c-2.777-2.777-7.297-2.777-10.075 0A7.082 7.082 0 0 0 4.8 12.09v9.066h14.25z"/></svg></svg>