<?xml version="1.0" encoding="utf-8"?><svg width="58" height="30" viewBox="0 0 58 30" xmlns="http://www.w3.org/2000/svg" xmlns:xlink="http://www.w3.org/1999/xlink"><svg width="28" height="20" fill="none" viewBox="0 0 28 20" id="Vector" x="30" xmlns="http://www.w3.org/2000/svg"><path d="M3.43 20a.847.847 0 0 1-.67-.32C.763 17.127 0 13.854 0 10.286 0 6.424 1.665 2.909 3.992.277a.815.815 0 0 1 .914-.219c5.29 2.116 8.438 7.463 9.094 10.854.656-3.39 3.803-8.738 9.094-10.854a.815.815 0 0 1 .914.22C26.335 2.907 28 6.423 28 10.285c0 3.568-.763 6.841-2.76 9.394a.847.847 0 0 1-.67.32H20.72a.847.847 0 0 1-.745-.432 14.309 14.309 0 0 1-.724-4.384c-1.326 1.42-3.281 3.065-5.05 3.835a.43.43 0 0 1-.4 0c-1.769-.77-3.724-2.415-5.05-3.835 0 1.313-.219 2.846-.724 4.384a.847.847 0 0 1-.745.432H3.43z" fill="#378757"/></svg><svg width="30" height="30" viewBox="0 0 30 30" id="_example" xmlns="http://www.w3.org/2000/svg"><g fill="none" fill-rule="evenodd"><path stroke="#FFF" stroke-width="2" d="M7 14.384V25h16V14.384l-8-8.89-8 8.89z"/><path fill="#FFF" fill-rule="nonzero" d="M16 23h-2v-6h2zm0-7h-2v-2h2z"/></g></svg></svg>