<?xml version="1.0" encoding="utf-8"?><svg width="263" height="222" viewBox="0 0 263 222" xmlns="http://www.w3.org/2000/svg" xmlns:xlink="http://www.w3.org/1999/xlink"><svg width="30" height="30" viewBox="0 0 30 30" id="_example" x="175" y="88" xmlns="http://www.w3.org/2000/svg"><g fill="none" fill-rule="evenodd"><path stroke="#FFF" stroke-width="2" d="M7 14.384V25h16V14.384l-8-8.89-8 8.89z"/><path fill="#FFF" fill-rule="nonzero" d="M16 23h-2v-6h2zm0-7h-2v-2h2z"/></g></svg><svg width="88" height="88" fill="none" viewBox="0 0 88 88" id="circle" x="87" xmlns="http://www.w3.org/2000/svg"><circle cx="44" cy="44" r="44" fill="#378757"/></svg><svg width="21" height="21" fill="none" viewBox="0 0 21 21" id="close" x="111" y="88" xmlns="http://www.w3.org/2000/svg"><path d="M19.515 1.515l-18 18m18 0l-18-18" stroke="#87B79A" stroke-width="2" stroke-linecap="round"/></svg><svg width="88" height="88" fill="none" viewBox="0 0 88 88" id="flower" x="175" xmlns="http://www.w3.org/2000/svg"><path d="M2.023 0A2.029 2.029 0 0 0 0 2.035v41.71C0 68.188 19.7 88 44 88s44-19.813 44-44.254V2.035A2.029 2.029 0 0 0 85.977 0H66.83C54.222 0 44 10.221 44 22.83 44 10.221 33.78 0 21.17 0H2.023z" fill="#99BE56"/></svg><svg width="88" height="88" fill="none" viewBox="0 0 88 88" id="fourth-circle" y="134" xmlns="http://www.w3.org/2000/svg"><path d="M0 2.286A2.286 2.286 0 0 1 2.286 0H84a4 4 0 0 1 4 4v81.714A2.286 2.286 0 0 1 85.714 88C38.376 88 0 49.624 0 2.286z" fill="#378757"/></svg><svg width="88" height="48" fill="none" viewBox="0 0 88 48" id="half-circle" x="88" y="134" xmlns="http://www.w3.org/2000/svg"><path d="M0 .906C0 .406.405 0 .906 0h86.188c.5 0 .906.405.906.906V4c0 24.3-19.7 44-44 44S0 28.3 0 4V.906z" fill="#103E38"/></svg><svg width="28" height="20" fill="none" viewBox="0 0 28 20" id="logo" x="205" y="88" xmlns="http://www.w3.org/2000/svg"><path d="M3.43 20a.847.847 0 0 1-.67-.32C.763 17.127 0 13.854 0 10.286 0 6.424 1.665 2.909 3.992.277a.815.815 0 0 1 .914-.219c5.29 2.116 8.438 7.463 9.094 10.854.656-3.39 3.803-8.738 9.094-10.854a.815.815 0 0 1 .914.22C26.335 2.907 28 6.423 28 10.285c0 3.568-.763 6.841-2.76 9.394a.847.847 0 0 1-.67.32H20.72a.847.847 0 0 1-.745-.432 14.309 14.309 0 0 1-.724-4.384c-1.326 1.42-3.281 3.065-5.05 3.835a.43.43 0 0 1-.4 0c-1.769-.77-3.724-2.415-5.05-3.835 0 1.313-.219 2.846-.724 4.384a.847.847 0 0 1-.745.432H3.43z" fill="#378757"/></svg><svg width="87" height="134" fill="none" viewBox="0 0 87 134" id="oval" xmlns="http://www.w3.org/2000/svg"><rect width="87" height="134" rx="43.5" fill="#99BE56"/></svg><svg width="24" height="27" fill="none" viewBox="0 0 24 27" id="star" x="87" y="88" xmlns="http://www.w3.org/2000/svg"><path d="M0 13.436c6.627 0 12 6.073 12 13.564 0-7.491 5.373-13.564 12-13.564-6.59 0-11.939-6.004-12-13.436-.061 7.432-5.41 13.436-12 13.436z" fill="#378757"/></svg></svg>