<?xml version="1.0" encoding="utf-8"?><svg width="577" height="679" viewBox="0 0 577 679" xmlns="http://www.w3.org/2000/svg" xmlns:xlink="http://www.w3.org/1999/xlink"><svg width="30" height="30" viewBox="0 0 30 30" id="_example" x="522" y="325" xmlns="http://www.w3.org/2000/svg"><g fill="none" fill-rule="evenodd"><path stroke="#FFF" stroke-width="2" d="M7 14.384V25h16V14.384l-8-8.89-8 8.89z"/><path fill="#FFF" fill-rule="nonzero" d="M16 23h-2v-6h2zm0-7h-2v-2h2z"/></g></svg><svg width="16" height="10" fill="none" viewBox="0 0 16 10" id="arrows" x="522" y="399" xmlns="http://www.w3.org/2000/svg"><path d="M15 5H1M11 9l4-4M11 1l4 4" stroke="#fff" stroke-width="2" stroke-linecap="round" stroke-linejoin="round"/></svg><svg width="8" height="6" fill="none" viewBox="0 0 8 6" id="chevrone" x="567" y="283" xmlns="http://www.w3.org/2000/svg"><path d="M1 1.5l2.293 2.293a1 1 0 0 0 1.414 0L7 1.5" stroke="currentColor" stroke-width="2" stroke-linecap="round"/></svg><svg width="88" height="88" fill="none" viewBox="0 0 88 88" id="circle" x="435" y="417" xmlns="http://www.w3.org/2000/svg"><circle cx="44" cy="44" r="44" fill="#378757"/></svg><svg width="58" height="56" fill="none" viewBox="0 0 58 56" id="circle-fourth" x="320" y="406" xmlns="http://www.w3.org/2000/svg"><ellipse cx="70" cy="70.5" rx="70" ry="70.5" fill="url(#epaint0_linear)"/><defs><linearGradient id="epaint0_linear" x1="21.117" y1="5.908" x2="111.847" y2="119.103" gradientUnits="userSpaceOnUse"><stop stop-color="#2C5B53"/><stop offset="1" stop-color="#1A413A"/></linearGradient></defs></svg><svg width="21" height="21" fill="none" viewBox="0 0 21 21" id="close" x="546" y="375" xmlns="http://www.w3.org/2000/svg"><path d="M19.515 1.515l-18 18m18 0l-18-18" stroke="#87B79A" stroke-width="2" stroke-linecap="round"/></svg><svg width="320" height="679" fill="none" viewBox="0 0 320 679" id="ellipse" xmlns="http://www.w3.org/2000/svg"><g opacity=".7" filter="url(#gfilter0_f)"><ellipse cx="60.5" cy="339.5" rx="176.5" ry="169.5" fill="url(#gpaint0_linear)"/></g><defs><filter id="gfilter0_f" x="-286" y="0" width="693" height="679" filterUnits="userSpaceOnUse" color-interpolation-filters="sRGB"><feFlood flood-opacity="0" result="BackgroundImageFix"/><feBlend in="SourceGraphic" in2="BackgroundImageFix" result="shape"/><feGaussianBlur stdDeviation="85" result="effect1_foregroundBlur"/></filter><linearGradient id="gpaint0_linear" x1="-85.809" y1="209.253" x2="166.235" y2="489.296" gradientUnits="userSpaceOnUse"><stop stop-color="#F4FFDF"/><stop offset="1" stop-color="#EEFAFF"/></linearGradient></defs></svg><svg width="88" height="88" fill="none" viewBox="0 0 88 88" id="flower" x="435" y="505" xmlns="http://www.w3.org/2000/svg"><path d="M2.023 0A2.029 2.029 0 0 0 0 2.035v41.71C0 68.188 19.7 88 44 88s44-19.813 44-44.254V2.035A2.029 2.029 0 0 0 85.977 0H66.83C54.222 0 44 10.221 44 22.83 44 10.221 33.78 0 21.17 0H2.023z" fill="#99BE56"/></svg><svg width="88" height="88" fill="none" viewBox="0 0 88 88" id="fourth-circle" x="320" y="177" xmlns="http://www.w3.org/2000/svg"><path d="M0 2.286A2.286 2.286 0 0 1 2.286 0H84a4 4 0 0 1 4 4v81.714A2.286 2.286 0 0 1 85.714 88C38.376 88 0 49.624 0 2.286z" fill="#378757"/></svg><svg width="115" height="177" fill="none" viewBox="0 0 115 177" id="green-oval" x="320" xmlns="http://www.w3.org/2000/svg"><rect width="115" height="177" rx="57.5" fill="#103E38"/></svg><svg width="88" height="48" fill="none" viewBox="0 0 88 48" id="half-circle" x="435" y="593" xmlns="http://www.w3.org/2000/svg"><path d="M0 .906C0 .406.405 0 .906 0h86.188c.5 0 .906.405.906.906V4c0 24.3-19.7 44-44 44S0 28.3 0 4V.906z" fill="#103E38"/></svg><svg width="24" height="24" fill="none" viewBox="0 0 24 24" id="input-close" x="522" y="375" xmlns="http://www.w3.org/2000/svg"><path d="M14.83 9.17l-5.66 5.66M14.83 14.83L9.17 9.17" stroke="#526E74" stroke-width="2" stroke-linecap="round" stroke-linejoin="round"/><path clip-rule="evenodd" d="M12 21v0a9 9 0 0 1-9-9v0a9 9 0 0 1 9-9v0a9 9 0 0 1 9 9v0a9 9 0 0 1-9 9z" stroke="#526E74" stroke-width="2" stroke-linecap="round" stroke-linejoin="round"/></svg><svg width="81" height="78" fill="none" viewBox="0 0 81 78" id="line-fourth" x="320" y="265" xmlns="http://www.w3.org/2000/svg"><circle opacity=".16" cx="93" cy="93" r="92" stroke="#378757" stroke-width="2"/></svg><svg width="28" height="20" fill="none" viewBox="0 0 28 20" id="logo" x="522" y="355" xmlns="http://www.w3.org/2000/svg"><path d="M3.43 20a.847.847 0 0 1-.67-.32C.763 17.127 0 13.854 0 10.286 0 6.424 1.665 2.909 3.992.277a.815.815 0 0 1 .914-.219c5.29 2.116 8.438 7.463 9.094 10.854.656-3.39 3.803-8.738 9.094-10.854a.815.815 0 0 1 .914.22C26.335 2.907 28 6.423 28 10.285c0 3.568-.763 6.841-2.76 9.394a.847.847 0 0 1-.67.32H20.72a.847.847 0 0 1-.745-.432 14.309 14.309 0 0 1-.724-4.384c-1.326 1.42-3.281 3.065-5.05 3.835a.43.43 0 0 1-.4 0c-1.769-.77-3.724-2.415-5.05-3.835 0 1.313-.219 2.846-.724 4.384a.847.847 0 0 1-.745.432H3.43z" fill="#378757"/></svg><svg width="141" height="141" fill="none" viewBox="0 0 141 141" id="logo-in-circle" x="435" y="142" xmlns="http://www.w3.org/2000/svg"><circle r="70.5" transform="matrix(-1 0 0 1 70.5 70.5)" fill="url(#opaint0_linear)"/><g filter="url(#ofilter0_dd)"><rect width="48.881" height="48.881" rx="24.441" transform="matrix(-1 0 0 1 96.04 47.117)" fill="#fff"/><path d="M80.601 80.37c.229 0 .447-.1.588-.277 1.753-2.215 2.422-5.053 2.422-8.149 0-3.35-1.461-6.399-3.504-8.681a.721.721 0 0 0-.802-.19c-4.644 1.835-7.406 6.473-7.982 9.415-.576-2.942-3.338-7.58-7.982-9.416a.721.721 0 0 0-.803.19c-2.042 2.283-3.504 5.332-3.504 8.682 0 3.096.67 5.934 2.423 8.149.14.178.359.278.587.278h3.381c.271 0 .523-.14.654-.375.444-1.335.636-2.664.636-3.803 1.163 1.232 2.88 2.658 4.432 3.327a.38.38 0 0 0 .352 0c1.552-.669 3.268-2.095 4.432-3.327 0 1.14.192 2.468.635 3.803.131.234.383.375.654.375h3.381z" fill="#378757"/></g><path fill-rule="evenodd" clip-rule="evenodd" d="M18.733 43.53C5.425 71.639 17.642 105.1 46.022 118.28c17.288 8.029 36.566 6.633 52.013-2.006a.61.61 0 0 0 .235-.835.623.623 0 0 0-.843-.232c-15.116 8.454-33.971 9.817-50.88 1.964-27.762-12.892-39.712-45.625-26.694-73.119 1.409-2.976 3.095-5.734 4.948-8.335a.609.609 0 0 0-.149-.854.622.622 0 0 0-.862.148c-1.886 2.648-3.612 5.468-5.057 8.52z" fill="url(#opaint1_linear)"/><path d="M90.818 113.896c4.137.884 8.21-1.769 9.099-5.926-.889 4.157 1.745 8.243 5.882 9.127-4.113-.879-8.164 1.739-9.084 5.855v-.001c.843-4.132-1.784-8.176-5.897-9.055z" fill="#99BE56"/><path fill-rule="evenodd" clip-rule="evenodd" d="M114.148 54.53a.595.595 0 0 0-.822.194l-2.827 4.597a.603.603 0 0 0 .193.826c.28.175.648.088.822-.194l2.05-3.332a42.03 42.03 0 0 1-1.158 20.792 41.814 41.814 0 0 1-12.07 18.646 41.442 41.442 0 0 1-19.872 9.77 41.31 41.31 0 0 1-22.039-1.875l-.413 1.127a42.499 42.499 0 0 0 22.672 1.929 42.632 42.632 0 0 0 20.443-10.051 43.018 43.018 0 0 0 12.417-19.182 43.238 43.238 0 0 0 1.173-21.48l3.372 2.099c.28.174.648.087.822-.195a.604.604 0 0 0-.194-.827l-4.569-2.845z" fill="url(#opaint2_linear)"/><defs><filter id="ofilter0_dd" x="36.158" y="42.117" width="102.881" height="111.881" filterUnits="userSpaceOnUse" color-interpolation-filters="sRGB"><feFlood flood-opacity="0" result="BackgroundImageFix"/><feColorMatrix in="SourceAlpha" values="0 0 0 0 0 0 0 0 0 0 0 0 0 0 0 0 0 0 127 0"/><feOffset dx="4" dy="7"/><feGaussianBlur stdDeviation="6"/><feColorMatrix values="0 0 0 0 0.372986 0 0 0 0 0.545833 0 0 0 0 0.48395 0 0 0 0.06 0"/><feBlend in2="BackgroundImageFix" result="effect1_dropShadow"/><feColorMatrix in="SourceAlpha" values="0 0 0 0 0 0 0 0 0 0 0 0 0 0 0 0 0 0 127 0"/><feOffset dx="16" dy="31"/><feGaussianBlur stdDeviation="13.5"/><feColorMatrix values="0 0 0 0 0.426562 0 0 0 0 0.5625 0 0 0 0 0.513831 0 0 0 0.04 0"/><feBlend in2="effect1_dropShadow" result="effect2_dropShadow"/><feBlend in="SourceGraphic" in2="effect2_dropShadow" result="shape"/></filter><linearGradient id="opaint0_linear" x1="0" y1="10.905" x2="141" y2="141" gradientUnits="userSpaceOnUse"><stop stop-color="#2D9060"/><stop offset="1" stop-color="#0B6B3E"/></linearGradient><linearGradient id="opaint1_linear" x1="64.615" y1="127.676" x2="22.114" y2="42.069" gradientUnits="userSpaceOnUse"><stop stop-color="#94BB44"/><stop offset="1" stop-color="#0E7847" stop-opacity="0"/></linearGradient><linearGradient id="opaint2_linear" x1="86.587" y1="55.04" x2="86.587" y2="107.144" gradientUnits="userSpaceOnUse"><stop stop-color="#94BB44"/><stop offset="1" stop-color="#94BB44" stop-opacity="0"/></linearGradient></defs></svg><svg width="18" height="14" fill="none" viewBox="0 0 18 14" id="mail" x="550" y="355" xmlns="http://www.w3.org/2000/svg"><path d="M15.563.125H2.437A2.19 2.19 0 0 0 .25 2.313v9.374a2.19 2.19 0 0 0 2.188 2.188h13.124a2.19 2.19 0 0 0 2.188-2.188V2.313A2.19 2.19 0 0 0 15.562.124zm-.554 3.618L9.384 8.118a.625.625 0 0 1-.768 0L2.991 3.743a.625.625 0 1 1 .768-.986L9 6.833l5.241-4.076a.625.625 0 0 1 .768.986z" fill="#fff"/></svg><svg width="63" height="63" fill="none" viewBox="0 0 63 63" id="main-button-circle" x="320" y="343" xmlns="http://www.w3.org/2000/svg"><rect width="63" height="63" rx="31.5" fill="#99BE56"/><path d="M38.613 31.5H24.387M33.532 36.58l5.08-5.08M33.532 26.42l5.08 5.08" stroke="#fff" stroke-width="1.5" stroke-linecap="round" stroke-linejoin="round"/></svg><svg width="142" height="142" fill="none" viewBox="0 0 142 142" id="main-button-ru" x="435" xmlns="http://www.w3.org/2000/svg"><path d="M131.11 82.518c3.679.558 6.242-1.307 6.693-4.284.452-2.99-1.447-5.524-5.126-6.08-3.674-.557-6.242 1.3-6.694 4.29-.45 2.977 1.447 5.517 5.127 6.074zm.26-1.719c-2.804-.425-4.102-2.138-3.803-4.116.3-1.983 2.046-3.23 4.849-2.805 2.803.424 4.102 2.132 3.802 4.116-.299 1.977-2.045 3.23-4.848 2.805zM124.169 87.45l-.649 1.52 6.676 2.856-1.492 3.496-6.677-2.856-.653 1.53 8.024 3.433 2.795-6.547-8.024-3.433zM117.868 94.448l-.922 1.427 3.887 2.516-.055.086c-.634-.045-1.789-.048-2.652 1.289-1.147 1.775-.558 3.983 1.812 5.518 2.376 1.537 4.618 1.134 5.762-.637.879-1.36.367-2.388.077-2.935l.077-.119 1.188.769.9-1.394-10.074-6.52zm5.507 5.548c1.531.991 2.116 2.316 1.311 3.562-.836 1.293-2.347 1.235-3.802.294-1.469-.951-2.159-2.345-1.335-3.619.792-1.227 2.286-1.235 3.826-.237zM112.989 106.891c-1.668 1.808-1.435 4.212.547 6.044 1.995 1.843 4.408 1.883 6.076.075 1.668-1.809 1.435-4.213-.559-6.056-1.983-1.832-4.396-1.872-6.064-.063zm1.044.972c1.09-1.182 2.629-.781 3.86.356 1.227 1.134 1.762 2.649.672 3.831-1.082 1.174-2.634.761-3.861-.373-1.231-1.137-1.754-2.641-.671-3.814zM106.273 113.528c-1.506 1.164-1.998 2.73-1.435 4.091l1.449-.755c-.261-.839.066-1.624.83-2.215 1.151-.89 2.5-.742 3.564.561l-4.907 3.797.368.477c1.928 2.495 4.173 2.317 5.737 1.107 1.923-1.488 2.058-3.935.419-6.057-1.657-2.145-3.99-2.581-6.025-1.006zm5.181 2.693c.704 1.022.65 2.421-.442 3.266-1.042.807-2.323.562-3.144-.491l3.586-2.775zM101.93 117.252l-1.49.816 1.673 3.061-.967.53-3.98-1.799-1.85 1.012 5.15 2.292-.93 5.348 1.844-1.01.772-4.594.718-.392 1.755 3.211 1.49-.816-4.185-7.659zM97.482 128.098l-2.687.974-2.472-6.827-1.56.566 2.473 6.827-2.676.971.499 1.378 6.922-2.511-.499-1.378zM82.947 125.011c-1.873.343-3.029 1.508-3.154 2.974l1.634-.004c.154-.866.805-1.412 1.755-1.586 1.43-.262 2.562.49 2.909 2.136l-6.104 1.117.109.593c.566 3.102 2.643 3.975 4.588 3.619 2.392-.438 3.636-2.548 3.154-5.186-.487-2.666-2.36-4.126-4.891-3.663zm3.367 4.773c.155 1.231-.535 2.449-1.893 2.698-1.297.237-2.322-.569-2.567-1.882l4.46-.816zM58.713 131.103c-.599 3.673 1.236 6.258 4.208 6.744 2.984.487 5.539-1.382 6.138-5.055.597-3.667-1.231-6.257-4.215-6.744-2.972-.485-5.533 1.382-6.131 5.055zm1.716.28c.456-2.798 2.184-4.076 4.157-3.754 1.98.323 3.207 2.084 2.751 4.882-.456 2.798-2.178 4.077-4.158 3.754-1.974-.322-3.207-2.083-2.75-4.882zM53.899 124.11l-1.513-.667-2.926 6.645-3.478-1.533 2.926-6.646-1.523-.672-3.517 7.987 6.514 2.873 3.517-7.987zM47.01 117.744l-1.416-.939-2.555 3.862-.086-.057c.052-.634.067-1.789-1.259-2.668-1.762-1.168-3.975-.604-5.533 1.751-1.562 2.36-1.183 4.608.574 5.773 1.35.895 2.383.393 2.932.11l.119.078-.781 1.18 1.383.917 6.622-10.007zm-5.602 5.448c-1.006 1.521-2.337 2.091-3.573 1.271-1.284-.851-1.21-2.363-.253-3.808.965-1.459 2.365-2.133 3.63-1.295 1.217.807 1.21 2.301.196 3.832zM34.7 112.778c-1.795-1.683-4.199-1.468-6.043.503-1.856 1.983-1.913 4.398-.118 6.08 1.794 1.683 4.198 1.468 6.054-.515 1.844-1.971 1.902-4.386.107-6.068zm-.979 1.037c1.173 1.1.762 2.637-.384 3.861-1.141 1.22-2.659 1.744-3.832.644-1.165-1.092-.741-2.642.4-3.861 1.145-1.224 2.651-1.736 3.816-.644zM28.153 106.023c-1.153-1.514-2.714-2.018-4.077-1.464l.743 1.455c.84-.255 1.622.078 2.207.846.88 1.158.722 2.508-.588 3.563l-3.756-4.938-.48.365c-2.508 1.912-2.346 4.16-1.149 5.734 1.473 1.935 3.916 2.088 6.049.462 2.156-1.643 2.61-3.974 1.05-6.023zm-2.73 5.167c-1.027.697-2.424.633-3.26-.466-.799-1.049-.544-2.329.514-3.142l2.746 3.608zM24.486 101.671l-.803-1.497-3.073 1.652-.521-.971 1.828-3.97-.997-1.858-2.33 5.137-5.337-.968.994 1.852 4.585.805.387.721-3.223 1.733.804 1.497 7.686-4.133zM13.627 97.043l-.943-2.698 6.854-2.4-.547-1.566-6.854 2.4-.939-2.688-1.384.484 2.43 6.952 1.383-.484zM16.89 82.64c-.328-1.874-1.483-3.039-2.949-3.175l-.009 1.634c.865.16 1.406.816 1.572 1.767.25 1.433-.51 2.558-2.159 2.893l-1.068-6.112-.593.104c-3.106.544-3.996 2.615-3.656 4.562.419 2.396 2.52 3.655 5.161 3.192 2.67-.467 4.144-2.329 3.7-4.864zm-4.8 3.333c-1.231.146-2.444-.553-2.681-1.913-.227-1.298.587-2.318 1.901-2.553l.78 4.466zM10.968 58.376c-3.669-.627-6.267 1.188-6.774 4.156-.51 2.98 1.34 5.55 5.008 6.178 3.663.626 6.266-1.182 6.775-4.162.507-2.968-1.341-5.544-5.01-6.172zm-.293 1.714c2.794.478 4.06 2.217 3.723 4.188-.338 1.977-2.107 3.19-4.902 2.712-2.794-.478-4.06-2.21-3.723-4.188.337-1.971 2.107-3.19 4.902-2.712zM17.936 53.704l.678-1.508-6.622-2.98 1.558-3.467 6.622 2.98.682-1.519-7.959-3.581-2.917 6.494 7.958 3.581zM24.312 46.862l.948-1.41-3.84-2.587.056-.085c.634.057 1.788.08 2.676-1.24 1.18-1.753.63-3.972-1.712-5.55-2.346-1.58-4.596-1.218-5.772.53-.903 1.345-.41 2.383-.13 2.934l-.08.118-1.173-.79-.926 1.376 9.953 6.704zm-5.405-5.648c-1.512-1.018-2.072-2.355-1.245-3.585.86-1.278 2.37-1.192 3.807-.224 1.451.977 2.115 2.383 1.269 3.642-.815 1.212-2.308 1.193-3.83.168zM29.5 34.376c1.7-1.778 1.511-4.186-.438-6.054-1.96-1.879-4.373-1.963-6.073-.185-1.7 1.778-1.512 4.186.45 6.065 1.948 1.867 4.36 1.951 6.06.174zm-1.026-.991c-1.112 1.162-2.643.733-3.854-.427-1.206-1.155-1.713-2.68-.602-3.842 1.104-1.154 2.648-.713 3.854.442 1.21 1.16 1.705 2.673.602 3.827zM36.233 27.929c1.527-1.137 2.047-2.694 1.51-4.065l-1.463.728c.245.845-.096 1.623-.87 2.2-1.167.87-2.514.696-3.554-.626l4.976-3.707-.36-.483c-1.881-2.53-4.13-2.393-5.715-1.212-1.95 1.453-2.13 3.897-.53 6.049 1.617 2.175 3.942 2.653 6.006 1.116zm-5.132-2.788c-.684-1.034-.605-2.432.502-3.257 1.057-.788 2.333-.52 3.134.549l-3.636 2.708zM40.648 24.251l1.505-.788-1.616-3.092.977-.51 3.946 1.871 1.868-.978-5.107-2.386 1.03-5.33-1.863.975-.858 4.579-.725.38-1.694-3.243-1.505.788 4.042 7.734zM45.236 13.484l2.705-.924 2.343 6.873 1.57-.536-2.343-6.873 2.693-.92-.473-1.388-6.968 2.38.473 1.388zM59.887 16.778c1.879-.307 3.057-1.45 3.21-2.913l-1.634-.027c-.17.862-.832 1.396-1.785 1.552-1.435.234-2.552-.54-2.867-2.192l6.123-1-.096-.594c-.508-3.112-2.568-4.025-4.52-3.707-2.4.392-3.682 2.478-3.251 5.125.436 2.675 2.28 4.17 4.82 3.756zm-3.275-4.837c-.132-1.234.581-2.438 1.944-2.66 1.3-.213 2.31.613 2.53 1.93l-4.474.73zM83.818 11.043c.655-3.663-1.14-6.276-4.105-6.806-2.975-.532-5.56 1.297-6.215 4.96-.654 3.658 1.135 6.276 4.11 6.808 2.965.53 5.554-1.298 6.21-4.962zm-1.712-.306c-.5 2.791-2.247 4.043-4.215 3.69-1.975-.353-3.175-2.131-2.675-4.922.499-2.791 2.24-4.044 4.215-3.69 1.969.351 3.174 2.131 2.675 4.922zM88.808 18.154l1.5.695 3.05-6.59 3.448 1.599-3.05 6.59 1.511.7 3.665-7.92-6.46-2.994-3.664 7.92zM95.59 24.63l1.4.964 2.625-3.814.084.058c-.063.633-.1 1.788 1.21 2.691 1.74 1.2 3.963.676 5.565-1.65 1.604-2.33 1.266-4.585-.469-5.782-1.333-.92-2.375-.437-2.929-.164l-.117-.08.802-1.166-1.366-.941-6.804 9.884zm5.701-5.345c1.035-1.502 2.376-2.048 3.596-1.206 1.268.874 1.166 2.385.184 3.812-.993 1.442-2.405 2.09-3.653 1.229-1.203-.83-1.167-2.323-.127-3.835zM107.765 29.748c1.764 1.715 4.171 1.543 6.051-.393 1.891-1.95 1.993-4.363.229-6.078-1.764-1.715-4.172-1.543-6.063.406-1.88 1.937-1.981 4.35-.217 6.065zm.997-1.02c-1.153-1.12-.713-2.65.454-3.853 1.163-1.199 2.69-1.695 3.843-.575 1.145 1.113.694 2.656-.47 3.854-1.167 1.203-2.682 1.687-3.827.575zM114.386 36.82c1.119 1.54 2.669 2.078 4.045 1.554l-.712-1.471c-.846.237-1.62-.113-2.188-.895-.855-1.176-.667-2.522.666-3.549l3.647 5.02.487-.355c2.55-1.856 2.437-4.108 1.275-5.707-1.43-1.967-3.869-2.173-6.037-.595-2.191 1.595-2.696 3.917-1.183 5.999zm2.843-5.105c1.041-.674 2.437-.58 3.249.537.775 1.066.493 2.34-.583 3.13l-2.666-3.667zM117.845 41.03l.776 1.512 3.103-1.596.503.981-1.902 3.936.963 1.875 2.425-5.093 5.318 1.067-.959-1.87-4.57-.89-.374-.728 3.255-1.673-.776-1.511-7.762 3.99zM128.59 45.752l.902 2.711-6.889 2.296.524 1.574 6.889-2.295.898 2.7 1.391-.463-2.324-6.987-1.391.464zM125.171 60.354c.291 1.881 1.424 3.068 2.887 3.231l.04-1.633c-.861-.177-1.39-.842-1.538-1.796-.223-1.438.559-2.548 2.214-2.852l.951 6.132.595-.093c3.116-.484 4.046-2.537 3.743-4.491-.373-2.403-2.449-3.702-5.099-3.29-2.678.416-4.188 2.249-3.793 4.792zm4.862-3.24c1.234-.122 2.433.6 2.645 1.964.202 1.303-.632 2.306-1.95 2.517l-.695-4.48z" fill="#99BE56"/></svg><svg width="60" height="15" fill="none" viewBox="0 0 60 15" id="myrtus" x="435" y="641" xmlns="http://www.w3.org/2000/svg"><path d="M10.787 11.64l-.017-6.984-3.488 5.754H6.045L2.574 4.806v6.835H0V0h2.27l4.436 7.234L11.075 0h2.252l.034 11.64h-2.574zM25.03 2.694l-4.115 9.496c-.418 1.03-.937 1.757-1.558 2.178-.61.421-1.35.632-2.218.632-.474 0-.943-.072-1.406-.216-.463-.144-.84-.344-1.135-.599l.966-1.846a2.301 2.301 0 0 0 1.49.566c.361 0 .655-.089.88-.266.226-.167.43-.45.61-.848l.034-.084-3.946-9.013h2.727l2.557 6.07 2.574-6.07h2.54zM28.631 3.875c.316-.433.74-.76 1.27-.981.542-.222 1.163-.333 1.863-.333v2.395a9.706 9.706 0 0 0-.593-.034c-.756 0-1.349.211-1.778.632-.429.41-.643 1.031-.643 1.863v4.224h-2.642V2.694h2.523v1.18zM39.525 11.208c-.26.189-.581.333-.965.433a5.105 5.105 0 0 1-1.186.133c-1.083 0-1.924-.272-2.523-.815-.587-.543-.88-1.341-.88-2.395V4.89h-1.406V2.894h1.406V.715h2.641v2.179h2.27v1.995h-2.27v3.642c0 .377.096.67.288.881.203.2.486.3.847.3.418 0 .773-.111 1.067-.333l.711 1.83zM50.186 2.694v8.947H47.68v-1.065c-.35.388-.768.688-1.253.899a4.1 4.1 0 0 1-1.575.299c-1.197 0-2.145-.338-2.845-1.015-.7-.676-1.05-1.68-1.05-3.01V2.694H43.6v4.673c0 1.441.615 2.162 1.846 2.162.632 0 1.14-.2 1.524-.599.384-.41.576-1.014.576-1.812V2.694h2.641zM55.699 11.774a9.273 9.273 0 0 1-2.219-.266c-.722-.189-1.298-.421-1.727-.699l.88-1.862c.407.255.898.465 1.474.632a6.49 6.49 0 0 0 1.693.233c1.118 0 1.677-.272 1.677-.815 0-.255-.153-.438-.457-.55-.305-.11-.774-.204-1.406-.282a13.78 13.78 0 0 1-1.846-.382 2.932 2.932 0 0 1-1.27-.765c-.35-.366-.525-.887-.525-1.563 0-.566.164-1.065.491-1.497.339-.444.824-.787 1.457-1.031.643-.244 1.4-.366 2.269-.366.643 0 1.281.072 1.913.216.644.133 1.175.322 1.592.566l-.88 1.845a5.332 5.332 0 0 0-2.625-.665c-.565 0-.988.078-1.27.233-.282.155-.424.355-.424.599 0 .277.153.47.458.582.304.11.79.216 1.456.316.745.122 1.355.255 1.829.399a2.69 2.69 0 0 1 1.236.748c.35.366.525.876.525 1.53 0 .554-.17 1.048-.508 1.48-.339.433-.835.77-1.49 1.015-.644.232-1.411.349-2.303.349z" fill="#fff"/></svg><svg width="87" height="134" fill="none" viewBox="0 0 87 134" id="oval" x="435" y="283" xmlns="http://www.w3.org/2000/svg"><rect width="87" height="134" rx="43.5" fill="#99BE56"/></svg><svg width="45" height="42" fill="none" viewBox="0 0 45 42" id="oval-half" x="522" y="283" xmlns="http://www.w3.org/2000/svg"><path d="M45 41.208a.792.792 0 0 1-.792.792H.792A.792.792 0 0 1 0 41.208V22.5C0 10.074 10.074 0 22.5 0S45 10.074 45 22.5v18.708z" fill="#99BE56"/></svg><svg width="24" height="27" fill="none" viewBox="0 0 24 27" id="star" x="552" y="325" xmlns="http://www.w3.org/2000/svg"><path d="M0 13.436c6.627 0 12 6.073 12 13.564 0-7.491 5.373-13.564 12-13.564-6.59 0-11.939-6.004-12-13.436-.061 7.432-5.41 13.436-12 13.436z" fill="#378757"/></svg></svg>