<?xml version="1.0" encoding="utf-8"?><svg width="525" height="679" viewBox="0 0 525 679" xmlns="http://www.w3.org/2000/svg" xmlns:xlink="http://www.w3.org/1999/xlink"><svg width="30" height="30" viewBox="0 0 30 30" id="_example" x="462" y="63" xmlns="http://www.w3.org/2000/svg"><g fill="none" fill-rule="evenodd"><path stroke="#FFF" stroke-width="2" d="M7 14.384V25h16V14.384l-8-8.89-8 8.89z"/><path fill="#FFF" fill-rule="nonzero" d="M16 23h-2v-6h2zm0-7h-2v-2h2z"/></g></svg><svg width="90" height="26" fill="none" viewBox="0 0 90 26" id="app-store" x="320" y="300" xmlns="http://www.w3.org/2000/svg"><path d="M13.318 14.1a4.22 4.22 0 0 1 .58-2.076c.37-.634.9-1.166 1.54-1.548a4.516 4.516 0 0 0-1.566-1.353 4.669 4.669 0 0 0-2.025-.53c-1.512-.154-2.977.877-3.747.877-.785 0-1.971-.862-3.248-.836a4.892 4.892 0 0 0-2.336.676 4.706 4.706 0 0 0-1.69 1.705c-1.74 2.922-.442 7.218 1.226 9.58.834 1.157 1.809 2.45 3.084 2.404 1.249-.05 1.715-.772 3.222-.772 1.493 0 1.93.772 3.232.743 1.34-.021 2.183-1.162 2.988-2.33a9.453 9.453 0 0 0 1.367-2.7 4.276 4.276 0 0 1-1.91-1.536 4.085 4.085 0 0 1-.717-2.303zM10.86 7.039a4.169 4.169 0 0 0 1.002-3.047 4.508 4.508 0 0 0-2.887 1.449c-.362.4-.639.864-.815 1.367a3.934 3.934 0 0 0-.214 1.567 3.786 3.786 0 0 0 1.615-.343c.505-.232.948-.571 1.298-.993zM29.098 20.07h-4.26L23.814 23H22.01l4.035-10.84h1.875L31.955 23H30.12l-1.022-2.93zm-3.82-1.352h3.378l-1.665-4.755h-.047l-1.665 4.755zM40.67 19.049c0 2.456-1.356 4.034-3.401 4.034a2.834 2.834 0 0 1-1.487-.334 2.722 2.722 0 0 1-1.077-1.05h-.039v3.915h-1.672V15.097h1.619v1.315h.03a2.85 2.85 0 0 1 1.099-1.047 2.964 2.964 0 0 1 1.496-.35c2.068 0 3.431 1.585 3.431 4.034zm-1.72 0c0-1.6-.852-2.652-2.153-2.652-1.278 0-2.138 1.074-2.138 2.652 0 1.592.86 2.659 2.138 2.659 1.3 0 2.153-1.045 2.153-2.66zM49.638 19.049c0 2.456-1.356 4.034-3.4 4.034a2.833 2.833 0 0 1-1.487-.334 2.722 2.722 0 0 1-1.078-1.05h-.038v3.915h-1.673V15.097h1.62v1.315h.03a2.85 2.85 0 0 1 1.098-1.047 2.963 2.963 0 0 1 1.496-.35c2.069 0 3.432 1.585 3.432 4.034zm-1.72 0c0-1.6-.852-2.652-2.153-2.652-1.278 0-2.137 1.074-2.137 2.652 0 1.592.86 2.659 2.137 2.659 1.301 0 2.154-1.045 2.154-2.66zM55.565 19.98c.124 1.075 1.2 1.78 2.672 1.78 1.41 0 2.424-.705 2.424-1.675 0-.841-.612-1.345-2.06-1.69l-1.449-.338c-2.052-.481-3.005-1.412-3.005-2.922 0-1.87 1.68-3.155 4.067-3.155 2.362 0 3.98 1.284 4.035 3.154h-1.688c-.101-1.081-1.023-1.734-2.37-1.734-1.348 0-2.27.66-2.27 1.622 0 .766.589 1.217 2.03 1.562l1.23.294c2.294.526 3.247 1.419 3.247 3.005 0 2.027-1.666 3.297-4.315 3.297-2.478 0-4.152-1.24-4.26-3.2h1.712zM66.037 13.227v1.87h1.55v1.285h-1.55v4.356c0 .677.31.993.992.993a5.38 5.38 0 0 0 .55-.038v1.277c-.306.056-.618.08-.93.075-1.649 0-2.292-.6-2.292-2.134v-4.53h-1.185v-1.284h1.185v-1.87h1.68zM68.484 19.049c0-2.487 1.51-4.05 3.865-4.05 2.362 0 3.865 1.563 3.865 4.05 0 2.493-1.495 4.049-3.865 4.049s-3.865-1.556-3.865-4.05zm6.026 0c0-1.706-.806-2.712-2.161-2.712-1.356 0-2.16 1.014-2.16 2.712 0 1.712.804 2.712 2.16 2.712 1.355 0 2.16-1 2.16-2.712zM77.593 15.097h1.595v1.345h.039c.108-.42.362-.791.719-1.051.357-.26.795-.393 1.241-.377.193 0 .385.02.573.06v1.518a2.406 2.406 0 0 0-.752-.098 1.733 1.733 0 0 0-.71.122c-.224.09-.427.226-.592.398-.166.173-.29.379-.367.603a1.587 1.587 0 0 0-.073.695V23h-1.673v-7.903zM89.472 20.679c-.225 1.434-1.666 2.419-3.51 2.419-2.37 0-3.84-1.54-3.84-4.012 0-2.478 1.478-4.086 3.77-4.086 2.255 0 3.673 1.502 3.673 3.898v.556H83.81v.098a2 2 0 0 0 .11.86c.099.275.257.527.465.739.207.212.459.378.737.488.279.11.579.162.88.151a1.89 1.89 0 0 0 1.13-.253c.34-.2.603-.501.751-.858h1.589zm-5.654-2.359h4.073a1.848 1.848 0 0 0-.12-.769 1.894 1.894 0 0 0-.427-.657 1.964 1.964 0 0 0-.663-.437c-.25-.1-.518-.148-.788-.143a2.12 2.12 0 0 0-.795.15 2.07 2.07 0 0 0-.674.434 1.998 1.998 0 0 0-.45.652 1.949 1.949 0 0 0-.157.77zM25.5.898a2.534 2.534 0 0 1 2.028.79 2.55 2.55 0 0 1 .676 2.073c0 1.841-.992 2.9-2.703 2.9h-2.076V.897h2.076zm-1.182 4.948H25.4a1.802 1.802 0 0 0 1.834-1.277c.08-.258.1-.53.06-.796a1.822 1.822 0 0 0-1.113-1.93 1.806 1.806 0 0 0-.781-.13h-1.083v4.133zM29.212 4.484a2.064 2.064 0 0 1 1.214-2.08 2.049 2.049 0 0 1 2.78 1.234c.09.272.122.56.095.846a2.066 2.066 0 0 1-1.212 2.084 2.05 2.05 0 0 1-2.782-1.236 2.066 2.066 0 0 1-.095-.848zm3.21 0c0-.942-.423-1.494-1.164-1.494-.744 0-1.162.552-1.162 1.494 0 .95.418 1.497 1.162 1.497.74 0 1.163-.55 1.163-1.497zM38.737 6.66h-.888l-.896-3.202h-.068l-.892 3.202h-.88L33.92 2.312h.868l.776 3.318h.064l.892-3.318h.82l.892 3.318h.068l.773-3.318h.855l-1.19 4.348zM40.932 2.312h.824v.69h.064a1.3 1.3 0 0 1 1.294-.774 1.406 1.406 0 0 1 1.452.99c.063.203.08.417.048.627V6.66h-.855v-2.6c0-.698-.303-1.046-.936-1.046a.992.992 0 0 0-.989.678 1 1 0 0 0-.046.424V6.66h-.856V2.312zM45.978.614h.856V6.66h-.856V.614zM48.023 4.484a2.066 2.066 0 0 1 1.214-2.08 2.049 2.049 0 0 1 2.35.498 2.06 2.06 0 0 1 .526 1.582 2.068 2.068 0 0 1-.524 1.585 2.055 2.055 0 0 1-2.353.499 2.055 2.055 0 0 1-1.118-1.236 2.066 2.066 0 0 1-.095-.848zm3.21 0c0-.942-.423-1.493-1.164-1.493-.744 0-1.162.55-1.162 1.493 0 .95.418 1.497 1.162 1.497.74 0 1.163-.55 1.163-1.497zM53.014 5.43c0-.782.58-1.233 1.612-1.297l1.175-.068v-.376c0-.459-.303-.718-.888-.718-.478 0-.809.176-.904.483h-.828c.087-.747.788-1.226 1.771-1.226 1.087 0 1.7.543 1.7 1.461V6.66h-.823v-.61h-.068a1.46 1.46 0 0 1-1.302.682 1.306 1.306 0 0 1-1.33-.769 1.316 1.316 0 0 1-.115-.532zm2.787-.37v-.364l-1.06.067c-.596.04-.867.244-.867.628 0 .391.338.619.804.619a1.02 1.02 0 0 0 1.123-.95zM57.777 4.484c0-1.374.704-2.244 1.8-2.244a1.425 1.425 0 0 1 1.33.763h.063V.614h.856V6.66h-.82v-.687h-.068a1.507 1.507 0 0 1-1.361.759c-1.103 0-1.8-.87-1.8-2.248zm.884 0c0 .922.433 1.477 1.158 1.477.721 0 1.167-.563 1.167-1.473 0-.906-.45-1.477-1.167-1.477-.72 0-1.158.558-1.158 1.473zM65.366 4.484a2.064 2.064 0 0 1 1.214-2.08 2.049 2.049 0 0 1 2.78 1.234c.09.272.123.56.095.846a2.068 2.068 0 0 1-.523 1.584 2.055 2.055 0 0 1-2.353.5 2.054 2.054 0 0 1-1.118-1.236 2.066 2.066 0 0 1-.095-.848zm3.21 0c0-.942-.423-1.494-1.164-1.494-.744 0-1.162.552-1.162 1.494 0 .95.418 1.497 1.162 1.497.741 0 1.163-.55 1.163-1.497zM70.603 2.312h.824v.69h.064a1.3 1.3 0 0 1 1.294-.774 1.406 1.406 0 0 1 1.452.99c.063.203.08.417.048.627V6.66h-.855v-2.6c0-.698-.303-1.046-.936-1.046a.992.992 0 0 0-.989.678 1 1 0 0 0-.046.424V6.66h-.856V2.312zM79.12 1.229v1.102h.94v.723h-.94V5.29c0 .456.187.655.613.655.11 0 .218-.007.326-.02v.715c-.153.028-.309.043-.465.044-.952 0-1.33-.336-1.33-1.174V3.054h-.689v-.723h.688V1.23h.857zM81.228.614h.848v2.397h.068a1.337 1.337 0 0 1 1.322-.78 1.424 1.424 0 0 1 1.44 1c.063.2.081.413.053.622V6.66h-.856V4.064c0-.694-.323-1.046-.927-1.046a1.01 1.01 0 0 0-1.036.667c-.05.14-.07.288-.056.436v2.54h-.856V.613zM89.948 5.486a1.765 1.765 0 0 1-1.878 1.258 1.964 1.964 0 0 1-1.52-.657 1.976 1.976 0 0 1-.483-1.587 2.011 2.011 0 0 1 1.167-2.098c.262-.117.545-.177.832-.174 1.206 0 1.934.827 1.934 2.192v.3h-3.061v.048a1.153 1.153 0 0 0 .69 1.152c.146.063.304.095.464.093a1.036 1.036 0 0 0 1.032-.527h.823zm-3.01-1.401h2.19a1.051 1.051 0 0 0-1.067-1.127 1.106 1.106 0 0 0-1.041.694 1.116 1.116 0 0 0-.082.433z" fill="#5E5E5E"/></svg><svg width="8" height="6" fill="none" viewBox="0 0 8 6" id="chevrone" x="492" y="83" xmlns="http://www.w3.org/2000/svg"><path d="M1 1.5l2.293 2.293a1 1 0 0 0 1.414 0L7 1.5" stroke="#526E74" stroke-width="2" stroke-linecap="round"/></svg><svg width="88" height="88" fill="none" viewBox="0 0 88 88" id="circle" x="320" y="326" xmlns="http://www.w3.org/2000/svg"><circle cx="44" cy="44" r="44" fill="#378757"/></svg><svg width="21" height="21" fill="none" viewBox="0 0 21 21" id="close" x="486" y="93" xmlns="http://www.w3.org/2000/svg"><path d="M19.515 1.515l-18 18m18 0l-18-18" stroke="#87B79A" stroke-width="2" stroke-linecap="round"/></svg><svg width="320" height="679" fill="none" viewBox="0 0 320 679" id="ellipse" xmlns="http://www.w3.org/2000/svg"><g opacity=".7" filter="url(#ffilter0_f)"><ellipse cx="60.5" cy="339.5" rx="176.5" ry="169.5" fill="url(#fpaint0_linear)"/></g><defs><filter id="ffilter0_f" x="-286" y="0" width="693" height="679" filterUnits="userSpaceOnUse" color-interpolation-filters="sRGB"><feFlood flood-opacity="0" result="BackgroundImageFix"/><feBlend in="SourceGraphic" in2="BackgroundImageFix" result="shape"/><feGaussianBlur stdDeviation="85" result="effect1_foregroundBlur"/></filter><linearGradient id="fpaint0_linear" x1="-85.809" y1="209.253" x2="166.235" y2="489.296" gradientUnits="userSpaceOnUse"><stop stop-color="#F4FFDF"/><stop offset="1" stop-color="#EEFAFF"/></linearGradient></defs></svg><svg width="88" height="88" fill="none" viewBox="0 0 88 88" id="flower" x="320" y="414" xmlns="http://www.w3.org/2000/svg"><path d="M2.023 0A2.029 2.029 0 0 0 0 2.035v41.71C0 68.188 19.7 88 44 88s44-19.813 44-44.254V2.035A2.029 2.029 0 0 0 85.977 0H66.83C54.222 0 44 10.221 44 22.83 44 10.221 33.78 0 21.17 0H2.023z" fill="#99BE56"/></svg><svg width="88" height="88" fill="none" viewBox="0 0 88 88" id="fourth-circle" x="320" y="502" xmlns="http://www.w3.org/2000/svg"><path d="M0 2.286A2.286 2.286 0 0 1 2.286 0H84a4 4 0 0 1 4 4v81.714A2.286 2.286 0 0 1 85.714 88C38.376 88 0 49.624 0 2.286z" fill="#378757"/></svg><svg width="108" height="24" fill="none" viewBox="0 0 108 24" id="google-play" x="320" y="276" xmlns="http://www.w3.org/2000/svg"><path d="M92.137 20.418h-1.74V9.432h1.74v10.986zM104.072 18.152l1.994-4.763H108l-4.782 10.36h-1.815l1.769-3.702-3.104-6.658h1.874l2.07 4.763h.06z" fill="#5E5E5E"/><path fill-rule="evenodd" clip-rule="evenodd" d="M93.307 14.831c.54-1.159 1.844-1.682 3.103-1.682 1.994 0 3.538 1.089 3.538 3.039V20.4H98.27v-.848h-.06c-.405.58-1.05 1.074-2.22 1.074-1.528 0-2.893-.947-2.893-2.417 0-1.611 1.695-2.473 3.359-2.473.825 0 1.5.254 1.814.424v-.113c-.015-.905-.93-1.414-1.829-1.414-.645 0-1.26.198-1.59.806l-1.543-.608zm1.529 3.406c0 .665.794.933 1.364.933 1.004 0 1.934-.72 2.07-1.738-.466-.212-.825-.368-1.59-.368-.854 0-1.844.325-1.844 1.173zM81.446 9.432h4.168c1.928 0 3.824 1.316 3.824 3.412s-1.896 3.412-3.824 3.412h-2.43v4.162h-1.738V9.432zm1.739 5.295h2.474c1.3 0 2.04-1.032 2.04-1.883 0-.868-.74-1.883-2.04-1.883h-2.474v3.766zM64.822 14.005h.06v-.609h1.652v6.71c0 2.761-1.727 3.894-3.77 3.894-1.922 0-3.079-1.218-3.514-2.209l1.517-.594c.27.608.931 1.33 1.997 1.33 1.307 0 2.118-.764 2.118-2.194v-.538h-.06c-.39.453-1.142.85-2.088.85-1.982 0-3.8-1.629-3.8-3.724 0-2.11 1.818-3.752 3.8-3.752.946 0 1.698.397 2.088.836zm-4.145 2.916c0 1.303 1.006 2.251 2.208 2.251 1.186 0 2.117-.948 2.117-2.251 0-1.316-.93-2.28-2.117-2.28-1.202 0-2.208.964-2.208 2.28z" fill="#5E5E5E"/><path d="M69.478 20.418h-1.742V9.432h1.742v10.986z" fill="#5E5E5E"/><path fill-rule="evenodd" clip-rule="evenodd" d="M74.059 13.17c2.057 0 3.064 1.542 3.394 2.378l.18.425-5.301 2.067c.405.75 1.036 1.132 1.922 1.132.886 0 1.502-.41 1.953-1.033l1.352.85a4 4 0 0 1-3.305 1.655c-2.253 0-3.935-1.642-3.935-3.737 0-2.223 1.697-3.738 3.74-3.738zm.06 1.444c-.886 0-2.118.736-2.073 2.18l3.545-1.388c-.195-.467-.78-.793-1.472-.793z" fill="#5E5E5E"/><path d="M35.214 15.902v-1.586h5.662c.06.284.09.623.09.991 0 1.19-.346 2.662-1.457 3.71-1.081 1.061-2.463 1.628-4.295 1.628-3.395 0-6.249-2.605-6.249-5.805 0-3.2 2.854-5.805 6.249-5.805 1.877 0 3.214.694 4.22 1.6l-1.187 1.119c-.72-.637-1.697-1.133-3.033-1.133-2.479 0-4.416 1.883-4.416 4.22 0 2.335 1.937 4.218 4.416 4.218 1.607 0 2.523-.609 3.108-1.161.481-.453.796-1.104.917-1.996h-4.025z" fill="#5E5E5E"/><path fill-rule="evenodd" clip-rule="evenodd" d="M41.562 16.907c0-2.166 1.787-3.738 3.98-3.738s3.98 1.572 3.98 3.738c0 2.152-1.787 3.738-3.98 3.738s-3.98-1.586-3.98-3.738zm1.742 0a2.223 2.223 0 0 0 2.238 2.265 2.223 2.223 0 0 0 2.238-2.265c0-1.345-1.037-2.265-2.238-2.265-1.202 0-2.238.92-2.238 2.265zM50.245 16.907c0-2.166 1.787-3.738 3.98-3.738 2.192 0 3.98 1.572 3.98 3.738 0 2.152-1.788 3.738-3.98 3.738-2.193 0-3.98-1.586-3.98-3.738zm1.742 0a2.223 2.223 0 0 0 2.238 2.265 2.223 2.223 0 0 0 2.237-2.265c0-1.345-1.036-2.265-2.237-2.265-1.202 0-2.238.92-2.238 2.265z" fill="#5E5E5E"/><path d="M35.003 3.056c0-.133-.013-.27-.04-.413l-.014-.072h-2.882v.809h2.02c-.052.395-.197.697-.43.918-.401.376-.893.561-1.497.563a2.097 2.097 0 0 1-1.463-.561c-.41-.375-.615-.853-.616-1.458.001-.604.205-1.083.616-1.457.415-.376.896-.56 1.463-.56.63 0 1.106.197 1.46.594l.066.073.623-.589-.055-.061a2.396 2.396 0 0 0-.909-.614A3.135 3.135 0 0 0 32.16 0c-.829 0-1.544.274-2.124.817a2.663 2.663 0 0 0-.875 2.025c-.001.8.292 1.483.875 2.026.58.543 1.295.817 2.124.816.863.001 1.58-.27 2.122-.807.482-.455.721-1.069.72-1.82zM39.3.118h-3.452v5.449H39.3v-.824h-2.547V3.247h2.297v-.809h-2.297V.942H39.3V.118zM42.331 5.567V.942h1.563V.118h-4.03v.824h1.562v4.625h.905zM47.393 5.567V.118h-.905v5.449h.905zM50.581 5.567V.942h1.563V.118h-4.03v.824h1.562v4.625h.905z" fill="#5E5E5E"/><path fill-rule="evenodd" clip-rule="evenodd" d="M59.394 4.858a2.707 2.707 0 0 0 .85-2.016c.001-.785-.286-1.463-.853-2.012C58.822.278 58.11 0 57.276 0c-.839 0-1.553.277-2.117.826a2.703 2.703 0 0 0-.85 2.016c-.001.79.284 1.47.85 2.017.564.55 1.278.826 2.117.825.839.001 1.553-.276 2.118-.826zm-3.571-.564c-.396-.38-.593-.856-.594-1.452 0-.595.198-1.072.594-1.451.399-.38.876-.566 1.453-.567.577.001 1.055.187 1.453.567.397.38.594.856.595 1.451 0 .596-.198 1.073-.595 1.452-.398.38-.876.565-1.453.567-.577-.002-1.054-.188-1.453-.567z" fill="#5E5E5E"/><path d="M61.067 5.567h.904V2.193l-.022-.741 2.722 4.115h.895V.118h-.906v3.175l.023.743L62.086.118h-1.02v5.449z" fill="#5E5E5E"/><path d="M.5 22.518l-.069-.063c-.27-.27-.431-.69-.431-1.234v.128V1.914v.128C0 1.453.187 1.01.5.743l11.55 10.888L.5 22.518z" fill="url(#ipaint0_linear)"/><path d="M15.901 15.261l-3.85-3.63L15.9 8l4.648 2.49c.59.316.922.723.977 1.14v.001c-.055.416-.386.823-.977 1.14l-4.648 2.49z" fill="url(#ipaint1_linear)"/><path d="M1.325 22.804c-.323 0-.605-.1-.824-.286l11.55-10.887 3.85 3.63L2.37 22.51c-.374.2-.73.295-1.044.295zm-.827-.16a1.216 1.216 0 0 1-.06-.055l.06.055z" fill="url(#ipaint2_linear)"/><path d="M12.05 11.63L.5.744c.22-.186.5-.285.823-.285.316 0 .67.095 1.046.295L15.9 8.001l-3.85 3.63zM2.37.626C1.994.425 1.639.33 1.323.33h-.004.005c.315 0 .67.096 1.045.296z" fill="url(#ipaint3_linear)"/><path d="M1.41 22.93c.293-.015.618-.11.96-.293L15.9 15.39 2.37 22.637c-.342.183-.667.278-.96.293zm-.91-.283l-.002-.002.003.002zm-.062-.058l-.006-.005.006.005z" fill="#fff"/><path d="M15.9 15.39l.088-.047-.088.047z" fill="url(#ipaint4_linear)"/><path d="M1.325 22.933c-.323 0-.605-.1-.824-.286l-.003-.002-.06-.056-.006-.005.069-.066c.22.187.501.286.824.286.315 0 .67-.095 1.044-.295l13.532-7.248.087.082-.088.047-13.53 7.247a2.325 2.325 0 0 1-.96.294 1.892 1.892 0 0 1-.085.002z" fill="url(#ipaint5_linear)"/><path d="M.431 22.584c-.27-.27-.431-.69-.431-1.235 0 .544.16.964.431 1.235z" fill="#fff"/><path d="M.431 22.583c-.27-.27-.431-.69-.431-1.234v-.128c0 .544.16.964.431 1.234l.07.063-.07.065z" fill="url(#ipaint6_linear)"/><path d="M.432 22.583l.069-.065-.07.065z" fill="url(#ipaint7_linear)"/><path d="M21.419 12.085a1.038 1.038 0 0 1 0 0z" fill="#fff"/><path d="M15.988 15.343l-.087-.082 4.648-2.49c.59-.316.922-.723.977-1.139 0 .153-.036.305-.107.453-.145.3-.435.582-.87.815l-4.561 2.443z" fill="url(#ipaint8_linear)"/><path d="M21.527 11.63c0-.46-.326-.919-.977-1.268L15.988 7.92l4.562 2.443c.651.349.978.81.977 1.269z" fill="#5E5E5E"/><path d="M21.527 11.63c-.056-.416-.387-.823-.978-1.14l-4.648-2.489.087-.082 4.561 2.443c.651.35.977.809.978 1.268z" fill="url(#ipaint9_linear)"/><path d="M0 1.91v-.002.001zm.004-.143v-.003.002zm0-.005v-.004.004zm0-.005C.058.854.58.333 1.316.33.996.332.718.43.5.615L.498.618.43.679c-.244.244-.399.61-.427 1.078z" fill="#5E5E5E"/><path d="M0 2.042v-.128-.005c0-.05.001-.097.004-.143v-.002-.002-.004-.001C.032 1.288.187.923.431.679L.5.743c-.313.266-.5.71-.5 1.3zM.498.617L.5.615.498.617z" fill="url(#ipaint10_linear)"/><path d="M15.9 8.001L2.37.754c-.376-.2-.731-.296-1.047-.296C1 .458.719.557.5.743L.432.68C.453.658.475.637.498.617L.5.615C.718.43.997.331 1.316.33h.007c.316 0 .67.095 1.046.295L15.988 7.92l-.087.082z" fill="url(#ipaint11_linear)"/><defs><linearGradient id="ipaint0_linear" x1="11.026" y1="1.709" x2="-3.696" y2="17.327" gradientUnits="userSpaceOnUse"><stop stop-color="#00A0FF"/><stop offset=".007" stop-color="#00A1FF"/><stop offset=".26" stop-color="#00BEFF"/><stop offset=".512" stop-color="#00D2FF"/><stop offset=".76" stop-color="#00DFFF"/><stop offset="1" stop-color="#00E3FF"/></linearGradient><linearGradient id="ipaint1_linear" x1="22.246" y1="11.631" x2="-.313" y2="11.631" gradientUnits="userSpaceOnUse"><stop stop-color="#FFE000"/><stop offset=".409" stop-color="#FFBD00"/><stop offset=".775" stop-color="orange"/><stop offset="1" stop-color="#FF9C00"/></linearGradient><linearGradient id="ipaint2_linear" x1="13.848" y1="13.648" x2="-6.116" y2="34.828" gradientUnits="userSpaceOnUse"><stop stop-color="#FF3A44"/><stop offset="1" stop-color="#C31162"/></linearGradient><linearGradient id="ipaint3_linear" x1="-2.494" y1="-5.791" x2="6.421" y2="3.667" gradientUnits="userSpaceOnUse"><stop stop-color="#32A071"/><stop offset=".069" stop-color="#2DA771"/><stop offset=".476" stop-color="#15CF74"/><stop offset=".801" stop-color="#06E775"/><stop offset="1" stop-color="#00F076"/></linearGradient><linearGradient id="ipaint4_linear" x1="22.246" y1="11.631" x2="-.313" y2="11.631" gradientUnits="userSpaceOnUse"><stop stop-color="#CCB300"/><stop offset=".409" stop-color="#CC9700"/><stop offset=".775" stop-color="#CC8400"/><stop offset="1" stop-color="#CC7D00"/></linearGradient><linearGradient id="ipaint5_linear" x1="13.848" y1="13.648" x2="-6.116" y2="34.828" gradientUnits="userSpaceOnUse"><stop stop-color="#CC2E36"/><stop offset="1" stop-color="#9C0E4E"/></linearGradient><linearGradient id="ipaint6_linear" x1="11.026" y1="1.709" x2="-3.696" y2="17.327" gradientUnits="userSpaceOnUse"><stop stop-color="#008DE0"/><stop offset=".007" stop-color="#008DE0"/><stop offset=".26" stop-color="#00A7E0"/><stop offset=".512" stop-color="#00B8E0"/><stop offset=".76" stop-color="#00C4E0"/><stop offset="1" stop-color="#00C7E0"/></linearGradient><linearGradient id="ipaint7_linear" x1="13.849" y1="13.648" x2="-6.115" y2="34.829" gradientUnits="userSpaceOnUse"><stop stop-color="#E0333C"/><stop offset="1" stop-color="#AB0F56"/></linearGradient><linearGradient id="ipaint8_linear" x1="22.245" y1="11.631" x2="-.313" y2="11.631" gradientUnits="userSpaceOnUse"><stop stop-color="#E0C500"/><stop offset=".409" stop-color="#E0A600"/><stop offset=".775" stop-color="#E09100"/><stop offset="1" stop-color="#E08900"/></linearGradient><linearGradient id="ipaint9_linear" x1="22.246" y1="11.631" x2="-.312" y2="11.631" gradientUnits="userSpaceOnUse"><stop stop-color="#FFE840"/><stop offset=".409" stop-color="#FFCE40"/><stop offset=".775" stop-color="#FFBC40"/><stop offset="1" stop-color="#FFB540"/></linearGradient><linearGradient id="ipaint10_linear" x1="11.026" y1="1.709" x2="-3.696" y2="17.327" gradientUnits="userSpaceOnUse"><stop stop-color="#40B8FF"/><stop offset=".007" stop-color="#40B9FF"/><stop offset=".26" stop-color="#40CEFF"/><stop offset=".512" stop-color="#40DDFF"/><stop offset=".76" stop-color="#40E7FF"/><stop offset="1" stop-color="#40EAFF"/></linearGradient><linearGradient id="ipaint11_linear" x1="-2.494" y1="-5.79" x2="6.421" y2="3.667" gradientUnits="userSpaceOnUse"><stop stop-color="#65B895"/><stop offset=".069" stop-color="#62BD95"/><stop offset=".476" stop-color="#50DB97"/><stop offset=".801" stop-color="#44ED98"/><stop offset="1" stop-color="#40F498"/></linearGradient></defs></svg><svg width="88" height="48" fill="none" viewBox="0 0 88 48" id="half-circle" x="320" y="590" xmlns="http://www.w3.org/2000/svg"><path d="M0 .906C0 .406.405 0 .906 0h86.188c.5 0 .906.405.906.906V4c0 24.3-19.7 44-44 44S0 28.3 0 4V.906z" fill="#103E38"/></svg><svg width="28" height="20" fill="none" viewBox="0 0 28 20" id="logo" x="492" y="63" xmlns="http://www.w3.org/2000/svg"><path d="M3.43 20a.847.847 0 0 1-.67-.32C.763 17.127 0 13.854 0 10.286 0 6.424 1.665 2.909 3.992.277a.815.815 0 0 1 .914-.219c5.29 2.116 8.438 7.463 9.094 10.854.656-3.39 3.803-8.738 9.094-10.854a.815.815 0 0 1 .914.22C26.335 2.907 28 6.423 28 10.285c0 3.568-.763 6.841-2.76 9.394a.847.847 0 0 1-.67.32H20.72a.847.847 0 0 1-.745-.432 14.309 14.309 0 0 1-.724-4.384c-1.326 1.42-3.281 3.065-5.05 3.835a.43.43 0 0 1-.4 0c-1.769-.77-3.724-2.415-5.05-3.835 0 1.313-.219 2.846-.724 4.384a.847.847 0 0 1-.745.432H3.43z" fill="#378757"/></svg><svg width="63" height="63" fill="none" viewBox="0 0 63 63" id="main-button-circle" x="462" xmlns="http://www.w3.org/2000/svg"><rect width="63" height="63" rx="31.5" fill="#99BE56"/><path d="M38.613 31.5H24.387M33.532 36.58l5.08-5.08M33.532 26.42l5.08 5.08" stroke="#fff" stroke-width="1.5" stroke-linecap="round" stroke-linejoin="round"/></svg><svg width="142" height="142" fill="none" viewBox="0 0 142 142" id="main-button-ru" x="320" xmlns="http://www.w3.org/2000/svg"><path d="M131.11 82.518c3.679.558 6.242-1.307 6.693-4.284.452-2.99-1.447-5.524-5.126-6.08-3.674-.557-6.242 1.3-6.694 4.29-.45 2.977 1.447 5.517 5.127 6.074zm.26-1.719c-2.804-.425-4.102-2.138-3.803-4.116.3-1.983 2.046-3.23 4.849-2.805 2.803.424 4.102 2.132 3.802 4.116-.299 1.977-2.045 3.23-4.848 2.805zM124.169 87.45l-.649 1.52 6.676 2.856-1.492 3.496-6.677-2.856-.653 1.53 8.024 3.433 2.795-6.547-8.024-3.433zM117.868 94.448l-.922 1.427 3.887 2.516-.055.086c-.634-.045-1.789-.048-2.652 1.289-1.147 1.775-.558 3.983 1.812 5.518 2.376 1.537 4.618 1.134 5.762-.637.879-1.36.367-2.388.077-2.935l.077-.119 1.188.769.9-1.394-10.074-6.52zm5.507 5.548c1.531.991 2.116 2.316 1.311 3.562-.836 1.293-2.347 1.235-3.802.294-1.469-.951-2.159-2.345-1.335-3.619.792-1.227 2.286-1.235 3.826-.237zM112.989 106.891c-1.668 1.808-1.435 4.212.547 6.044 1.995 1.843 4.408 1.883 6.076.075 1.668-1.809 1.435-4.213-.559-6.056-1.983-1.832-4.396-1.872-6.064-.063zm1.044.972c1.09-1.182 2.629-.781 3.86.356 1.227 1.134 1.762 2.649.672 3.831-1.082 1.174-2.634.761-3.861-.373-1.231-1.137-1.754-2.641-.671-3.814zM106.273 113.528c-1.506 1.164-1.998 2.73-1.435 4.091l1.449-.755c-.261-.839.066-1.624.83-2.215 1.151-.89 2.5-.742 3.564.561l-4.907 3.797.368.477c1.928 2.495 4.173 2.317 5.737 1.107 1.923-1.488 2.058-3.935.419-6.057-1.657-2.145-3.99-2.581-6.025-1.006zm5.181 2.693c.704 1.022.65 2.421-.442 3.266-1.042.807-2.323.562-3.144-.491l3.586-2.775zM101.93 117.252l-1.49.816 1.673 3.061-.967.53-3.98-1.799-1.85 1.012 5.15 2.292-.93 5.348 1.844-1.01.772-4.594.718-.392 1.755 3.211 1.49-.816-4.185-7.659zM97.482 128.098l-2.687.974-2.472-6.827-1.56.566 2.473 6.827-2.676.971.499 1.378 6.922-2.511-.499-1.378zM82.947 125.011c-1.873.343-3.029 1.508-3.154 2.974l1.634-.004c.154-.866.805-1.412 1.755-1.586 1.43-.262 2.562.49 2.909 2.136l-6.104 1.117.109.593c.566 3.102 2.643 3.975 4.588 3.619 2.392-.438 3.636-2.548 3.154-5.186-.487-2.666-2.36-4.126-4.891-3.663zm3.367 4.773c.155 1.231-.535 2.449-1.893 2.698-1.297.237-2.322-.569-2.567-1.882l4.46-.816zM58.713 131.103c-.599 3.673 1.236 6.258 4.208 6.744 2.984.487 5.539-1.382 6.138-5.055.597-3.667-1.231-6.257-4.215-6.744-2.972-.485-5.533 1.382-6.131 5.055zm1.716.28c.456-2.798 2.184-4.076 4.157-3.754 1.98.323 3.207 2.084 2.751 4.882-.456 2.798-2.178 4.077-4.158 3.754-1.974-.322-3.207-2.083-2.75-4.882zM53.899 124.11l-1.513-.667-2.926 6.645-3.478-1.533 2.926-6.646-1.523-.672-3.517 7.987 6.514 2.873 3.517-7.987zM47.01 117.744l-1.416-.939-2.555 3.862-.086-.057c.052-.634.067-1.789-1.259-2.668-1.762-1.168-3.975-.604-5.533 1.751-1.562 2.36-1.183 4.608.574 5.773 1.35.895 2.383.393 2.932.11l.119.078-.781 1.18 1.383.917 6.622-10.007zm-5.602 5.448c-1.006 1.521-2.337 2.091-3.573 1.271-1.284-.851-1.21-2.363-.253-3.808.965-1.459 2.365-2.133 3.63-1.295 1.217.807 1.21 2.301.196 3.832zM34.7 112.778c-1.795-1.683-4.199-1.468-6.043.503-1.856 1.983-1.913 4.398-.118 6.08 1.794 1.683 4.198 1.468 6.054-.515 1.844-1.971 1.902-4.386.107-6.068zm-.979 1.037c1.173 1.1.762 2.637-.384 3.861-1.141 1.22-2.659 1.744-3.832.644-1.165-1.092-.741-2.642.4-3.861 1.145-1.224 2.651-1.736 3.816-.644zM28.153 106.023c-1.153-1.514-2.714-2.018-4.077-1.464l.743 1.455c.84-.255 1.622.078 2.207.846.88 1.158.722 2.508-.588 3.563l-3.756-4.938-.48.365c-2.508 1.912-2.346 4.16-1.149 5.734 1.473 1.935 3.916 2.088 6.049.462 2.156-1.643 2.61-3.974 1.05-6.023zm-2.73 5.167c-1.027.697-2.424.633-3.26-.466-.799-1.049-.544-2.329.514-3.142l2.746 3.608zM24.486 101.671l-.803-1.497-3.073 1.652-.521-.971 1.828-3.97-.997-1.858-2.33 5.137-5.337-.968.994 1.852 4.585.805.387.721-3.223 1.733.804 1.497 7.686-4.133zM13.627 97.043l-.943-2.698 6.854-2.4-.547-1.566-6.854 2.4-.939-2.688-1.384.484 2.43 6.952 1.383-.484zM16.89 82.64c-.328-1.874-1.483-3.039-2.949-3.175l-.009 1.634c.865.16 1.406.816 1.572 1.767.25 1.433-.51 2.558-2.159 2.893l-1.068-6.112-.593.104c-3.106.544-3.996 2.615-3.656 4.562.419 2.396 2.52 3.655 5.161 3.192 2.67-.467 4.144-2.329 3.7-4.864zm-4.8 3.333c-1.231.146-2.444-.553-2.681-1.913-.227-1.298.587-2.318 1.901-2.553l.78 4.466zM10.968 58.376c-3.669-.627-6.267 1.188-6.774 4.156-.51 2.98 1.34 5.55 5.008 6.178 3.663.626 6.266-1.182 6.775-4.162.507-2.968-1.341-5.544-5.01-6.172zm-.293 1.714c2.794.478 4.06 2.217 3.723 4.188-.338 1.977-2.107 3.19-4.902 2.712-2.794-.478-4.06-2.21-3.723-4.188.337-1.971 2.107-3.19 4.902-2.712zM17.936 53.704l.678-1.508-6.622-2.98 1.558-3.467 6.622 2.98.682-1.519-7.959-3.581-2.917 6.494 7.958 3.581zM24.312 46.862l.948-1.41-3.84-2.587.056-.085c.634.057 1.788.08 2.676-1.24 1.18-1.753.63-3.972-1.712-5.55-2.346-1.58-4.596-1.218-5.772.53-.903 1.345-.41 2.383-.13 2.934l-.08.118-1.173-.79-.926 1.376 9.953 6.704zm-5.405-5.648c-1.512-1.018-2.072-2.355-1.245-3.585.86-1.278 2.37-1.192 3.807-.224 1.451.977 2.115 2.383 1.269 3.642-.815 1.212-2.308 1.193-3.83.168zM29.5 34.376c1.7-1.778 1.511-4.186-.438-6.054-1.96-1.879-4.373-1.963-6.073-.185-1.7 1.778-1.512 4.186.45 6.065 1.948 1.867 4.36 1.951 6.06.174zm-1.026-.991c-1.112 1.162-2.643.733-3.854-.427-1.206-1.155-1.713-2.68-.602-3.842 1.104-1.154 2.648-.713 3.854.442 1.21 1.16 1.705 2.673.602 3.827zM36.233 27.929c1.527-1.137 2.047-2.694 1.51-4.065l-1.463.728c.245.845-.096 1.623-.87 2.2-1.167.87-2.514.696-3.554-.626l4.976-3.707-.36-.483c-1.881-2.53-4.13-2.393-5.715-1.212-1.95 1.453-2.13 3.897-.53 6.049 1.617 2.175 3.942 2.653 6.006 1.116zm-5.132-2.788c-.684-1.034-.605-2.432.502-3.257 1.057-.788 2.333-.52 3.134.549l-3.636 2.708zM40.648 24.251l1.505-.788-1.616-3.092.977-.51 3.946 1.871 1.868-.978-5.107-2.386 1.03-5.33-1.863.975-.858 4.579-.725.38-1.694-3.243-1.505.788 4.042 7.734zM45.236 13.484l2.705-.924 2.343 6.873 1.57-.536-2.343-6.873 2.693-.92-.473-1.388-6.968 2.38.473 1.388zM59.887 16.778c1.879-.307 3.057-1.45 3.21-2.913l-1.634-.027c-.17.862-.832 1.396-1.785 1.552-1.435.234-2.552-.54-2.867-2.192l6.123-1-.096-.594c-.508-3.112-2.568-4.025-4.52-3.707-2.4.392-3.682 2.478-3.251 5.125.436 2.675 2.28 4.17 4.82 3.756zm-3.275-4.837c-.132-1.234.581-2.438 1.944-2.66 1.3-.213 2.31.613 2.53 1.93l-4.474.73zM83.818 11.043c.655-3.663-1.14-6.276-4.105-6.806-2.975-.532-5.56 1.297-6.215 4.96-.654 3.658 1.135 6.276 4.11 6.808 2.965.53 5.554-1.298 6.21-4.962zm-1.712-.306c-.5 2.791-2.247 4.043-4.215 3.69-1.975-.353-3.175-2.131-2.675-4.922.499-2.791 2.24-4.044 4.215-3.69 1.969.351 3.174 2.131 2.675 4.922zM88.808 18.154l1.5.695 3.05-6.59 3.448 1.599-3.05 6.59 1.511.7 3.665-7.92-6.46-2.994-3.664 7.92zM95.59 24.63l1.4.964 2.625-3.814.084.058c-.063.633-.1 1.788 1.21 2.691 1.74 1.2 3.963.676 5.565-1.65 1.604-2.33 1.266-4.585-.469-5.782-1.333-.92-2.375-.437-2.929-.164l-.117-.08.802-1.166-1.366-.941-6.804 9.884zm5.701-5.345c1.035-1.502 2.376-2.048 3.596-1.206 1.268.874 1.166 2.385.184 3.812-.993 1.442-2.405 2.09-3.653 1.229-1.203-.83-1.167-2.323-.127-3.835zM107.765 29.748c1.764 1.715 4.171 1.543 6.051-.393 1.891-1.95 1.993-4.363.229-6.078-1.764-1.715-4.172-1.543-6.063.406-1.88 1.937-1.981 4.35-.217 6.065zm.997-1.02c-1.153-1.12-.713-2.65.454-3.853 1.163-1.199 2.69-1.695 3.843-.575 1.145 1.113.694 2.656-.47 3.854-1.167 1.203-2.682 1.687-3.827.575zM114.386 36.82c1.119 1.54 2.669 2.078 4.045 1.554l-.712-1.471c-.846.237-1.62-.113-2.188-.895-.855-1.176-.667-2.522.666-3.549l3.647 5.02.487-.355c2.55-1.856 2.437-4.108 1.275-5.707-1.43-1.967-3.869-2.173-6.037-.595-2.191 1.595-2.696 3.917-1.183 5.999zm2.843-5.105c1.041-.674 2.437-.58 3.249.537.775 1.066.493 2.34-.583 3.13l-2.666-3.667zM117.845 41.03l.776 1.512 3.103-1.596.503.981-1.902 3.936.963 1.875 2.425-5.093 5.318 1.067-.959-1.87-4.57-.89-.374-.728 3.255-1.673-.776-1.511-7.762 3.99zM128.59 45.752l.902 2.711-6.889 2.296.524 1.574 6.889-2.295.898 2.7 1.391-.463-2.324-6.987-1.391.464zM125.171 60.354c.291 1.881 1.424 3.068 2.887 3.231l.04-1.633c-.861-.177-1.39-.842-1.538-1.796-.223-1.438.559-2.548 2.214-2.852l.951 6.132.595-.093c3.116-.484 4.046-2.537 3.743-4.491-.373-2.403-2.449-3.702-5.099-3.29-2.678.416-4.188 2.249-3.793 4.792zm4.862-3.24c1.234-.122 2.433.6 2.645 1.964.202 1.303-.632 2.306-1.95 2.517l-.695-4.48z" fill="#99BE56"/></svg><svg width="87" height="134" fill="none" viewBox="0 0 87 134" id="oval" x="320" y="142" xmlns="http://www.w3.org/2000/svg"><rect width="87" height="134" rx="43.5" fill="#99BE56"/></svg><svg width="24" height="27" fill="none" viewBox="0 0 24 27" id="star" x="462" y="93" xmlns="http://www.w3.org/2000/svg"><path d="M0 13.436c6.627 0 12 6.073 12 13.564 0-7.491 5.373-13.564 12-13.564-6.59 0-11.939-6.004-12-13.436-.061 7.432-5.41 13.436-12 13.436z" fill="#378757"/></svg></svg>