<svg width="32" height="33" fill="none" xmlns="http://www.w3.org/2000/svg"><path fill-rule="evenodd" clip-rule="evenodd" d="M3.722 18.328l1.733 2.26.372 2.812a3.484 3.484 0 0 0 2.992 2.997l2.819.376 2.242 1.722a3.48 3.48 0 0 0 4.231 0l2.259-1.725 2.813-.373a3.484 3.484 0 0 0 2.994-2.994l.376-2.821s.866-1.142 1.733-2.257a3.488 3.488 0 0 0 0-4.232l-1.733-2.26-.373-2.812a3.484 3.484 0 0 0-2.992-2.997l-2.818-.376-2.259-1.72a3.48 3.48 0 0 0-4.23 0l-2.259 1.723-2.81.373a3.484 3.484 0 0 0-2.995 2.994l-.375 2.821s-.867 1.142-1.733 2.257a3.488 3.488 0 0 0 .013 4.232zM16 15.69a4.68 4.68 0 0 1 4.68 4.68 1.56 1.56 0 0 1-1.56 1.56h-6.24a1.56 1.56 0 0 1-1.56-1.56 4.68 4.68 0 0 1 4.68-4.68zm-5.72-2.248a1.56 1.56 0 0 1 1.554-1.564 1.554 1.554 0 0 1 1.566 1.56 1.56 1.56 0 0 1-3.12.004zm9.878-1.564a1.56 1.56 0 1 0 1.566 1.56 1.554 1.554 0 0 0-1.566-1.56zm-5.718.177a1.56 1.56 0 0 1 1.554-1.564 1.553 1.553 0 0 1 1.567 1.56 1.56 1.56 0 0 1-3.12.004z" fill="#99BE56"/></svg>