<svg width="26" height="27" fill="none" xmlns="http://www.w3.org/2000/svg"><path fill-rule="evenodd" clip-rule="evenodd" d="M14 .25v.033c0 3.467-1.266 6.638-3.362 9.076L13 11.72l8.2-8.199c.076-.077.161-.139.252-.187A12.944 12.944 0 0 0 14 .25zm-2.143.012v.021c0 2.875-1.03 5.51-2.74 7.555L4.802 3.521a1.055 1.055 0 0 0-.253-.187 12.942 12.942 0 0 1 7.31-3.072zM3.122 4.76A12.942 12.942 0 0 0 .05 12.07H.07c2.875 0 5.51-1.03 7.555-2.74L3.31 5.013a1.055 1.055 0 0 1-.187-.253zM.038 14.21a12.944 12.944 0 0 0 3.084 7.453c.048-.09.11-.176.187-.253l8.2-8.199-2.363-2.362a13.874 13.874 0 0 1-9.108 3.361zm4.51 8.88A12.944 12.944 0 0 0 12 26.173v-.033c0-3.467 1.266-6.638 3.361-9.076L13 14.704l-8.2 8.199a1.054 1.054 0 0 1-.252.187zm9.595 3.071a12.943 12.943 0 0 0 7.31-3.072 1.054 1.054 0 0 1-.254-.187l-4.317-4.317a11.738 11.738 0 0 0-2.74 7.576zm8.735-4.498a12.941 12.941 0 0 0 3.072-7.31h-.022c-2.875 0-5.509 1.03-7.554 2.74l4.317 4.317c.076.077.139.162.187.253zm3.084-9.452a12.944 12.944 0 0 0-3.084-7.452c-.048.09-.11.176-.187.253l-8.2 8.199 2.362 2.362a13.875 13.875 0 0 1 9.109-3.361z" fill="#F68749"/></svg>