<svg width="26" height="27" viewBox="0 0 26 27" fill="none" xmlns="http://www.w3.org/2000/svg">
<path fill-rule="evenodd" clip-rule="evenodd" d="M13.9993 0.250244C13.9997 0.261265 13.9998 0.272327 13.9998 0.283429C13.9998 3.75028 12.7336 6.92109 10.6383 9.35864L12.9998 11.7202L21.1991 3.52096C21.2757 3.44438 21.3611 3.38204 21.4521 3.33393C19.2936 1.483 16.6721 0.455102 13.9993 0.250244ZM11.8572 0.262009C11.8571 0.269132 11.857 0.276272 11.857 0.283429C11.857 3.15842 10.8279 5.79278 9.11791 7.83828L4.80059 3.52096C4.72401 3.44438 4.63859 3.38204 4.54761 3.33393C6.66753 1.51606 9.2341 0.492086 11.8572 0.262009ZM3.12177 4.75977C1.3039 6.87968 0.27992 9.44625 0.049847 12.0694C0.0569709 12.0692 0.0641118 12.0691 0.0712691 12.0691C2.94626 12.0691 5.58062 11.04 7.62612 9.33007L3.3088 5.01275C3.23222 4.93617 3.16988 4.85075 3.12177 4.75977ZM0.0380859 14.2115C0.242948 16.8843 1.27084 19.5058 3.12178 21.6642C3.16988 21.5732 3.23222 21.4878 3.3088 21.4113L11.5081 13.212L9.14648 10.8504C6.70893 12.9457 3.53812 14.212 0.0712691 14.212C0.0601678 14.212 0.049106 14.2118 0.0380859 14.2115ZM4.54761 23.0901C6.70608 24.941 9.32758 25.9689 12.0003 26.1738C12 26.1627 11.9998 26.1517 11.9998 26.1406C11.9998 22.6737 13.2661 19.5029 15.3614 17.0654L12.9998 14.7038L4.80059 22.903C4.72401 22.9796 4.63859 23.042 4.54761 23.0901ZM14.1425 26.162C16.7656 25.9319 19.3321 24.9079 21.4521 23.0901C21.3611 23.042 21.2757 22.9796 21.1991 22.903L16.8818 18.5857C15.1718 20.6312 14.1427 23.2656 14.1427 26.1406C14.1427 26.1477 14.1426 26.1549 14.1425 26.162ZM22.8779 21.6642C24.6958 19.5443 25.7198 16.9777 25.9498 14.3546C25.9427 14.3548 25.9356 14.3549 25.9284 14.3549C23.0534 14.3549 20.4191 15.384 18.3736 17.0939L22.6909 21.4113C22.7675 21.4878 22.8298 21.5733 22.8779 21.6642ZM25.9616 12.2125C25.7567 9.53975 24.7288 6.91824 22.8779 4.75977C22.8298 4.85075 22.7675 4.93617 22.6909 5.01275L14.4916 13.212L16.8532 15.5736C19.2908 13.4783 22.4616 12.212 25.9284 12.212C25.9395 12.212 25.9506 12.2122 25.9616 12.2125Z" fill="#F68749"/>
</svg>
