<svg width="32" height="33" fill="none" xmlns="http://www.w3.org/2000/svg"><rect x="3" y="3.212" width="26" height="26" rx="5" fill="#004D99"/><path d="M15 11.37a15.986 15.986 0 0 0-5.486-1.155 1.562 1.562 0 0 0-1.069.329A1.143 1.143 0 0 0 8 11.44v8.396c.012.65.607 1.182 1.363 1.216 1.96.021 3.886.419 5.637 1.159V11.37zM17 11.37v10.842a14.913 14.913 0 0 1 5.637-1.159c.756-.034 1.351-.566 1.363-1.216V11.44a1.143 1.143 0 0 0-.445-.897 1.562 1.562 0 0 0-1.069-.33c-1.904.064-3.77.458-5.486 1.156z" fill="#fff"/></svg>