<svg width="32" height="33" fill="none" xmlns="http://www.w3.org/2000/svg"><path fill-rule="evenodd" clip-rule="evenodd" d="M11 3.212a1 1 0 0 1 1 1v4a1 1 0 1 1-2 0v-4a1 1 0 0 1 1-1zm10 0a1 1 0 0 1 1 1v4a1 1 0 1 1-2 0v-4a1 1 0 0 1 1-1z" fill="#7958BE"/><path fill-rule="evenodd" clip-rule="evenodd" d="M4 8.849v2.363h24V8.849a2.666 2.666 0 0 0-2.667-2.667H6.667A2.666 2.666 0 0 0 4 8.85zm0 16.696V13.212h24v12.333a2.666 2.666 0 0 1-2.667 2.667H6.667A2.666 2.666 0 0 1 4 25.545zm16.77-6.696a1 1 0 1 0-1.54-1.274l-3.463 4.185-2.088-1.93a1 1 0 0 0-1.358 1.47l2.864 2.646a1 1 0 0 0 1.45-.097l4.135-5z" fill="#7958BE"/></svg>