<svg width="32" height="33" viewBox="0 0 32 33" fill="none" xmlns="http://www.w3.org/2000/svg">
<path fill-rule="evenodd" clip-rule="evenodd" d="M11.0005 3.21208C11.5528 3.21208 12.0005 3.65979 12.0005 4.21208V8.21216C12.0005 8.76444 11.5528 9.21216 11.0005 9.21216C10.4482 9.21216 10.0005 8.76444 10.0005 8.21216V4.21208C10.0005 3.65979 10.4482 3.21208 11.0005 3.21208ZM21.0005 3.21191C21.5528 3.21191 22.0005 3.65963 22.0005 4.21191V8.212C22.0005 8.76428 21.5528 9.212 21.0005 9.212C20.4482 9.212 20.0005 8.76428 20.0005 8.212V4.21191C20.0005 3.65963 20.4482 3.21191 21.0005 3.21191Z" fill="#7958BE"/>
<path fill-rule="evenodd" clip-rule="evenodd" d="M4 8.84904V11.2117H28V8.84904C28 7.37571 26.8067 6.18237 25.3333 6.18237H6.66667C5.19333 6.18237 4 7.37571 4 8.84904ZM4 25.5452V13.2117H28V25.5452C28 27.0185 26.8067 28.2118 25.3333 28.2118H6.66667C5.19333 28.2118 4 27.0185 4 25.5452ZM20.7705 18.8494C21.1226 18.4238 21.063 17.7935 20.6374 17.4414C20.2119 17.0894 19.5815 17.149 19.2295 17.5745L15.7666 21.7604L13.6788 19.8305C13.2732 19.4557 12.6406 19.4805 12.2657 19.8861C11.8908 20.2916 11.9157 20.9243 12.3212 21.2992L15.1848 23.9463C15.3866 24.1328 15.6562 24.228 15.9304 24.2097C16.2045 24.1914 16.459 24.0611 16.6342 23.8494L20.7705 18.8494Z" fill="#7958BE"/>
</svg>
