<svg width="32" height="33" fill="none" xmlns="http://www.w3.org/2000/svg"><path d="M23.775 13.45a16.735 16.735 0 0 0-3.002-5.022c-2.23-2.562-5.164-4.216-7.473-4.216a.906.906 0 0 0-.711.346.888.888 0 0 0-.16.77c.78 2.958-.837 5.417-2.548 8.02C8.463 15.504 7 17.731 7 20.283c0 4.923 4.038 8.929 9 8.929s9-4.006 9-8.929c0-2.416-.412-4.715-1.225-6.832zM17.82 25.79c-.581.614-1.31.743-1.819.743-.51 0-1.238-.129-1.819-.742-.58-.614-.881-1.588-.881-2.83 0-1.402.496-2.47.975-3.502.279-.6.563-1.21.732-1.863a.445.445 0 0 1 .283-.311.453.453 0 0 1 .42.06c.514.395.971.858 1.359 1.376 1.022 1.34 1.631 2.925 1.631 4.24 0 1.242-.305 2.22-.881 2.83z" fill="#E17E90"/></svg>