<svg width="32" height="33" fill="none" xmlns="http://www.w3.org/2000/svg"><path d="M7.733 9.679c-1.066-1.067-3.6-1.338-5.066-1.471-.134 0-.267 0-.4.133-.134.134-.267.4-.267.534v10.67c0 .4.267.667.667.667l2 .004c.266 0 .536-.126.666-.4.608-1.276 2.4-6.137 2.667-9.604 0-.133 0-.4-.267-.533zM22 11.545c-1.334-.4-2.333-.533-3.4-.933-2.4-1.067-3.467-.533-5.6 1.6-.429.429-2.253 2.54-1.2 3.066.994.398 3.456-1.471 4.933-2 .467-.166 2.78 1.612 3.667 2.4 1.866 1.467 3.733 3.067 4.666 4.267h.134c-.934-2.666-2.534-7.2-3.2-8.4zM29.349 8.212c-2.233 0-4.997.048-6.682 1.733 1.333 2.767 3.275 7.352 4 10.735.133.267.4.533.667.533h2.015c.4 0 .666-.266.666-.666V8.878c0-.4-.266-.666-.666-.666z" fill="#F68749"/><path d="M24.133 21.278c-1.951-2.4-4.913-4.716-7.133-6.566-.9.667-4.5 2.557-5.5 2-.724-.403-1.367-.967-1.5-1.5-.267-1.333 1.166-3.067 2.1-4H9.433c-.533 2.667-1.4 5.8-2.066 7.666 2.161 2.162 4.584 3.964 7.032 5.8.4.267 1.2.534 1.6.534 1.5-.333 5.815-1.775 8-2.867.134-.133.4-.533.134-1.067z" fill="#F68749"/></svg>