<svg width="32" height="33" viewBox="0 0 32 33" fill="none" xmlns="http://www.w3.org/2000/svg">
<path d="M7.66667 27.2119L5.33333 27.2118C4.59733 27.2118 4 26.6144 4 25.8784V17.597C4 16.861 4.59733 16.2637 5.33333 16.2637L7.66667 16.2638C8.40267 16.2638 9 16.8612 9 17.5972V19.2117L11.7557 17.5971C12.7837 16.9104 13.993 16.5451 15.229 16.5451C15.741 16.5451 16.2503 16.6078 16.7477 16.7318L19.8037 17.4958C20.7023 17.7198 21 18.2852 21 19.2119C21 20.2119 17.3445 21.2119 16 21.2119L9 21.8786V19.2117V25.8785V21.8786L16 21.2119L20.4437 21.8785C21.021 21.8785 21.5823 21.6918 22.0437 21.3452L25.265 18.9292C26.069 18.3265 27.1943 18.4065 27.905 19.1172C28.6943 19.9065 28.6943 21.1852 27.905 21.9732L25.141 24.7372C24.397 25.4812 23.4477 25.9892 22.4157 26.1958L18.509 26.9772C17.7343 27.1318 16.9357 27.1132 16.169 26.9212L12.6357 26.0385C12.213 25.9318 11.7797 25.8785 11.3437 25.8785L9 25.8785C8.99995 26.6145 8.40264 27.2119 7.66667 27.2119Z" fill="#94BB44"/>
<path fill-rule="evenodd" clip-rule="evenodd" d="M25.2226 5.93501C27.1515 6.23082 28.1988 8.22089 27.9686 9.89016C27.5028 13.2773 21.749 15.2257 21.6516 15.2118C21.5543 15.1966 16.5649 11.5997 17.0307 8.21395C17.2609 6.54467 18.8004 4.95178 20.7293 5.24758C21.8319 5.41701 22.4819 6.0725 22.8332 6.62105C23.32 6.19887 24.12 5.76559 25.2226 5.93501Z" fill="#94BB44"/>
</svg>
