<svg width="32" height="33" viewBox="0 0 32 33" fill="none" xmlns="http://www.w3.org/2000/svg">
<path d="M7.73326 9.67855C6.66659 8.61189 4.13326 8.34138 2.66661 8.20801C2.5333 8.20801 2.39993 8.20801 2.26662 8.34132C2.13331 8.47469 2 8.74137 2 8.87468V19.5453C2 19.9453 2.26668 20.2119 2.66667 20.2119L4.6667 20.2158C4.93339 20.2158 5.20277 20.0899 5.33338 19.8158C5.94131 18.5401 7.73332 13.6785 8 10.2119C7.99994 10.0785 7.99994 9.81192 7.73326 9.67855Z" fill="#F68749"/>
<path d="M21.9997 11.5454C20.6664 11.1454 19.6667 11.0119 18.6 10.6119C16.2001 9.54528 15.1334 10.0786 13.0002 12.2119C12.5713 12.6408 10.7474 14.752 11.8002 15.2785C12.7937 15.6759 15.256 13.8068 16.7333 13.2785C17.2001 13.1116 19.5123 14.8898 20.3997 15.6787C22.2664 17.1453 24.1329 18.7453 25.0663 19.9452H25.1996C24.2663 17.2786 22.6664 12.7453 21.9997 11.5454Z" fill="#F68749"/>
<path d="M29.3487 8.21167C27.1163 8.21167 24.352 8.2599 22.667 9.94494C24 12.7119 25.9419 17.2969 26.6669 20.68C26.8002 20.9467 27.0669 21.2133 27.3336 21.2133H29.3487C29.7487 21.2133 30.0153 20.9466 30.0153 20.5466V8.87822C30.0153 8.47835 29.7487 8.21167 29.3487 8.21167Z" fill="#F68749"/>
<path d="M24.1326 21.2783C22.182 18.8785 19.2198 16.5622 16.9995 14.7119C16.1005 15.3786 12.4995 17.2686 11.4995 16.7119C10.7757 16.309 10.1328 15.7452 9.99951 15.2119C9.73283 13.8786 11.1664 12.1452 12.0997 11.2119H9.43311C8.89981 13.8785 8.03331 17.0118 7.3667 18.8785C9.52842 21.0402 11.9513 22.8422 14.3995 24.6785C14.7995 24.9451 15.5995 25.2118 15.9995 25.2118C17.4994 24.8787 21.8143 23.4372 23.9993 22.3449C24.1326 22.2116 24.3993 21.8116 24.1326 21.2783Z" fill="#F68749"/>
</svg>
