<svg width="32" height="33" fill="none" xmlns="http://www.w3.org/2000/svg"><path d="M7.667 27.212H5.333A1.334 1.334 0 0 1 4 25.878v-8.281c0-.736.597-1.333 1.333-1.333h2.334c.736 0 1.333.597 1.333 1.333v1.615l2.756-1.615a6.253 6.253 0 0 1 4.992-.865l3.056.764c.898.224 1.196.79 1.196 1.716 0 1-3.655 2-5 2l-7 .667v-2.667 6.666-4l7-.666 4.444.666c.577 0 1.138-.186 1.6-.533l3.221-2.416a2.02 2.02 0 0 1 2.64 3.044l-2.764 2.764a5.338 5.338 0 0 1-2.725 1.459l-3.907.781a5.333 5.333 0 0 1-2.34-.056l-3.533-.883a5.274 5.274 0 0 0-1.292-.16H9c0 .736-.597 1.334-1.333 1.334z" fill="#94BB44"/><path fill-rule="evenodd" clip-rule="evenodd" d="M25.223 5.935c1.928.296 2.976 2.286 2.746 3.955-.466 3.387-6.22 5.336-6.317 5.322-.098-.015-5.087-3.612-4.621-6.998.23-1.67 1.77-3.262 3.698-2.966a2.985 2.985 0 0 1 2.104 1.373 2.885 2.885 0 0 1 2.39-.686z" fill="#94BB44"/></svg>