<svg width="32" height="33" viewBox="0 0 32 33" fill="none" xmlns="http://www.w3.org/2000/svg">
<rect x="3" y="3.21191" width="26" height="26" rx="5" fill="#F68749"/>
<rect x="8" y="21.2119" width="16" height="3" rx="1" fill="white"/>
<path d="M15.8244 7.27775C15.9376 7.2353 16.0624 7.2353 16.1756 7.27775L23.6756 10.0902C23.8707 10.1634 24 10.35 24 10.5584V12.7119C24 12.9881 23.7761 13.2119 23.5 13.2119H8.5C8.22386 13.2119 8 12.9881 8 12.7119V10.5584C8 10.35 8.12929 10.1634 8.32444 10.0902L15.8244 7.27775Z" fill="white"/>
<rect x="10" y="14.2119" width="2" height="6" fill="white"/>
<rect x="15" y="14.2119" width="2" height="6" fill="white"/>
<rect x="20" y="14.2119" width="2" height="6" fill="white"/>
</svg>
