<svg width="32" height="33" fill="none" xmlns="http://www.w3.org/2000/svg"><path fill-rule="evenodd" clip-rule="evenodd" d="M8.414 3.212A5.414 5.414 0 0 0 3 8.626v15.171a5.414 5.414 0 0 0 5.414 5.415h15.172A5.414 5.414 0 0 0 29 23.797V8.627a5.414 5.414 0 0 0-5.414-5.415H8.414zm10.212 10.374h3.149c.798 0 1.445.646 1.445 1.444v2.363c0 .798-.647 1.445-1.445 1.445h-3.149v3.152c0 .797-.647 1.444-1.444 1.444h-2.366a1.444 1.444 0 0 1-1.445-1.444v-3.152H10.22a1.444 1.444 0 0 1-1.444-1.445V15.03c0-.797.647-1.444 1.444-1.444h3.155v-3.152c0-.798.647-1.444 1.445-1.444h2.363c.797 0 1.444.646 1.444 1.444v3.152z" fill="#E17E90"/></svg>