<svg width="32" height="33" viewBox="0 0 32 33" fill="none" xmlns="http://www.w3.org/2000/svg">
<path fill-rule="evenodd" clip-rule="evenodd" d="M8.41441 3.21191C5.42411 3.21191 3 5.63603 3 8.62632V23.7975C3 26.7878 5.42411 29.2119 8.41441 29.2119H23.5856C26.5759 29.2119 29 26.7878 29 23.7975V8.62633C29 5.63603 26.5759 3.21191 23.5856 3.21191H8.41441ZM18.6261 13.5858H21.775C22.5728 13.5858 23.2195 14.2325 23.2195 15.0302V17.3934C23.2195 18.1911 22.5728 18.8378 21.775 18.8378H18.6261V21.9896C18.6261 22.7873 17.9794 23.434 17.1817 23.434H14.8157C14.0179 23.434 13.3712 22.7873 13.3712 21.9896V18.8378H10.2195C9.42172 18.8378 8.77502 18.1911 8.77502 17.3934V15.0302C8.77502 14.2325 9.42172 13.5858 10.2195 13.5858H13.3741V10.434C13.3741 9.63628 14.0208 8.98958 14.8186 8.98958H17.1817C17.9794 8.98958 18.6261 9.63628 18.6261 10.434V13.5858Z" fill="#E17E90"/>
</svg>
