<svg width="32" height="33" fill="#99BE56" xmlns="http://www.w3.org/2000/svg"><path fill-rule="evenodd" clip-rule="evenodd" d="M21.778 29.212H10.222A7.222 7.222 0 0 1 3 21.99V10.434a7.222 7.222 0 0 1 7.222-7.222h11.556A7.222 7.222 0 0 1 29 10.434V21.99a7.222 7.222 0 0 1-7.222 7.222z"/><path fill-rule="evenodd" clip-rule="evenodd" d="M16.174 10.213c-2.917 0-5.282 2.322-5.282 5.187 0 .45.058.889.169 1.306a12.013 12.013 0 0 0-2.808 3.04 1.59 1.59 0 0 0 .51 2.217c.763.474 1.773.25 2.256-.5a8.77 8.77 0 0 1 1.821-2.04 5.32 5.32 0 0 0 3.334 1.164c2.704 0 4.126-2.048 5.421-3.914.767-1.104 1.488-2.143 2.405-2.657-1.838-2.425-4.748-3.838-7.826-3.803zm-3.583 8.041a9.846 9.846 0 0 0-2.494 2.637.551.551 0 0 1-.752.167.53.53 0 0 1-.17-.739 10.954 10.954 0 0 1 3.308-3.295 11.183 11.183 0 0 1 4.221-1.617.544.544 0 0 1 .628.44.532.532 0 0 1-.448.616 10.077 10.077 0 0 0-4.293 1.791z" fill="#fff"/></svg>