<svg width="32" height="33" fill="none" xmlns="http://www.w3.org/2000/svg"><path fill-rule="evenodd" clip-rule="evenodd" d="M17 7.879h2.333c.92 0 1.667-.746 1.667-1.667v-.333c0-.92-.746-1.667-1.667-1.667h-2.666c-.92 0-1.667.746-1.667 1.667v3.5a1 1 0 1 0 2 0v-1.5z" fill="#004D99"/><path fill-rule="evenodd" clip-rule="evenodd" d="M6.18 13.873V26.01H5.09c-.602 0-1.09.493-1.09 1.1 0 .608.488 1.1 1.09 1.1h21.82c.602 0 1.09-.492 1.09-1.1 0-.607-.488-1.1-1.09-1.1h-1.093V13.873a1.47 1.47 0 0 0-.728-1.274l-8.373-4.194a1.444 1.444 0 0 0-1.443 0L6.908 12.6a1.47 1.47 0 0 0-.728 1.274zm6.548 12.138h-2.182v-4.46a1 1 0 0 1 .128-.49c.167-.33.478-.552.834-.552h8.985c.356 0 .668.222.834.551a1 1 0 0 1 .128.49v4.461h-2.182V22.71h-6.545v3.301zm3.272-8.8a2 2 0 1 0 0-3.999 2 2 0 0 0 0 4z" fill="#004D99"/></svg>