<svg width="32" height="33" viewBox="0 0 32 33" fill="none" xmlns="http://www.w3.org/2000/svg">
<path fill-rule="evenodd" clip-rule="evenodd" d="M17 7.87891L19.3331 7.87896C20.2537 7.87896 21 7.13264 21 6.21202V5.87891C21 4.95828 20.2537 4.21196 19.3331 4.21196L16.6669 4.21191C15.7463 4.21191 15 4.95823 15 5.87886L15 9.37891C15 9.9312 15.4477 10.3789 16 10.3789C16.5523 10.3789 17 9.9312 17 9.37891V7.87891Z" fill="#004D99"/>
<path fill-rule="evenodd" clip-rule="evenodd" d="M6.18033 13.8727L6.18075 26.0112H5.09091C4.48842 26.0112 4 26.5038 4 27.1115C4 27.7193 4.48842 28.2119 5.09091 28.2119H26.9091C27.5116 28.2119 28 27.7193 28 27.1115C28 26.5038 27.5116 26.0112 26.9091 26.0112H25.8171L25.8167 13.8727C25.8177 13.3472 25.5402 12.8613 25.0891 12.5986L16.7164 8.40519C16.2691 8.14749 15.7201 8.14749 15.2729 8.40519L6.9079 12.5986C6.45679 12.8613 6.1793 13.3472 6.18033 13.8727ZM12.7279 26.0112H10.5461V21.5508C10.5461 21.3734 10.5925 21.2064 10.6744 21.0602C10.8407 20.7309 11.1519 20.5092 11.5083 20.5092H20.4929C20.8494 20.5092 21.1606 20.7309 21.3268 21.0602C21.4087 21.2064 21.4552 21.3734 21.4552 21.5508V26.0112H19.2733V22.71H12.7279V26.0112ZM16 17.2119C17.1046 17.2119 18 16.3165 18 15.2119C18 14.1073 17.1046 13.2119 16 13.2119C14.8954 13.2119 14 14.1073 14 15.2119C14 16.3165 14.8954 17.2119 16 17.2119Z" fill="#004D99"/>
</svg>
