<svg width="32" height="33" fill="none" xmlns="http://www.w3.org/2000/svg"><path fill-rule="evenodd" clip-rule="evenodd" d="M4 27.212c0-.552.375-1 .837-1h22.326c.462 0 .837.448.837 1s-.375 1-.837 1H4.837c-.462 0-.837-.448-.837-1z" fill="#7958BE"/><path d="M27.5 10.212c1 2.5.6 3.198-1 3.527-1.44.296-2.7-.673-2.7-1.923v-.068a.639.639 0 0 0-.65-.627c-.359 0-.65.281-.65.627 0 .667-.325 1.297-.866 1.754-.515.433-1.227.71-2.042.71-1.243 0-2.244-.643-2.677-1.507a2.132 2.132 0 0 1-.231-.957.639.639 0 0 0-.65-.627c-.36 0-.65.281-.65.627 0 .233-.04.462-.114.68l-5.779-.975a.653.653 0 0 0-.573-.332.661.661 0 0 0-.436.162L4.5 10.212l1.03-2.376c.51-.993 1.578-1.624 2.75-1.624H23.72c1.172 0 2.241.63 2.75 1.624l1.031 2.376z" fill="#7958BE"/><path d="M8.482 11.283L4.5 10.212c-1 2.104-.469 3 1.063 3.543 1.225.435 2.701-.688 2.705-1.94v-.066c0-.185.082-.351.214-.466zM9.491 11.453a.607.607 0 0 1 .077.296c0 1.3 1.236 2.463 2.908 2.463 1.372 0 2.451-.784 2.794-1.784l-5.779-.975zM8.896 14.253C8.51 14.788 7 15.523 7 15.523v10.689h5a.817.817 0 0 1-.01-.124v-4.956c0-1.83 2.114-3.42 4.01-3.42 1.897 0 4.01 1.59 4.01 3.42v4.956a.804.804 0 0 1-.01.124h5v-10.69s-1.506-.733-1.893-1.267c-.76 1.043-2.089 1.711-3.546 1.711-1.466 0-2.801-.675-3.559-1.727-.757 1.052-2.093 1.727-3.558 1.727-1.458 0-2.789-.67-3.548-1.713z" fill="#7958BE"/><path d="M18 26.212a.817.817 0 0 1-.01-.124v-4.956c0-.906-1.05-1.641-1.99-1.641s-1.99.735-1.99 1.641v4.956a.804.804 0 0 1-.01.124h4z" fill="#7958BE"/></svg>