<svg width="32" height="33" viewBox="0 0 32 33" fill="none" xmlns="http://www.w3.org/2000/svg">
<path fill-rule="evenodd" clip-rule="evenodd" d="M4 27.2119C4 26.6596 4.37483 26.2119 4.83721 26.2119H27.1628C27.6252 26.2119 28 26.6596 28 27.2119C28 27.7642 27.6252 28.2119 27.1628 28.2119H4.83721C4.37483 28.2119 4 27.7642 4 27.2119Z" fill="#7958BE"/>
<path d="M27.5004 10.2119C28.5004 12.7119 28.1005 13.41 26.5 13.7388C25.0592 14.0349 23.8002 13.0663 23.8002 11.8156V11.7485C23.8002 11.4021 23.5092 11.1212 23.1502 11.1212C22.7912 11.1212 22.5002 11.4021 22.5002 11.7485C22.5002 12.4147 22.1755 13.0452 21.6338 13.5015C21.1185 13.9354 20.4071 14.2119 19.5921 14.2119C18.3494 14.2119 17.3475 13.5692 16.9149 12.7054C16.7654 12.407 16.6839 12.0822 16.6839 11.7485C16.6839 11.4021 16.3929 11.1212 16.0339 11.1212C15.6749 11.1212 15.3839 11.4021 15.3839 11.7485C15.3839 11.9813 15.3443 12.2097 15.2696 12.4279L9.49116 11.4531C9.3817 11.2556 9.16592 11.1212 8.91761 11.1212C8.75007 11.1212 8.59734 11.1824 8.48208 11.2828L4.5 10.2119L5.53078 7.83646C6.03908 6.84289 7.10767 6.21191 8.28026 6.21191H23.7189C24.8915 6.21191 25.9601 6.84289 26.4684 7.83646L27.5004 10.2119Z" fill="#7958BE"/>
<path d="M8.48208 11.2828L4.5 10.2119C3.50047 12.3155 4.03147 13.212 5.56275 13.7553C6.78793 14.19 8.264 13.0669 8.26761 11.8148V11.7485C8.26761 11.5637 8.3504 11.3976 8.48208 11.2828Z" fill="#7958BE"/>
<path d="M9.49116 11.4531C9.53994 11.5411 9.56761 11.6417 9.56761 11.7485C9.56761 13.0484 10.8038 14.2119 12.4758 14.2119C13.8483 14.2119 14.9272 13.4278 15.2696 12.4279L9.49116 11.4531Z" fill="#7958BE"/>
<path d="M8.89638 14.2531C8.50857 14.788 6.99985 15.5223 6.99985 15.5223V26.2119L12.0002 26.2118C11.994 26.1714 11.9908 26.13 11.9908 26.0879V21.1322C11.9908 19.302 14.1037 17.7119 16.0002 17.7119C17.8968 17.7119 20.0097 19.302 20.0097 21.1322V26.0879C20.0097 26.13 20.0065 26.1714 20.0002 26.2118L24.9998 26.2119V15.5222C24.9998 15.5222 23.4939 14.7891 23.1067 14.2552C22.3474 15.2978 21.018 15.9664 19.5605 15.9664C18.0953 15.9664 16.7596 15.2908 16.0023 14.2388C15.2451 15.2908 13.9094 15.9664 12.4442 15.9664C10.9856 15.9664 9.65541 15.2969 8.89638 14.2531Z" fill="#7958BE"/>
<path d="M18.0002 26.2118C17.994 26.1714 17.9908 26.13 17.9908 26.0879V21.1322C17.9908 20.2258 16.9393 19.4907 16 19.4907C15.0608 19.4907 14.0097 20.2258 14.0097 21.1322V26.0879C14.0097 26.13 14.0065 26.1714 14.0002 26.2118H18.0002Z" fill="#7958BE"/>
</svg>
