<svg width="32" height="33" fill="none" xmlns="http://www.w3.org/2000/svg"><path fill-rule="evenodd" clip-rule="evenodd" d="M27.177 8.822l-4.526 4.475 2.469 12.067c.137.407 0 .95-.411 1.22l-.96.95c-.686.678-1.92.407-2.195-.407l-3.565-9.085-4.663 4.61.274 2.984c0 .406-.137.813-.411 1.084l-1.509 1.492-2.88-4.746L4 20.62l1.371-1.763c.275-.271.686-.407 1.098-.407l3.017.271 4.663-4.61-9.326-3.525C4 10.178 3.726 9.093 4.41 8.415l.96-.949c.275-.271.823-.407 1.235-.407L18.81 9.5l4.526-4.475c1.097-1.084 2.743-1.084 3.84 0 1.097 1.085 1.097 2.712 0 3.797z" fill="#7958BE"/></svg>