<svg width="32" height="33" fill="none" xmlns="http://www.w3.org/2000/svg"><path fill-rule="evenodd" clip-rule="evenodd" d="M16.01 4.212c3.323.002 6.646 1.243 9.182 3.722 2.576 2.518 3.845 5.83 3.807 9.13l.001.148c0 7.18-5.82 13-13 13s-13-5.82-13-13v-.148c-.037-3.3 1.232-6.612 3.808-9.13 2.536-2.479 5.858-3.72 9.182-3.722h.02zm7.19 21.317a10.957 10.957 0 0 1-7.2 2.683c-2.753 0-5.27-1.011-7.199-2.683a6.82 6.82 0 0 1 .763-1.376l.09-.124c.774-1.067 2.632-1.662 4.489-1.662h3.714c1.857 0 3.716.595 4.49 1.664l.09.122c.294.408.55.87.762 1.376zm-4.136-12.814a4.17 4.17 0 0 1 0 5.99c-1.692 1.655-4.436 1.655-6.128 0a4.17 4.17 0 0 1 0-5.99c1.692-1.655 4.436-1.655 6.128 0z" fill="#F68749"/></svg>