<svg width="32" height="33" viewBox="0 0 32 33" fill="none" xmlns="http://www.w3.org/2000/svg">
<path fill-rule="evenodd" clip-rule="evenodd" d="M3.72194 18.3275L5.45473 20.5877L5.82727 23.3999C6.03387 24.9604 7.26004 26.1888 8.81921 26.397L11.6379 26.7727L13.8804 28.4953C15.1291 29.4508 16.8625 29.4508 18.1112 28.4953L20.3696 26.7699L23.1825 26.397C24.7419 26.1903 25.9692 24.9631 26.1773 23.4028L26.5528 20.5819C26.5528 20.5819 27.4192 19.4403 28.2856 18.3247C29.2388 17.0756 29.2388 15.3425 28.2856 14.0934L26.5528 11.8332L26.1802 9.02107C25.9736 7.46049 24.7475 6.23218 23.1883 6.02392L20.3696 5.64819L18.1112 3.92851C16.8625 2.97305 15.1291 2.97305 13.8804 3.92851L11.622 5.65108L8.81199 6.02392C7.25262 6.23068 6.02527 7.4578 5.81717 9.01818L5.44173 11.839C5.44173 11.839 4.57534 12.9807 3.70895 14.0963C2.75953 15.3483 2.76485 17.0814 3.72194 18.3275ZM16.0005 15.6914C18.5852 15.6914 20.6805 17.7867 20.6805 20.3714C20.6805 21.233 19.9821 21.9314 19.1205 21.9314H12.8805C12.0189 21.9314 11.3205 21.233 11.3205 20.3714C11.3205 17.7867 13.4158 15.6914 16.0005 15.6914ZM10.2805 13.4429C10.2782 12.5822 10.9735 11.8822 11.8342 11.8788C12.2496 11.8755 12.6489 12.0385 12.9432 12.3316C13.2375 12.6247 13.4022 13.0235 13.4005 13.4387C13.4005 14.2995 12.7033 14.9976 11.8426 14.9987C10.9818 14.9999 10.2828 14.3037 10.2805 13.4429ZM20.1578 11.8788C19.2971 11.8822 18.6018 12.5822 18.604 13.4429C18.6063 14.3037 19.3054 14.9999 20.1661 14.9987C21.0269 14.9976 21.724 14.2995 21.724 13.4387C21.7257 13.0235 21.561 12.6247 21.2668 12.3316C20.9725 12.0385 20.5731 11.8755 20.1578 11.8788ZM14.4405 12.0556C14.4382 11.1948 15.1335 10.4949 15.9942 10.4915C16.4096 10.4881 16.8089 10.6512 17.1032 10.9443C17.3975 11.2374 17.5622 11.6361 17.5605 12.0514C17.5605 12.9122 16.8633 13.6103 16.0026 13.6114C15.1418 13.6125 14.4428 12.9163 14.4405 12.0556Z" fill="#99BE56"/>
</svg>
