<svg width="32" height="33" viewBox="0 0 32 33" fill="none" xmlns="http://www.w3.org/2000/svg">
<rect x="3" y="3.21191" width="26" height="26" rx="5" fill="#004D99"/>
<path d="M15 11.3702C13.2844 10.672 11.4184 10.2777 9.51369 10.2147C9.11972 10.1917 8.73243 10.311 8.44513 10.5437C8.15782 10.7764 7.99653 11.1016 8.00006 11.4408V19.8368C8.01166 20.4871 8.60734 21.0187 9.3633 21.0533C11.3239 21.074 13.2493 21.4716 15 22.2119V11.3702Z" fill="white"/>
<path d="M17 11.3702V22.2119C18.7507 21.4716 20.6761 21.074 22.6367 21.0533C23.3927 21.0187 23.9883 20.4871 23.9999 19.8368V11.4408C24.0035 11.1016 23.8422 10.7764 23.5549 10.5437C23.2676 10.311 22.8803 10.1917 22.4863 10.2147C20.5816 10.2777 18.7156 10.672 17 11.3702Z" fill="white"/>
</svg>
