<svg width="32" height="33" viewBox="0 0 32 33" fill="none" xmlns="http://www.w3.org/2000/svg">
<path fill-rule="evenodd" clip-rule="evenodd" d="M27.1218 13.0906C28.2934 14.2622 28.2934 16.1617 27.1218 17.3332C25.9502 18.5048 24.0507 18.5048 22.8792 17.3332C21.7076 16.1617 21.7076 14.2622 22.8792 13.0906C24.0507 11.919 25.9502 11.919 27.1218 13.0906Z" fill="#004D99"/>
<path fill-rule="evenodd" clip-rule="evenodd" d="M19.536 7.67638C21.4886 9.62899 21.4886 12.7948 19.536 14.7475C17.5834 16.7001 14.4176 16.7001 12.465 14.7475C10.5123 12.7948 10.5123 9.62901 12.465 7.67638C14.4176 5.72376 17.5834 5.72376 19.536 7.67638Z" fill="#004D99"/>
<path fill-rule="evenodd" clip-rule="evenodd" d="M9.12181 13.0906C10.2934 14.2622 10.2934 16.1617 9.12181 17.3332C7.95023 18.5048 6.05074 18.5048 4.87917 17.3332C3.70759 16.1617 3.70759 14.2622 4.87917 13.0906C6.05074 11.919 7.95023 11.919 9.12181 13.0906Z" fill="#004D99"/>
<path fill-rule="evenodd" clip-rule="evenodd" d="M25.0005 25.2119H30.0005C30.0005 21.6659 28.1094 20.2119 25.0005 20.2119" fill="#004D99"/>
<path fill-rule="evenodd" clip-rule="evenodd" d="M7.00049 25.2119H2.00049C2.00049 21.786 3.98451 20.2119 7.00049 20.2119" fill="#004D99"/>
<path fill-rule="evenodd" clip-rule="evenodd" d="M23.119 25.2119V23.4106C23.119 20.8332 21.0297 18.7439 18.4524 18.7439H13.547C10.9697 18.7439 8.88037 20.8332 8.88037 23.4106V25.2119" fill="#004D99"/>
</svg>
