<svg width="32" height="33" viewBox="0 0 32 33" fill="none" xmlns="http://www.w3.org/2000/svg">
<path d="M23.7754 13.4508C23.0786 11.6153 22.0625 9.91544 20.7734 8.42843C18.5425 5.86649 15.6091 4.21191 13.3 4.21191C13.1627 4.21202 13.0272 4.24328 12.904 4.30331C12.7808 4.36335 12.673 4.45056 12.589 4.55827C12.5049 4.66599 12.4468 4.79135 12.4192 4.92476C12.3915 5.05817 12.3949 5.1961 12.4293 5.32799C13.2094 8.28557 11.5923 10.7448 9.88056 13.3481C8.4625 15.5043 7 17.7314 7 20.2833C7 25.2063 11.0376 29.2119 16 29.2119C20.9624 29.2119 25 25.2063 25 20.2833C25 17.867 24.5882 15.5685 23.7754 13.4508ZM17.8186 25.7906C17.2375 26.4044 16.5091 26.5333 16 26.5333C15.4909 26.5333 14.7625 26.4044 14.1814 25.7906C13.6004 25.1768 13.3 24.203 13.3 22.9619C13.3 21.559 13.7961 20.4909 14.2754 19.4586C14.5538 18.8592 14.8379 18.2493 15.0066 17.5964C15.0245 17.5254 15.0598 17.4598 15.1093 17.4055C15.1587 17.3512 15.2209 17.3098 15.2903 17.2849C15.3597 17.26 15.4342 17.2525 15.5073 17.2629C15.5803 17.2734 15.6497 17.3014 15.7092 17.3447C16.2237 17.7396 16.6811 18.2026 17.0687 18.7208C18.0908 20.0601 18.7 21.6461 18.7 22.9619C18.7 24.203 18.3951 25.1812 17.8186 25.7906Z" fill="#E17E90"/>
</svg>
