<svg width="32" height="33" viewBox="0 0 32 33" fill="#99BE56" xmlns="http://www.w3.org/2000/svg">
<path fill-rule="evenodd" clip-rule="evenodd" d="M21.7778 29.2119H10.2222C6.2335 29.2119 3 25.9784 3 21.9897V10.4341C3 6.44541 6.2335 3.21191 10.2222 3.21191H21.7778C25.7665 3.21191 29 6.44541 29 10.4341V21.9897C29 25.9784 25.7665 29.2119 21.7778 29.2119Z" fill="#99BE56"/>
<path fill-rule="evenodd" clip-rule="evenodd" d="M16.1744 10.2126C13.2569 10.2126 10.8918 12.535 10.8918 15.3998C10.8918 15.8509 10.9504 16.2886 11.0607 16.7059C9.96462 17.5439 9.0115 18.5689 8.25329 19.7469C7.77054 20.4969 7.99837 21.4892 8.76215 21.9632C9.52593 22.4372 10.5364 22.2135 11.0192 21.4635C11.5194 20.6863 12.1358 20.0003 12.8403 19.4236C13.7496 20.1509 14.9101 20.5871 16.1744 20.5871C18.8783 20.5871 20.3003 18.5387 21.5954 16.673C22.3616 15.5693 23.0834 14.5295 24 14.0155C22.1615 11.5912 19.2523 10.1775 16.1744 10.2126ZM12.591 18.2541C12.412 18.3844 12.2373 18.5206 12.0674 18.6625C12.0674 18.6625 12.0674 18.6625 12.0674 18.6625C11.3074 19.297 10.6412 20.0462 10.0972 20.8913C9.9363 21.1413 9.59947 21.2159 9.34487 21.0579C9.09028 20.8999 9.01434 20.5691 9.17525 20.3191C9.95234 19.112 10.9547 18.0807 12.114 17.2707C12.2353 17.186 12.3584 17.1036 12.4831 17.0238C13.7477 16.2136 15.1815 15.6571 16.704 15.407C17.001 15.3582 17.2821 15.5551 17.3318 15.8468C17.3681 16.0599 17.2709 16.2646 17.1002 16.3785C17.0371 16.4205 16.9641 16.4501 16.8841 16.4633C15.4241 16.7031 14.0545 17.2555 12.8628 18.0632C12.7712 18.1253 12.6806 18.189 12.591 18.2541Z" fill="white"/>
</svg>
