<svg width="32" height="33" viewBox="0 0 32 33" fill="none" xmlns="http://www.w3.org/2000/svg">
<path fill-rule="evenodd" clip-rule="evenodd" d="M27.1771 8.82208L22.6514 13.2967L25.12 25.3645C25.2571 25.7712 25.12 26.3136 24.7086 26.5848L23.7486 27.5339C23.0629 28.2119 21.8286 27.9407 21.5543 27.1272L17.9886 18.0424L13.3257 22.6526L13.6 25.6356C13.6 26.0424 13.4629 26.4492 13.1886 26.7204L11.68 28.2119L8.8 23.4662L4 20.6187L5.37143 18.856C5.64571 18.5848 6.05714 18.4492 6.46857 18.4492L9.48571 18.7204L14.1486 14.1102L4.82286 10.5848C4 10.178 3.72571 9.09327 4.41143 8.4153L5.37143 7.46615C5.64571 7.19496 6.19429 7.05937 6.60571 7.05937L18.8114 9.50005L23.3371 5.02547C24.4343 3.94073 26.08 3.94073 27.1771 5.02547C28.2743 6.11022 28.2743 7.73734 27.1771 8.82208Z" fill="#7958BE"/>
</svg>
