<svg width="32" height="33" viewBox="0 0 32 33" fill="none" xmlns="http://www.w3.org/2000/svg">
<path fill-rule="evenodd" clip-rule="evenodd" d="M16.0098 4.21192C19.3335 4.21434 22.6565 5.45509 25.1924 7.93417C27.7681 10.4522 29.0371 13.764 28.9992 17.0641C28.9997 17.1133 29 17.1626 29 17.2119C29 24.3916 23.1797 30.2119 16 30.2119C8.8203 30.2119 3 24.3916 3 17.2119C3 17.1625 3.00028 17.1132 3.00082 17.064C2.96293 13.7639 4.23186 10.4522 6.80762 7.93417C9.34355 5.45509 12.6665 4.21434 15.9903 4.21192C15.9935 4.21192 15.9968 4.21191 16 4.21191C16.0033 4.21191 16.0065 4.21192 16.0098 4.21192ZM23.1992 25.529C21.2699 27.2005 18.7531 28.2119 16 28.2119C13.2472 28.2119 10.7305 27.2007 8.8012 25.5294C9.01242 25.0236 9.26841 24.5607 9.56372 24.1534L9.65308 24.0286C10.428 22.9618 12.2857 22.367 14.1429 22.367H17.8571C19.7143 22.367 21.5734 22.9618 22.3469 24.0307L22.4363 24.1534C22.7315 24.5606 22.9879 25.0234 23.1992 25.529ZM19.0641 12.7147C20.7563 14.369 20.7563 17.0512 19.0641 18.7056C17.3718 20.3599 14.6281 20.3599 12.9358 18.7056C11.2435 17.0512 11.2435 14.369 12.9358 12.7147C14.6281 11.0604 17.3718 11.0604 19.0641 12.7147Z" fill="#F68749"/>
</svg>
